<?xml version="1.0" encoding="utf-8" standalone="no"?>
<!DOCTYPE svg PUBLIC "-//W3C//DTD SVG 1.1//EN"
  "http://www.w3.org/Graphics/SVG/1.1/DTD/svg11.dtd">
<svg xmlns:xlink="http://www.w3.org/1999/xlink" width="1170pt" height="237.6pt" viewBox="0 0 1170 237.6" xmlns="http://www.w3.org/2000/svg" version="1.1">
 <metadata>
  <rdf:RDF xmlns:dc="http://purl.org/dc/elements/1.1/" xmlns:cc="http://creativecommons.org/ns#" xmlns:rdf="http://www.w3.org/1999/02/22-rdf-syntax-ns#">
   <cc:Work>
    <dc:type rdf:resource="http://purl.org/dc/dcmitype/StillImage"/>
    <dc:date>2025-05-23T12:34:32.665540</dc:date>
    <dc:format>image/svg+xml</dc:format>
    <dc:creator>
     <cc:Agent>
      <dc:title>Matplotlib v3.9.4, https://matplotlib.org/</dc:title>
     </cc:Agent>
    </dc:creator>
   </cc:Work>
  </rdf:RDF>
 </metadata>
 <defs>
  <style type="text/css">*{stroke-linejoin: round; stroke-linecap: butt}</style>
 </defs>
 <g id="figure_1">
  <g id="patch_1">
   <path d="M 0 237.6 
L 1170 237.6 
L 1170 0 
L 0 0 
z
" style="fill: #ffffff"/>
  </g>
  <g id="axes_1">
   <g id="patch_2">
    <path d="M 212.168041 140.299902 
L 306.250515 140.299902 
L 306.250515 199.023805 
L 212.168041 199.023805 
z
" clip-path="url(#p717cb24fa6)" style="fill: #ffffff"/>
   </g>
   <g id="patch_3">
    <path d="M 306.250515 140.299902 
L 368.972165 140.299902 
L 368.972165 199.023805 
L 306.250515 199.023805 
z
" clip-path="url(#p717cb24fa6)" style="fill: #ffffff"/>
   </g>
   <g id="patch_4">
    <path d="M 368.972165 140.299902 
L 431.693814 140.299902 
L 431.693814 199.023805 
L 368.972165 199.023805 
z
" clip-path="url(#p717cb24fa6)" style="fill: #ffffff"/>
   </g>
   <g id="patch_5">
    <path d="M 431.693814 140.299902 
L 494.415464 140.299902 
L 494.415464 199.023805 
L 431.693814 199.023805 
z
" clip-path="url(#p717cb24fa6)" style="fill: #ffffff"/>
   </g>
   <g id="patch_6">
    <path d="M 494.415464 140.299902 
L 557.137113 140.299902 
L 557.137113 199.023805 
L 494.415464 199.023805 
z
" clip-path="url(#p717cb24fa6)" style="fill: #ffffff"/>
   </g>
   <g id="patch_7">
    <path d="M 557.137113 140.299902 
L 619.858763 140.299902 
L 619.858763 199.023805 
L 557.137113 199.023805 
z
" clip-path="url(#p717cb24fa6)" style="fill: #ffffff"/>
   </g>
   <g id="patch_8">
    <path d="M 619.858763 140.299902 
L 682.580412 140.299902 
L 682.580412 199.023805 
L 619.858763 199.023805 
z
" clip-path="url(#p717cb24fa6)" style="fill: #ffffff"/>
   </g>
   <g id="patch_9">
    <path d="M 682.580412 140.299902 
L 745.302062 140.299902 
L 745.302062 199.023805 
L 682.580412 199.023805 
z
" clip-path="url(#p717cb24fa6)" style="fill: #ffffff"/>
   </g>
   <g id="patch_10">
    <path d="M 745.302062 140.299902 
L 808.023711 140.299902 
L 808.023711 199.023805 
L 745.302062 199.023805 
z
" clip-path="url(#p717cb24fa6)" style="fill: #ffffff"/>
   </g>
   <g id="patch_11">
    <path d="M 808.023711 140.299902 
L 870.745361 140.299902 
L 870.745361 199.023805 
L 808.023711 199.023805 
z
" clip-path="url(#p717cb24fa6)" style="fill: #ffffff"/>
   </g>
   <g id="patch_12">
    <path d="M 870.745361 140.299902 
L 933.46701 140.299902 
L 933.46701 199.023805 
L 870.745361 199.023805 
z
" clip-path="url(#p717cb24fa6)" style="fill: #ffffff"/>
   </g>
   <g id="patch_13">
    <path d="M 933.46701 140.299902 
L 996.18866 140.299902 
L 996.18866 199.023805 
L 933.46701 199.023805 
z
" clip-path="url(#p717cb24fa6)" style="fill: #ffffff"/>
   </g>
   <g id="patch_14">
    <path d="M 933.46701 140.299902 
L 996.18866 140.299902 
L 996.18866 199.023805 
L 933.46701 199.023805 
z
" clip-path="url(#p717cb24fa6)" style="fill: #ffffff"/>
   </g>
   <g id="patch_15">
    <path d="M 996.18866 140.299902 
L 1058.910309 140.299902 
L 1058.910309 199.023805 
L 996.18866 199.023805 
z
" clip-path="url(#p717cb24fa6)" style="fill: #ffffff"/>
   </g>
   <g id="patch_16">
    <path d="M 996.18866 140.299902 
L 1058.910309 140.299902 
L 1058.910309 199.023805 
L 996.18866 199.023805 
z
" clip-path="url(#p717cb24fa6)" style="fill: #ffffff"/>
   </g>
   <g id="patch_17">
    <path d="M 1058.910309 140.299902 
L 1121.631959 140.299902 
L 1121.631959 199.023805 
L 1058.910309 199.023805 
z
" clip-path="url(#p717cb24fa6)" style="fill: #ffffff"/>
   </g>
   <g id="patch_18">
    <path d="M 1058.910309 140.299902 
L 1121.631959 140.299902 
L 1121.631959 199.023805 
L 1058.910309 199.023805 
z
" clip-path="url(#p717cb24fa6)" style="fill: #ffffff"/>
   </g>
   <g id="patch_19">
    <path d="M 212.168041 81.576 
L 306.250515 81.576 
L 306.250515 140.299902 
L 212.168041 140.299902 
z
" clip-path="url(#p717cb24fa6)" style="fill: #ffffff"/>
   </g>
   <g id="patch_20">
    <path d="M 306.250515 81.576 
L 368.972165 81.576 
L 368.972165 140.299902 
L 306.250515 140.299902 
z
" clip-path="url(#p717cb24fa6)" style="fill: #ffffff"/>
   </g>
   <g id="patch_21">
    <path d="M 368.972165 81.576 
L 431.693814 81.576 
L 431.693814 140.299902 
L 368.972165 140.299902 
z
" clip-path="url(#p717cb24fa6)" style="fill: #ffffff"/>
   </g>
   <g id="patch_22">
    <path d="M 431.693814 81.576 
L 494.415464 81.576 
L 494.415464 140.299902 
L 431.693814 140.299902 
z
" clip-path="url(#p717cb24fa6)" style="fill: #ffffff"/>
   </g>
   <g id="patch_23">
    <path d="M 494.415464 81.576 
L 557.137113 81.576 
L 557.137113 140.299902 
L 494.415464 140.299902 
z
" clip-path="url(#p717cb24fa6)" style="fill: #ffffff"/>
   </g>
   <g id="patch_24">
    <path d="M 557.137113 81.576 
L 619.858763 81.576 
L 619.858763 140.299902 
L 557.137113 140.299902 
z
" clip-path="url(#p717cb24fa6)" style="fill: #ffffff"/>
   </g>
   <g id="patch_25">
    <path d="M 619.858763 81.576 
L 682.580412 81.576 
L 682.580412 140.299902 
L 619.858763 140.299902 
z
" clip-path="url(#p717cb24fa6)" style="fill: #ffffff"/>
   </g>
   <g id="patch_26">
    <path d="M 682.580412 81.576 
L 745.302062 81.576 
L 745.302062 140.299902 
L 682.580412 140.299902 
z
" clip-path="url(#p717cb24fa6)" style="fill: #ffffff"/>
   </g>
   <g id="patch_27">
    <path d="M 745.302062 81.576 
L 808.023711 81.576 
L 808.023711 140.299902 
L 745.302062 140.299902 
z
" clip-path="url(#p717cb24fa6)" style="fill: #ffffff"/>
   </g>
   <g id="patch_28">
    <path d="M 808.023711 81.576 
L 870.745361 81.576 
L 870.745361 140.299902 
L 808.023711 140.299902 
z
" clip-path="url(#p717cb24fa6)" style="fill: #ffffff"/>
   </g>
   <g id="patch_29">
    <path d="M 870.745361 81.576 
L 933.46701 81.576 
L 933.46701 140.299902 
L 870.745361 140.299902 
z
" clip-path="url(#p717cb24fa6)" style="fill: #ffffff"/>
   </g>
   <g id="patch_30">
    <path d="M 933.46701 81.576 
L 996.18866 81.576 
L 996.18866 140.299902 
L 933.46701 140.299902 
z
" clip-path="url(#p717cb24fa6)" style="fill: #ffffff"/>
   </g>
   <g id="patch_31">
    <path d="M 996.18866 81.576 
L 1058.910309 81.576 
L 1058.910309 140.299902 
L 996.18866 140.299902 
z
" clip-path="url(#p717cb24fa6)" style="fill: #ffffff"/>
   </g>
   <g id="patch_32">
    <path d="M 1058.910309 81.576 
L 1121.631959 81.576 
L 1121.631959 140.299902 
L 1058.910309 140.299902 
z
" clip-path="url(#p717cb24fa6)" style="fill: #ffffff"/>
   </g>
   <g id="patch_33">
    <path d="M 933.46701 81.576 
L 1121.631959 81.576 
L 1121.631959 140.299902 
L 933.46701 140.299902 
z
" clip-path="url(#p717cb24fa6)" style="fill: #ffffff"/>
   </g>
   <g id="patch_34">
    <path d="M 306.250515 81.576 
L 619.858763 81.576 
L 619.858763 140.299902 
L 306.250515 140.299902 
z
" clip-path="url(#p717cb24fa6)" style="fill: #ffffff"/>
   </g>
   <g id="patch_35">
    <path d="M 619.858763 81.576 
L 933.46701 81.576 
L 933.46701 140.299902 
L 619.858763 140.299902 
z
" clip-path="url(#p717cb24fa6)" style="fill: #ffffff"/>
   </g>
   <g id="patch_36">
    <path d="M 933.46701 140.299902 
L 996.18866 140.299902 
L 996.18866 199.023805 
L 933.46701 199.023805 
z
" clip-path="url(#p717cb24fa6)" style="fill: #ffffff"/>
   </g>
   <g id="patch_37">
    <path d="M 996.18866 140.299902 
L 1058.910309 140.299902 
L 1058.910309 199.023805 
L 996.18866 199.023805 
z
" clip-path="url(#p717cb24fa6)" style="fill: #ffffff"/>
   </g>
   <g id="patch_38">
    <path d="M 1058.910309 140.299902 
L 1121.631959 140.299902 
L 1121.631959 199.023805 
L 1058.910309 199.023805 
z
" clip-path="url(#p717cb24fa6)" style="fill: #ffffff"/>
   </g>
   <g id="line2d_1">
    <path d="M 942.875258 81.576 
L 1112.223711 81.576 
" clip-path="url(#p717cb24fa6)" style="fill: none; stroke: #262626; stroke-width: 0.2; stroke-linecap: round"/>
   </g>
   <g id="line2d_2">
    <path d="M 321.930928 81.576 
L 604.178351 81.576 
" clip-path="url(#p717cb24fa6)" style="fill: none; stroke: #262626; stroke-width: 0.2; stroke-linecap: round"/>
   </g>
   <g id="line2d_3">
    <path d="M 635.539175 81.576 
L 917.786598 81.576 
" clip-path="url(#p717cb24fa6)" style="fill: none; stroke: #262626; stroke-width: 0.2; stroke-linecap: round"/>
   </g>
   <g id="line2d_4">
    <path d="M 212.168041 140.299902 
L 1121.631959 140.299902 
" clip-path="url(#p717cb24fa6)" style="fill: none; stroke: #262626; stroke-linecap: round"/>
   </g>
   <g id="line2d_5">
    <path d="M 212.168041 199.023805 
L 1121.631959 199.023805 
" clip-path="url(#p717cb24fa6)" style="fill: none; stroke: #262626; stroke-linecap: round"/>
   </g>
   <g id="line2d_6">
    <path d="M 933.46701 140.299902 
L 933.46701 199.023805 
" clip-path="url(#p717cb24fa6)" style="fill: none; stroke: #262626; stroke-linecap: round"/>
   </g>
   <g id="text_1">
    <!-- iPCA_scGPT -->
    <g transform="translate(221.576289 172.312635) scale(0.1 -0.1)">
     <defs>
      <path id="Arial-BoldMT-69" d="M 459 3769 
L 459 4581 
L 1338 4581 
L 1338 3769 
L 459 3769 
z
M 459 0 
L 459 3319 
L 1338 3319 
L 1338 0 
L 459 0 
z
" transform="scale(0.015625)"/>
      <path id="Arial-BoldMT-50" d="M 466 0 
L 466 4581 
L 1950 4581 
Q 2794 4581 3050 4513 
Q 3444 4409 3709 4064 
Q 3975 3719 3975 3172 
Q 3975 2750 3822 2462 
Q 3669 2175 3433 2011 
Q 3197 1847 2953 1794 
Q 2622 1728 1994 1728 
L 1391 1728 
L 1391 0 
L 466 0 
z
M 1391 3806 
L 1391 2506 
L 1897 2506 
Q 2444 2506 2628 2578 
Q 2813 2650 2917 2803 
Q 3022 2956 3022 3159 
Q 3022 3409 2875 3571 
Q 2728 3734 2503 3775 
Q 2338 3806 1838 3806 
L 1391 3806 
z
" transform="scale(0.015625)"/>
      <path id="Arial-BoldMT-43" d="M 3397 1684 
L 4294 1400 
Q 4088 650 3608 286 
Q 3128 -78 2391 -78 
Q 1478 -78 890 545 
Q 303 1169 303 2250 
Q 303 3394 893 4026 
Q 1484 4659 2447 4659 
Q 3288 4659 3813 4163 
Q 4125 3869 4281 3319 
L 3366 3100 
Q 3284 3456 3026 3662 
Q 2769 3869 2400 3869 
Q 1891 3869 1573 3503 
Q 1256 3138 1256 2319 
Q 1256 1450 1568 1081 
Q 1881 713 2381 713 
Q 2750 713 3015 947 
Q 3281 1181 3397 1684 
z
" transform="scale(0.015625)"/>
      <path id="Arial-BoldMT-41" d="M 4597 0 
L 3591 0 
L 3191 1041 
L 1359 1041 
L 981 0 
L 0 0 
L 1784 4581 
L 2763 4581 
L 4597 0 
z
M 2894 1813 
L 2263 3513 
L 1644 1813 
L 2894 1813 
z
" transform="scale(0.015625)"/>
      <path id="Arial-BoldMT-5f" d="M -59 -1266 
L -59 -697 
L 3591 -697 
L 3591 -1266 
L -59 -1266 
z
" transform="scale(0.015625)"/>
      <path id="Arial-BoldMT-73" d="M 150 947 
L 1031 1081 
Q 1088 825 1259 692 
Q 1431 559 1741 559 
Q 2081 559 2253 684 
Q 2369 772 2369 919 
Q 2369 1019 2306 1084 
Q 2241 1147 2013 1200 
Q 950 1434 666 1628 
Q 272 1897 272 2375 
Q 272 2806 612 3100 
Q 953 3394 1669 3394 
Q 2350 3394 2681 3172 
Q 3013 2950 3138 2516 
L 2309 2363 
Q 2256 2556 2107 2659 
Q 1959 2763 1684 2763 
Q 1338 2763 1188 2666 
Q 1088 2597 1088 2488 
Q 1088 2394 1175 2328 
Q 1294 2241 1995 2081 
Q 2697 1922 2975 1691 
Q 3250 1456 3250 1038 
Q 3250 581 2869 253 
Q 2488 -75 1741 -75 
Q 1063 -75 667 200 
Q 272 475 150 947 
z
" transform="scale(0.015625)"/>
      <path id="Arial-BoldMT-63" d="M 3353 2338 
L 2488 2181 
Q 2444 2441 2289 2572 
Q 2134 2703 1888 2703 
Q 1559 2703 1364 2476 
Q 1169 2250 1169 1719 
Q 1169 1128 1367 884 
Q 1566 641 1900 641 
Q 2150 641 2309 783 
Q 2469 925 2534 1272 
L 3397 1125 
Q 3263 531 2881 228 
Q 2500 -75 1859 -75 
Q 1131 -75 698 384 
Q 266 844 266 1656 
Q 266 2478 700 2936 
Q 1134 3394 1875 3394 
Q 2481 3394 2839 3133 
Q 3197 2872 3353 2338 
z
" transform="scale(0.015625)"/>
      <path id="Arial-BoldMT-47" d="M 2597 1684 
L 2597 2456 
L 4591 2456 
L 4591 631 
Q 4300 350 3748 136 
Q 3197 -78 2631 -78 
Q 1913 -78 1378 223 
Q 844 525 575 1086 
Q 306 1647 306 2306 
Q 306 3022 606 3578 
Q 906 4134 1484 4431 
Q 1925 4659 2581 4659 
Q 3434 4659 3914 4301 
Q 4394 3944 4531 3313 
L 3613 3141 
Q 3516 3478 3248 3673 
Q 2981 3869 2581 3869 
Q 1975 3869 1617 3484 
Q 1259 3100 1259 2344 
Q 1259 1528 1621 1120 
Q 1984 713 2572 713 
Q 2863 713 3155 827 
Q 3447 941 3656 1103 
L 3656 1684 
L 2597 1684 
z
" transform="scale(0.015625)"/>
      <path id="Arial-BoldMT-54" d="M 1497 0 
L 1497 3806 
L 138 3806 
L 138 4581 
L 3778 4581 
L 3778 3806 
L 2422 3806 
L 2422 0 
L 1497 0 
z
" transform="scale(0.015625)"/>
     </defs>
     <use xlink:href="#Arial-BoldMT-69"/>
     <use xlink:href="#Arial-BoldMT-50" x="27.783203"/>
     <use xlink:href="#Arial-BoldMT-43" x="94.482422"/>
     <use xlink:href="#Arial-BoldMT-41" x="166.699219"/>
     <use xlink:href="#Arial-BoldMT-5f" x="238.916016"/>
     <use xlink:href="#Arial-BoldMT-73" x="294.53125"/>
     <use xlink:href="#Arial-BoldMT-63" x="350.146484"/>
     <use xlink:href="#Arial-BoldMT-47" x="405.761719"/>
     <use xlink:href="#Arial-BoldMT-50" x="483.544922"/>
     <use xlink:href="#Arial-BoldMT-54" x="550.244141"/>
    </g>
   </g>
   <g id="text_2">
    <g id="patch_39">
     <path d="M 337.61134 181.892322 
C 340.854898 181.892322 343.966046 180.603643 346.259588 178.310101 
C 348.55313 176.016559 349.841809 172.905412 349.841809 169.661854 
C 349.841809 166.418295 348.55313 163.307148 346.259588 161.013606 
C 343.966046 158.720064 340.854898 157.431385 337.61134 157.431385 
C 334.367782 157.431385 331.256635 158.720064 328.963093 161.013606 
C 326.669551 163.307148 325.380871 166.418295 325.380871 169.661854 
C 325.380871 172.905412 326.669551 176.016559 328.963093 178.310101 
C 331.256635 180.603643 334.367782 181.892322 337.61134 181.892322 
L 337.61134 181.892322 
z
" style="fill: none"/>
    </g>
    <!-- 0.52 -->
    <g style="fill: #ffffff" transform="translate(327.880871 172.24701) scale(0.1 -0.1)">
     <defs>
      <path id="ArialMT-30" d="M 266 2259 
Q 266 3072 433 3567 
Q 600 4063 929 4331 
Q 1259 4600 1759 4600 
Q 2128 4600 2406 4451 
Q 2684 4303 2865 4023 
Q 3047 3744 3150 3342 
Q 3253 2941 3253 2259 
Q 3253 1453 3087 958 
Q 2922 463 2592 192 
Q 2263 -78 1759 -78 
Q 1097 -78 719 397 
Q 266 969 266 2259 
z
M 844 2259 
Q 844 1131 1108 757 
Q 1372 384 1759 384 
Q 2147 384 2411 759 
Q 2675 1134 2675 2259 
Q 2675 3391 2411 3762 
Q 2147 4134 1753 4134 
Q 1366 4134 1134 3806 
Q 844 3388 844 2259 
z
" transform="scale(0.015625)"/>
      <path id="ArialMT-2e" d="M 581 0 
L 581 641 
L 1222 641 
L 1222 0 
L 581 0 
z
" transform="scale(0.015625)"/>
      <path id="ArialMT-35" d="M 266 1200 
L 856 1250 
Q 922 819 1161 601 
Q 1400 384 1738 384 
Q 2144 384 2425 690 
Q 2706 997 2706 1503 
Q 2706 1984 2436 2262 
Q 2166 2541 1728 2541 
Q 1456 2541 1237 2417 
Q 1019 2294 894 2097 
L 366 2166 
L 809 4519 
L 3088 4519 
L 3088 3981 
L 1259 3981 
L 1013 2750 
Q 1425 3038 1878 3038 
Q 2478 3038 2890 2622 
Q 3303 2206 3303 1553 
Q 3303 931 2941 478 
Q 2500 -78 1738 -78 
Q 1113 -78 717 272 
Q 322 622 266 1200 
z
" transform="scale(0.015625)"/>
      <path id="ArialMT-32" d="M 3222 541 
L 3222 0 
L 194 0 
Q 188 203 259 391 
Q 375 700 629 1000 
Q 884 1300 1366 1694 
Q 2113 2306 2375 2664 
Q 2638 3022 2638 3341 
Q 2638 3675 2398 3904 
Q 2159 4134 1775 4134 
Q 1369 4134 1125 3890 
Q 881 3647 878 3216 
L 300 3275 
Q 359 3922 746 4261 
Q 1134 4600 1788 4600 
Q 2447 4600 2831 4234 
Q 3216 3869 3216 3328 
Q 3216 3053 3103 2787 
Q 2991 2522 2730 2228 
Q 2469 1934 1863 1422 
Q 1356 997 1212 845 
Q 1069 694 975 541 
L 3222 541 
z
" transform="scale(0.015625)"/>
     </defs>
     <use xlink:href="#ArialMT-30"/>
     <use xlink:href="#ArialMT-2e" x="55.615234"/>
     <use xlink:href="#ArialMT-35" x="83.398438"/>
     <use xlink:href="#ArialMT-32" x="139.013672"/>
    </g>
   </g>
   <g id="text_3">
    <g id="patch_40">
     <path d="M 400.33299 181.892322 
C 403.576548 181.892322 406.687695 180.603643 408.981237 178.310101 
C 411.274779 176.016559 412.563458 172.905412 412.563458 169.661854 
C 412.563458 166.418295 411.274779 163.307148 408.981237 161.013606 
C 406.687695 158.720064 403.576548 157.431385 400.33299 157.431385 
C 397.089431 157.431385 393.978284 158.720064 391.684742 161.013606 
C 389.3912 163.307148 388.102521 166.418295 388.102521 169.661854 
C 388.102521 172.905412 389.3912 176.016559 391.684742 178.310101 
C 393.978284 180.603643 397.089431 181.892322 400.33299 181.892322 
L 400.33299 181.892322 
z
" style="fill: none"/>
    </g>
    <!-- 0.03 -->
    <g style="fill: #ffffff" transform="translate(390.602521 172.24701) scale(0.1 -0.1)">
     <defs>
      <path id="ArialMT-33" d="M 269 1209 
L 831 1284 
Q 928 806 1161 595 
Q 1394 384 1728 384 
Q 2125 384 2398 659 
Q 2672 934 2672 1341 
Q 2672 1728 2419 1979 
Q 2166 2231 1775 2231 
Q 1616 2231 1378 2169 
L 1441 2663 
Q 1497 2656 1531 2656 
Q 1891 2656 2178 2843 
Q 2466 3031 2466 3422 
Q 2466 3731 2256 3934 
Q 2047 4138 1716 4138 
Q 1388 4138 1169 3931 
Q 950 3725 888 3313 
L 325 3413 
Q 428 3978 793 4289 
Q 1159 4600 1703 4600 
Q 2078 4600 2393 4439 
Q 2709 4278 2876 4000 
Q 3044 3722 3044 3409 
Q 3044 3113 2884 2869 
Q 2725 2625 2413 2481 
Q 2819 2388 3044 2092 
Q 3269 1797 3269 1353 
Q 3269 753 2831 336 
Q 2394 -81 1725 -81 
Q 1122 -81 723 278 
Q 325 638 269 1209 
z
" transform="scale(0.015625)"/>
     </defs>
     <use xlink:href="#ArialMT-30"/>
     <use xlink:href="#ArialMT-2e" x="55.615234"/>
     <use xlink:href="#ArialMT-30" x="83.398438"/>
     <use xlink:href="#ArialMT-33" x="139.013672"/>
    </g>
   </g>
   <g id="text_4">
    <g id="patch_41">
     <path d="M 463.054639 181.892322 
C 466.298197 181.892322 469.409345 180.603643 471.702887 178.310101 
C 473.996429 176.016559 475.285108 172.905412 475.285108 169.661854 
C 475.285108 166.418295 473.996429 163.307148 471.702887 161.013606 
C 469.409345 158.720064 466.298197 157.431385 463.054639 157.431385 
C 459.811081 157.431385 456.699934 158.720064 454.406392 161.013606 
C 452.11285 163.307148 450.82417 166.418295 450.82417 169.661854 
C 450.82417 172.905412 452.11285 176.016559 454.406392 178.310101 
C 456.699934 180.603643 459.811081 181.892322 463.054639 181.892322 
L 463.054639 181.892322 
z
" style="fill: none"/>
    </g>
    <!-- 0.00 -->
    <g style="fill: #ffffff" transform="translate(453.32417 172.24701) scale(0.1 -0.1)">
     <use xlink:href="#ArialMT-30"/>
     <use xlink:href="#ArialMT-2e" x="55.615234"/>
     <use xlink:href="#ArialMT-30" x="83.398438"/>
     <use xlink:href="#ArialMT-30" x="139.013672"/>
    </g>
   </g>
   <g id="text_5">
    <g id="patch_42">
     <path d="M 525.776289 181.892322 
C 529.019847 181.892322 532.130994 180.603643 534.424536 178.310101 
C 536.718078 176.016559 538.006757 172.905412 538.006757 169.661854 
C 538.006757 166.418295 536.718078 163.307148 534.424536 161.013606 
C 532.130994 158.720064 529.019847 157.431385 525.776289 157.431385 
C 522.53273 157.431385 519.421583 158.720064 517.128041 161.013606 
C 514.834499 163.307148 513.54582 166.418295 513.54582 169.661854 
C 513.54582 172.905412 514.834499 176.016559 517.128041 178.310101 
C 519.421583 180.603643 522.53273 181.892322 525.776289 181.892322 
L 525.776289 181.892322 
z
" style="fill: none"/>
    </g>
    <!-- 0.63 -->
    <g style="fill: #ffffff" transform="translate(516.04582 172.24701) scale(0.1 -0.1)">
     <defs>
      <path id="ArialMT-36" d="M 3184 3459 
L 2625 3416 
Q 2550 3747 2413 3897 
Q 2184 4138 1850 4138 
Q 1581 4138 1378 3988 
Q 1113 3794 959 3422 
Q 806 3050 800 2363 
Q 1003 2672 1297 2822 
Q 1591 2972 1913 2972 
Q 2475 2972 2870 2558 
Q 3266 2144 3266 1488 
Q 3266 1056 3080 686 
Q 2894 316 2569 119 
Q 2244 -78 1831 -78 
Q 1128 -78 684 439 
Q 241 956 241 2144 
Q 241 3472 731 4075 
Q 1159 4600 1884 4600 
Q 2425 4600 2770 4297 
Q 3116 3994 3184 3459 
z
M 888 1484 
Q 888 1194 1011 928 
Q 1134 663 1356 523 
Q 1578 384 1822 384 
Q 2178 384 2434 671 
Q 2691 959 2691 1453 
Q 2691 1928 2437 2201 
Q 2184 2475 1800 2475 
Q 1419 2475 1153 2201 
Q 888 1928 888 1484 
z
" transform="scale(0.015625)"/>
     </defs>
     <use xlink:href="#ArialMT-30"/>
     <use xlink:href="#ArialMT-2e" x="55.615234"/>
     <use xlink:href="#ArialMT-36" x="83.398438"/>
     <use xlink:href="#ArialMT-33" x="139.013672"/>
    </g>
   </g>
   <g id="text_6">
    <g id="patch_43">
     <path d="M 588.497938 181.892322 
C 591.741496 181.892322 594.852644 180.603643 597.146186 178.310101 
C 599.439728 176.016559 600.728407 172.905412 600.728407 169.661854 
C 600.728407 166.418295 599.439728 163.307148 597.146186 161.013606 
C 594.852644 158.720064 591.741496 157.431385 588.497938 157.431385 
C 585.25438 157.431385 582.143233 158.720064 579.849691 161.013606 
C 577.556149 163.307148 576.267469 166.418295 576.267469 169.661854 
C 576.267469 172.905412 577.556149 176.016559 579.849691 178.310101 
C 582.143233 180.603643 585.25438 181.892322 588.497938 181.892322 
L 588.497938 181.892322 
z
" style="fill: none"/>
    </g>
    <!-- 1.00 -->
    <g style="fill: #ffffff" transform="translate(578.767469 172.24701) scale(0.1 -0.1)">
     <defs>
      <path id="ArialMT-31" d="M 2384 0 
L 1822 0 
L 1822 3584 
Q 1619 3391 1289 3197 
Q 959 3003 697 2906 
L 697 3450 
Q 1169 3672 1522 3987 
Q 1875 4303 2022 4600 
L 2384 4600 
L 2384 0 
z
" transform="scale(0.015625)"/>
     </defs>
     <use xlink:href="#ArialMT-31"/>
     <use xlink:href="#ArialMT-2e" x="55.615234"/>
     <use xlink:href="#ArialMT-30" x="83.398438"/>
     <use xlink:href="#ArialMT-30" x="139.013672"/>
    </g>
   </g>
   <g id="text_7">
    <g id="patch_44">
     <path d="M 651.219588 181.892322 
C 654.463146 181.892322 657.574293 180.603643 659.867835 178.310101 
C 662.161377 176.016559 663.450056 172.905412 663.450056 169.661854 
C 663.450056 166.418295 662.161377 163.307148 659.867835 161.013606 
C 657.574293 158.720064 654.463146 157.431385 651.219588 157.431385 
C 647.976029 157.431385 644.864882 158.720064 642.57134 161.013606 
C 640.277798 163.307148 638.989119 166.418295 638.989119 169.661854 
C 638.989119 172.905412 640.277798 176.016559 642.57134 178.310101 
C 644.864882 180.603643 647.976029 181.892322 651.219588 181.892322 
L 651.219588 181.892322 
z
" style="fill: none"/>
    </g>
    <!-- 0.67 -->
    <g style="fill: #ffffff" transform="translate(641.489119 172.24701) scale(0.1 -0.1)">
     <defs>
      <path id="ArialMT-37" d="M 303 3981 
L 303 4522 
L 3269 4522 
L 3269 4084 
Q 2831 3619 2401 2847 
Q 1972 2075 1738 1259 
Q 1569 684 1522 0 
L 944 0 
Q 953 541 1156 1306 
Q 1359 2072 1739 2783 
Q 2119 3494 2547 3981 
L 303 3981 
z
" transform="scale(0.015625)"/>
     </defs>
     <use xlink:href="#ArialMT-30"/>
     <use xlink:href="#ArialMT-2e" x="55.615234"/>
     <use xlink:href="#ArialMT-36" x="83.398438"/>
     <use xlink:href="#ArialMT-37" x="139.013672"/>
    </g>
   </g>
   <g id="text_8">
    <g id="patch_45">
     <path d="M 713.941237 181.892322 
C 717.184795 181.892322 720.295942 180.603643 722.589485 178.310101 
C 724.883027 176.016559 726.171706 172.905412 726.171706 169.661854 
C 726.171706 166.418295 724.883027 163.307148 722.589485 161.013606 
C 720.295942 158.720064 717.184795 157.431385 713.941237 157.431385 
C 710.697679 157.431385 707.586532 158.720064 705.29299 161.013606 
C 702.999448 163.307148 701.710768 166.418295 701.710768 169.661854 
C 701.710768 172.905412 702.999448 176.016559 705.29299 178.310101 
C 707.586532 180.603643 710.697679 181.892322 713.941237 181.892322 
L 713.941237 181.892322 
z
" style="fill: none"/>
    </g>
    <!-- 0.17 -->
    <g style="fill: #ffffff" transform="translate(704.210768 172.24701) scale(0.1 -0.1)">
     <use xlink:href="#ArialMT-30"/>
     <use xlink:href="#ArialMT-2e" x="55.615234"/>
     <use xlink:href="#ArialMT-31" x="83.398438"/>
     <use xlink:href="#ArialMT-37" x="139.013672"/>
    </g>
   </g>
   <g id="text_9">
    <g id="patch_46">
     <path d="M 776.662887 181.892322 
C 779.906445 181.892322 783.017592 180.603643 785.311134 178.310101 
C 787.604676 176.016559 788.893355 172.905412 788.893355 169.661854 
C 788.893355 166.418295 787.604676 163.307148 785.311134 161.013606 
C 783.017592 158.720064 779.906445 157.431385 776.662887 157.431385 
C 773.419328 157.431385 770.308181 158.720064 768.014639 161.013606 
C 765.721097 163.307148 764.432418 166.418295 764.432418 169.661854 
C 764.432418 172.905412 765.721097 176.016559 768.014639 178.310101 
C 770.308181 180.603643 773.419328 181.892322 776.662887 181.892322 
L 776.662887 181.892322 
z
" style="fill: none"/>
    </g>
    <!-- 0.49 -->
    <g style="fill: #ffffff" transform="translate(766.932418 172.24701) scale(0.1 -0.1)">
     <defs>
      <path id="ArialMT-34" d="M 2069 0 
L 2069 1097 
L 81 1097 
L 81 1613 
L 2172 4581 
L 2631 4581 
L 2631 1613 
L 3250 1613 
L 3250 1097 
L 2631 1097 
L 2631 0 
L 2069 0 
z
M 2069 1613 
L 2069 3678 
L 634 1613 
L 2069 1613 
z
" transform="scale(0.015625)"/>
      <path id="ArialMT-39" d="M 350 1059 
L 891 1109 
Q 959 728 1153 556 
Q 1347 384 1650 384 
Q 1909 384 2104 503 
Q 2300 622 2425 820 
Q 2550 1019 2634 1356 
Q 2719 1694 2719 2044 
Q 2719 2081 2716 2156 
Q 2547 1888 2255 1720 
Q 1963 1553 1622 1553 
Q 1053 1553 659 1965 
Q 266 2378 266 3053 
Q 266 3750 677 4175 
Q 1088 4600 1706 4600 
Q 2153 4600 2523 4359 
Q 2894 4119 3086 3673 
Q 3278 3228 3278 2384 
Q 3278 1506 3087 986 
Q 2897 466 2520 194 
Q 2144 -78 1638 -78 
Q 1100 -78 759 220 
Q 419 519 350 1059 
z
M 2653 3081 
Q 2653 3566 2395 3850 
Q 2138 4134 1775 4134 
Q 1400 4134 1122 3828 
Q 844 3522 844 3034 
Q 844 2597 1108 2323 
Q 1372 2050 1759 2050 
Q 2150 2050 2401 2323 
Q 2653 2597 2653 3081 
z
" transform="scale(0.015625)"/>
     </defs>
     <use xlink:href="#ArialMT-30"/>
     <use xlink:href="#ArialMT-2e" x="55.615234"/>
     <use xlink:href="#ArialMT-34" x="83.398438"/>
     <use xlink:href="#ArialMT-39" x="139.013672"/>
    </g>
   </g>
   <g id="text_10">
    <g id="patch_47">
     <path d="M 839.384536 181.892322 
C 842.628094 181.892322 845.739241 180.603643 848.032783 178.310101 
C 850.326325 176.016559 851.615005 172.905412 851.615005 169.661854 
C 851.615005 166.418295 850.326325 163.307148 848.032783 161.013606 
C 845.739241 158.720064 842.628094 157.431385 839.384536 157.431385 
C 836.140978 157.431385 833.029831 158.720064 830.736289 161.013606 
C 828.442747 163.307148 827.154067 166.418295 827.154067 169.661854 
C 827.154067 172.905412 828.442747 176.016559 830.736289 178.310101 
C 833.029831 180.603643 836.140978 181.892322 839.384536 181.892322 
L 839.384536 181.892322 
z
" style="fill: none"/>
    </g>
    <!-- 0.89 -->
    <g style="fill: #ffffff" transform="translate(829.654067 172.24701) scale(0.1 -0.1)">
     <defs>
      <path id="ArialMT-38" d="M 1131 2484 
Q 781 2613 612 2850 
Q 444 3088 444 3419 
Q 444 3919 803 4259 
Q 1163 4600 1759 4600 
Q 2359 4600 2725 4251 
Q 3091 3903 3091 3403 
Q 3091 3084 2923 2848 
Q 2756 2613 2416 2484 
Q 2838 2347 3058 2040 
Q 3278 1734 3278 1309 
Q 3278 722 2862 322 
Q 2447 -78 1769 -78 
Q 1091 -78 675 323 
Q 259 725 259 1325 
Q 259 1772 486 2073 
Q 713 2375 1131 2484 
z
M 1019 3438 
Q 1019 3113 1228 2906 
Q 1438 2700 1772 2700 
Q 2097 2700 2305 2904 
Q 2513 3109 2513 3406 
Q 2513 3716 2298 3927 
Q 2084 4138 1766 4138 
Q 1444 4138 1231 3931 
Q 1019 3725 1019 3438 
z
M 838 1322 
Q 838 1081 952 856 
Q 1066 631 1291 507 
Q 1516 384 1775 384 
Q 2178 384 2440 643 
Q 2703 903 2703 1303 
Q 2703 1709 2433 1975 
Q 2163 2241 1756 2241 
Q 1359 2241 1098 1978 
Q 838 1716 838 1322 
z
" transform="scale(0.015625)"/>
     </defs>
     <use xlink:href="#ArialMT-30"/>
     <use xlink:href="#ArialMT-2e" x="55.615234"/>
     <use xlink:href="#ArialMT-38" x="83.398438"/>
     <use xlink:href="#ArialMT-39" x="139.013672"/>
    </g>
   </g>
   <g id="text_11">
    <g id="patch_48">
     <path d="M 902.106186 181.892322 
C 905.349744 181.892322 908.460891 180.603643 910.754433 178.310101 
C 913.047975 176.016559 914.336654 172.905412 914.336654 169.661854 
C 914.336654 166.418295 913.047975 163.307148 910.754433 161.013606 
C 908.460891 158.720064 905.349744 157.431385 902.106186 157.431385 
C 898.862627 157.431385 895.75148 158.720064 893.457938 161.013606 
C 891.164396 163.307148 889.875717 166.418295 889.875717 169.661854 
C 889.875717 172.905412 891.164396 176.016559 893.457938 178.310101 
C 895.75148 180.603643 898.862627 181.892322 902.106186 181.892322 
L 902.106186 181.892322 
z
" style="fill: none"/>
    </g>
    <!-- 0.12 -->
    <g style="fill: #ffffff" transform="translate(892.375717 172.24701) scale(0.1 -0.1)">
     <use xlink:href="#ArialMT-30"/>
     <use xlink:href="#ArialMT-2e" x="55.615234"/>
     <use xlink:href="#ArialMT-31" x="83.398438"/>
     <use xlink:href="#ArialMT-32" x="139.013672"/>
    </g>
   </g>
   <g id="text_12">
    <!-- Method -->
    <g style="fill: #262626" transform="translate(221.576289 113.530139) scale(0.1 -0.1)">
     <defs>
      <path id="Arial-BoldMT-4d" d="M 453 0 
L 453 4581 
L 1838 4581 
L 2669 1456 
L 3491 4581 
L 4878 4581 
L 4878 0 
L 4019 0 
L 4019 3606 
L 3109 0 
L 2219 0 
L 1313 3606 
L 1313 0 
L 453 0 
z
" transform="scale(0.015625)"/>
      <path id="Arial-BoldMT-65" d="M 2381 1056 
L 3256 909 
Q 3088 428 2723 176 
Q 2359 -75 1813 -75 
Q 947 -75 531 491 
Q 203 944 203 1634 
Q 203 2459 634 2926 
Q 1066 3394 1725 3394 
Q 2466 3394 2894 2905 
Q 3322 2416 3303 1406 
L 1103 1406 
Q 1113 1016 1316 798 
Q 1519 581 1822 581 
Q 2028 581 2168 693 
Q 2309 806 2381 1056 
z
M 2431 1944 
Q 2422 2325 2234 2523 
Q 2047 2722 1778 2722 
Q 1491 2722 1303 2513 
Q 1116 2303 1119 1944 
L 2431 1944 
z
" transform="scale(0.015625)"/>
      <path id="Arial-BoldMT-74" d="M 1981 3319 
L 1981 2619 
L 1381 2619 
L 1381 1281 
Q 1381 875 1398 808 
Q 1416 741 1477 697 
Q 1538 653 1625 653 
Q 1747 653 1978 738 
L 2053 56 
Q 1747 -75 1359 -75 
Q 1122 -75 931 4 
Q 741 84 652 211 
Q 563 338 528 553 
Q 500 706 500 1172 
L 500 2619 
L 97 2619 
L 97 3319 
L 500 3319 
L 500 3978 
L 1381 4491 
L 1381 3319 
L 1981 3319 
z
" transform="scale(0.015625)"/>
      <path id="Arial-BoldMT-68" d="M 1334 4581 
L 1334 2897 
Q 1759 3394 2350 3394 
Q 2653 3394 2897 3281 
Q 3141 3169 3264 2994 
Q 3388 2819 3433 2606 
Q 3478 2394 3478 1947 
L 3478 0 
L 2600 0 
L 2600 1753 
Q 2600 2275 2550 2415 
Q 2500 2556 2373 2639 
Q 2247 2722 2056 2722 
Q 1838 2722 1666 2615 
Q 1494 2509 1414 2295 
Q 1334 2081 1334 1663 
L 1334 0 
L 456 0 
L 456 4581 
L 1334 4581 
z
" transform="scale(0.015625)"/>
      <path id="Arial-BoldMT-6f" d="M 256 1706 
Q 256 2144 472 2553 
Q 688 2963 1083 3178 
Q 1478 3394 1966 3394 
Q 2719 3394 3200 2905 
Q 3681 2416 3681 1669 
Q 3681 916 3195 420 
Q 2709 -75 1972 -75 
Q 1516 -75 1102 131 
Q 688 338 472 736 
Q 256 1134 256 1706 
z
M 1156 1659 
Q 1156 1166 1390 903 
Q 1625 641 1969 641 
Q 2313 641 2545 903 
Q 2778 1166 2778 1666 
Q 2778 2153 2545 2415 
Q 2313 2678 1969 2678 
Q 1625 2678 1390 2415 
Q 1156 2153 1156 1659 
z
" transform="scale(0.015625)"/>
      <path id="Arial-BoldMT-64" d="M 3503 0 
L 2688 0 
L 2688 488 
Q 2484 203 2207 64 
Q 1931 -75 1650 -75 
Q 1078 -75 670 386 
Q 263 847 263 1672 
Q 263 2516 659 2955 
Q 1056 3394 1663 3394 
Q 2219 3394 2625 2931 
L 2625 4581 
L 3503 4581 
L 3503 0 
z
M 1159 1731 
Q 1159 1200 1306 963 
Q 1519 619 1900 619 
Q 2203 619 2415 876 
Q 2628 1134 2628 1647 
Q 2628 2219 2422 2470 
Q 2216 2722 1894 2722 
Q 1581 2722 1370 2473 
Q 1159 2225 1159 1731 
z
" transform="scale(0.015625)"/>
     </defs>
     <use xlink:href="#Arial-BoldMT-4d"/>
     <use xlink:href="#Arial-BoldMT-65" x="83.300781"/>
     <use xlink:href="#Arial-BoldMT-74" x="138.916016"/>
     <use xlink:href="#Arial-BoldMT-68" x="172.216797"/>
     <use xlink:href="#Arial-BoldMT-6f" x="233.300781"/>
     <use xlink:href="#Arial-BoldMT-64" x="294.384766"/>
    </g>
   </g>
   <g id="text_13">
    <!-- Isolated -->
    <g style="fill: #262626" transform="translate(320.100403 108.23467) scale(0.1 -0.1)">
     <defs>
      <path id="ArialMT-49" d="M 597 0 
L 597 4581 
L 1203 4581 
L 1203 0 
L 597 0 
z
" transform="scale(0.015625)"/>
      <path id="ArialMT-73" d="M 197 991 
L 753 1078 
Q 800 744 1014 566 
Q 1228 388 1613 388 
Q 2000 388 2187 545 
Q 2375 703 2375 916 
Q 2375 1106 2209 1216 
Q 2094 1291 1634 1406 
Q 1016 1563 777 1677 
Q 538 1791 414 1992 
Q 291 2194 291 2438 
Q 291 2659 392 2848 
Q 494 3038 669 3163 
Q 800 3259 1026 3326 
Q 1253 3394 1513 3394 
Q 1903 3394 2198 3281 
Q 2494 3169 2634 2976 
Q 2775 2784 2828 2463 
L 2278 2388 
Q 2241 2644 2061 2787 
Q 1881 2931 1553 2931 
Q 1166 2931 1000 2803 
Q 834 2675 834 2503 
Q 834 2394 903 2306 
Q 972 2216 1119 2156 
Q 1203 2125 1616 2013 
Q 2213 1853 2448 1751 
Q 2684 1650 2818 1456 
Q 2953 1263 2953 975 
Q 2953 694 2789 445 
Q 2625 197 2315 61 
Q 2006 -75 1616 -75 
Q 969 -75 630 194 
Q 291 463 197 991 
z
" transform="scale(0.015625)"/>
      <path id="ArialMT-6f" d="M 213 1659 
Q 213 2581 725 3025 
Q 1153 3394 1769 3394 
Q 2453 3394 2887 2945 
Q 3322 2497 3322 1706 
Q 3322 1066 3130 698 
Q 2938 331 2570 128 
Q 2203 -75 1769 -75 
Q 1072 -75 642 372 
Q 213 819 213 1659 
z
M 791 1659 
Q 791 1022 1069 705 
Q 1347 388 1769 388 
Q 2188 388 2466 706 
Q 2744 1025 2744 1678 
Q 2744 2294 2464 2611 
Q 2184 2928 1769 2928 
Q 1347 2928 1069 2612 
Q 791 2297 791 1659 
z
" transform="scale(0.015625)"/>
      <path id="ArialMT-6c" d="M 409 0 
L 409 4581 
L 972 4581 
L 972 0 
L 409 0 
z
" transform="scale(0.015625)"/>
      <path id="ArialMT-61" d="M 2588 409 
Q 2275 144 1986 34 
Q 1697 -75 1366 -75 
Q 819 -75 525 192 
Q 231 459 231 875 
Q 231 1119 342 1320 
Q 453 1522 633 1644 
Q 813 1766 1038 1828 
Q 1203 1872 1538 1913 
Q 2219 1994 2541 2106 
Q 2544 2222 2544 2253 
Q 2544 2597 2384 2738 
Q 2169 2928 1744 2928 
Q 1347 2928 1158 2789 
Q 969 2650 878 2297 
L 328 2372 
Q 403 2725 575 2942 
Q 747 3159 1072 3276 
Q 1397 3394 1825 3394 
Q 2250 3394 2515 3294 
Q 2781 3194 2906 3042 
Q 3031 2891 3081 2659 
Q 3109 2516 3109 2141 
L 3109 1391 
Q 3109 606 3145 398 
Q 3181 191 3288 0 
L 2700 0 
Q 2613 175 2588 409 
z
M 2541 1666 
Q 2234 1541 1622 1453 
Q 1275 1403 1131 1340 
Q 988 1278 909 1158 
Q 831 1038 831 891 
Q 831 666 1001 516 
Q 1172 366 1500 366 
Q 1825 366 2078 508 
Q 2331 650 2450 897 
Q 2541 1088 2541 1459 
L 2541 1666 
z
" transform="scale(0.015625)"/>
      <path id="ArialMT-74" d="M 1650 503 
L 1731 6 
Q 1494 -44 1306 -44 
Q 1000 -44 831 53 
Q 663 150 594 308 
Q 525 466 525 972 
L 525 2881 
L 113 2881 
L 113 3319 
L 525 3319 
L 525 4141 
L 1084 4478 
L 1084 3319 
L 1650 3319 
L 1650 2881 
L 1084 2881 
L 1084 941 
Q 1084 700 1114 631 
Q 1144 563 1211 522 
Q 1278 481 1403 481 
Q 1497 481 1650 503 
z
" transform="scale(0.015625)"/>
      <path id="ArialMT-65" d="M 2694 1069 
L 3275 997 
Q 3138 488 2766 206 
Q 2394 -75 1816 -75 
Q 1088 -75 661 373 
Q 234 822 234 1631 
Q 234 2469 665 2931 
Q 1097 3394 1784 3394 
Q 2450 3394 2872 2941 
Q 3294 2488 3294 1666 
Q 3294 1616 3291 1516 
L 816 1516 
Q 847 969 1125 678 
Q 1403 388 1819 388 
Q 2128 388 2347 550 
Q 2566 713 2694 1069 
z
M 847 1978 
L 2700 1978 
Q 2663 2397 2488 2606 
Q 2219 2931 1791 2931 
Q 1403 2931 1139 2672 
Q 875 2413 847 1978 
z
" transform="scale(0.015625)"/>
      <path id="ArialMT-64" d="M 2575 0 
L 2575 419 
Q 2259 -75 1647 -75 
Q 1250 -75 917 144 
Q 584 363 401 755 
Q 219 1147 219 1656 
Q 219 2153 384 2558 
Q 550 2963 881 3178 
Q 1213 3394 1622 3394 
Q 1922 3394 2156 3267 
Q 2391 3141 2538 2938 
L 2538 4581 
L 3097 4581 
L 3097 0 
L 2575 0 
z
M 797 1656 
Q 797 1019 1065 703 
Q 1334 388 1700 388 
Q 2069 388 2326 689 
Q 2584 991 2584 1609 
Q 2584 2291 2321 2609 
Q 2059 2928 1675 2928 
Q 1300 2928 1048 2622 
Q 797 2316 797 1656 
z
" transform="scale(0.015625)"/>
     </defs>
     <use xlink:href="#ArialMT-49"/>
     <use xlink:href="#ArialMT-73" x="27.783203"/>
     <use xlink:href="#ArialMT-6f" x="77.783203"/>
     <use xlink:href="#ArialMT-6c" x="133.398438"/>
     <use xlink:href="#ArialMT-61" x="155.615234"/>
     <use xlink:href="#ArialMT-74" x="211.230469"/>
     <use xlink:href="#ArialMT-65" x="239.013672"/>
     <use xlink:href="#ArialMT-64" x="294.628906"/>
    </g>
    <!-- labels -->
    <g style="fill: #262626" transform="translate(324.548059 118.811545) scale(0.1 -0.1)">
     <defs>
      <path id="ArialMT-62" d="M 941 0 
L 419 0 
L 419 4581 
L 981 4581 
L 981 2947 
Q 1338 3394 1891 3394 
Q 2197 3394 2470 3270 
Q 2744 3147 2920 2923 
Q 3097 2700 3197 2384 
Q 3297 2069 3297 1709 
Q 3297 856 2875 390 
Q 2453 -75 1863 -75 
Q 1275 -75 941 416 
L 941 0 
z
M 934 1684 
Q 934 1088 1097 822 
Q 1363 388 1816 388 
Q 2184 388 2453 708 
Q 2722 1028 2722 1663 
Q 2722 2313 2464 2622 
Q 2206 2931 1841 2931 
Q 1472 2931 1203 2611 
Q 934 2291 934 1684 
z
" transform="scale(0.015625)"/>
     </defs>
     <use xlink:href="#ArialMT-6c"/>
     <use xlink:href="#ArialMT-61" x="22.216797"/>
     <use xlink:href="#ArialMT-62" x="77.832031"/>
     <use xlink:href="#ArialMT-65" x="133.447266"/>
     <use xlink:href="#ArialMT-6c" x="189.0625"/>
     <use xlink:href="#ArialMT-73" x="211.279297"/>
    </g>
   </g>
   <g id="text_14">
    <!-- Leiden -->
    <g style="fill: #262626" transform="translate(385.319708 108.23467) scale(0.1 -0.1)">
     <defs>
      <path id="ArialMT-4c" d="M 469 0 
L 469 4581 
L 1075 4581 
L 1075 541 
L 3331 541 
L 3331 0 
L 469 0 
z
" transform="scale(0.015625)"/>
      <path id="ArialMT-69" d="M 425 3934 
L 425 4581 
L 988 4581 
L 988 3934 
L 425 3934 
z
M 425 0 
L 425 3319 
L 988 3319 
L 988 0 
L 425 0 
z
" transform="scale(0.015625)"/>
      <path id="ArialMT-6e" d="M 422 0 
L 422 3319 
L 928 3319 
L 928 2847 
Q 1294 3394 1984 3394 
Q 2284 3394 2536 3286 
Q 2788 3178 2913 3003 
Q 3038 2828 3088 2588 
Q 3119 2431 3119 2041 
L 3119 0 
L 2556 0 
L 2556 2019 
Q 2556 2363 2490 2533 
Q 2425 2703 2258 2804 
Q 2091 2906 1866 2906 
Q 1506 2906 1245 2678 
Q 984 2450 984 1813 
L 984 0 
L 422 0 
z
" transform="scale(0.015625)"/>
     </defs>
     <use xlink:href="#ArialMT-4c"/>
     <use xlink:href="#ArialMT-65" x="55.615234"/>
     <use xlink:href="#ArialMT-69" x="111.230469"/>
     <use xlink:href="#ArialMT-64" x="133.447266"/>
     <use xlink:href="#ArialMT-65" x="189.0625"/>
     <use xlink:href="#ArialMT-6e" x="244.677734"/>
    </g>
    <!-- NMI -->
    <g style="fill: #262626" transform="translate(391.168146 118.811545) scale(0.1 -0.1)">
     <defs>
      <path id="ArialMT-4e" d="M 488 0 
L 488 4581 
L 1109 4581 
L 3516 984 
L 3516 4581 
L 4097 4581 
L 4097 0 
L 3475 0 
L 1069 3600 
L 1069 0 
L 488 0 
z
" transform="scale(0.015625)"/>
      <path id="ArialMT-4d" d="M 475 0 
L 475 4581 
L 1388 4581 
L 2472 1338 
Q 2622 884 2691 659 
Q 2769 909 2934 1394 
L 4031 4581 
L 4847 4581 
L 4847 0 
L 4263 0 
L 4263 3834 
L 2931 0 
L 2384 0 
L 1059 3900 
L 1059 0 
L 475 0 
z
" transform="scale(0.015625)"/>
     </defs>
     <use xlink:href="#ArialMT-4e"/>
     <use xlink:href="#ArialMT-4d" x="72.216797"/>
     <use xlink:href="#ArialMT-49" x="155.517578"/>
    </g>
   </g>
   <g id="text_15">
    <!-- Leiden -->
    <g style="fill: #262626" transform="translate(448.041358 108.23467) scale(0.1 -0.1)">
     <use xlink:href="#ArialMT-4c"/>
     <use xlink:href="#ArialMT-65" x="55.615234"/>
     <use xlink:href="#ArialMT-69" x="111.230469"/>
     <use xlink:href="#ArialMT-64" x="133.447266"/>
     <use xlink:href="#ArialMT-65" x="189.0625"/>
     <use xlink:href="#ArialMT-6e" x="244.677734"/>
    </g>
    <!-- ARI -->
    <g style="fill: #262626" transform="translate(454.719483 118.811545) scale(0.1 -0.1)">
     <defs>
      <path id="ArialMT-41" d="M -9 0 
L 1750 4581 
L 2403 4581 
L 4278 0 
L 3588 0 
L 3053 1388 
L 1138 1388 
L 634 0 
L -9 0 
z
M 1313 1881 
L 2866 1881 
L 2388 3150 
Q 2169 3728 2063 4100 
Q 1975 3659 1816 3225 
L 1313 1881 
z
" transform="scale(0.015625)"/>
      <path id="ArialMT-52" d="M 503 0 
L 503 4581 
L 2534 4581 
Q 3147 4581 3465 4457 
Q 3784 4334 3975 4021 
Q 4166 3709 4166 3331 
Q 4166 2844 3850 2509 
Q 3534 2175 2875 2084 
Q 3116 1969 3241 1856 
Q 3506 1613 3744 1247 
L 4541 0 
L 3778 0 
L 3172 953 
Q 2906 1366 2734 1584 
Q 2563 1803 2427 1890 
Q 2291 1978 2150 2013 
Q 2047 2034 1813 2034 
L 1109 2034 
L 1109 0 
L 503 0 
z
M 1109 2559 
L 2413 2559 
Q 2828 2559 3062 2645 
Q 3297 2731 3419 2920 
Q 3541 3109 3541 3331 
Q 3541 3656 3305 3865 
Q 3069 4075 2559 4075 
L 1109 4075 
L 1109 2559 
z
" transform="scale(0.015625)"/>
     </defs>
     <use xlink:href="#ArialMT-41"/>
     <use xlink:href="#ArialMT-52" x="66.699219"/>
     <use xlink:href="#ArialMT-49" x="138.916016"/>
    </g>
   </g>
   <g id="text_16">
    <!-- Silhouette -->
    <g style="fill: #262626" transform="translate(503.538789 108.23467) scale(0.1 -0.1)">
     <defs>
      <path id="ArialMT-53" d="M 288 1472 
L 859 1522 
Q 900 1178 1048 958 
Q 1197 738 1509 602 
Q 1822 466 2213 466 
Q 2559 466 2825 569 
Q 3091 672 3220 851 
Q 3350 1031 3350 1244 
Q 3350 1459 3225 1620 
Q 3100 1781 2813 1891 
Q 2628 1963 1997 2114 
Q 1366 2266 1113 2400 
Q 784 2572 623 2826 
Q 463 3081 463 3397 
Q 463 3744 659 4045 
Q 856 4347 1234 4503 
Q 1613 4659 2075 4659 
Q 2584 4659 2973 4495 
Q 3363 4331 3572 4012 
Q 3781 3694 3797 3291 
L 3216 3247 
Q 3169 3681 2898 3903 
Q 2628 4125 2100 4125 
Q 1550 4125 1298 3923 
Q 1047 3722 1047 3438 
Q 1047 3191 1225 3031 
Q 1400 2872 2139 2705 
Q 2878 2538 3153 2413 
Q 3553 2228 3743 1945 
Q 3934 1663 3934 1294 
Q 3934 928 3725 604 
Q 3516 281 3123 101 
Q 2731 -78 2241 -78 
Q 1619 -78 1198 103 
Q 778 284 539 648 
Q 300 1013 288 1472 
z
" transform="scale(0.015625)"/>
      <path id="ArialMT-68" d="M 422 0 
L 422 4581 
L 984 4581 
L 984 2938 
Q 1378 3394 1978 3394 
Q 2347 3394 2619 3248 
Q 2891 3103 3008 2847 
Q 3125 2591 3125 2103 
L 3125 0 
L 2563 0 
L 2563 2103 
Q 2563 2525 2380 2717 
Q 2197 2909 1863 2909 
Q 1613 2909 1392 2779 
Q 1172 2650 1078 2428 
Q 984 2206 984 1816 
L 984 0 
L 422 0 
z
" transform="scale(0.015625)"/>
      <path id="ArialMT-75" d="M 2597 0 
L 2597 488 
Q 2209 -75 1544 -75 
Q 1250 -75 995 37 
Q 741 150 617 320 
Q 494 491 444 738 
Q 409 903 409 1263 
L 409 3319 
L 972 3319 
L 972 1478 
Q 972 1038 1006 884 
Q 1059 663 1231 536 
Q 1403 409 1656 409 
Q 1909 409 2131 539 
Q 2353 669 2445 892 
Q 2538 1116 2538 1541 
L 2538 3319 
L 3100 3319 
L 3100 0 
L 2597 0 
z
" transform="scale(0.015625)"/>
     </defs>
     <use xlink:href="#ArialMT-53"/>
     <use xlink:href="#ArialMT-69" x="66.699219"/>
     <use xlink:href="#ArialMT-6c" x="88.916016"/>
     <use xlink:href="#ArialMT-68" x="111.132812"/>
     <use xlink:href="#ArialMT-6f" x="166.748047"/>
     <use xlink:href="#ArialMT-75" x="222.363281"/>
     <use xlink:href="#ArialMT-65" x="277.978516"/>
     <use xlink:href="#ArialMT-74" x="333.59375"/>
     <use xlink:href="#ArialMT-74" x="361.376953"/>
     <use xlink:href="#ArialMT-65" x="389.160156"/>
    </g>
    <!-- label -->
    <g style="fill: #262626" transform="translate(515.213007 118.811545) scale(0.1 -0.1)">
     <use xlink:href="#ArialMT-6c"/>
     <use xlink:href="#ArialMT-61" x="22.216797"/>
     <use xlink:href="#ArialMT-62" x="77.832031"/>
     <use xlink:href="#ArialMT-65" x="133.447266"/>
     <use xlink:href="#ArialMT-6c" x="189.0625"/>
    </g>
   </g>
   <g id="text_17">
    <!-- cLISI -->
    <g style="fill: #262626" transform="translate(577.104188 113.523107) scale(0.1 -0.1)">
     <defs>
      <path id="ArialMT-63" d="M 2588 1216 
L 3141 1144 
Q 3050 572 2676 248 
Q 2303 -75 1759 -75 
Q 1078 -75 664 370 
Q 250 816 250 1647 
Q 250 2184 428 2587 
Q 606 2991 970 3192 
Q 1334 3394 1763 3394 
Q 2303 3394 2647 3120 
Q 2991 2847 3088 2344 
L 2541 2259 
Q 2463 2594 2264 2762 
Q 2066 2931 1784 2931 
Q 1359 2931 1093 2626 
Q 828 2322 828 1663 
Q 828 994 1084 691 
Q 1341 388 1753 388 
Q 2084 388 2306 591 
Q 2528 794 2588 1216 
z
" transform="scale(0.015625)"/>
     </defs>
     <use xlink:href="#ArialMT-63"/>
     <use xlink:href="#ArialMT-4c" x="50"/>
     <use xlink:href="#ArialMT-49" x="105.615234"/>
     <use xlink:href="#ArialMT-53" x="133.398438"/>
     <use xlink:href="#ArialMT-49" x="200.097656"/>
    </g>
   </g>
   <g id="text_18">
    <!-- Silhouette -->
    <g style="fill: #262626" transform="translate(628.982088 108.23467) scale(0.1 -0.1)">
     <use xlink:href="#ArialMT-53"/>
     <use xlink:href="#ArialMT-69" x="66.699219"/>
     <use xlink:href="#ArialMT-6c" x="88.916016"/>
     <use xlink:href="#ArialMT-68" x="111.132812"/>
     <use xlink:href="#ArialMT-6f" x="166.748047"/>
     <use xlink:href="#ArialMT-75" x="222.363281"/>
     <use xlink:href="#ArialMT-65" x="277.978516"/>
     <use xlink:href="#ArialMT-74" x="333.59375"/>
     <use xlink:href="#ArialMT-74" x="361.376953"/>
     <use xlink:href="#ArialMT-65" x="389.160156"/>
    </g>
    <!-- batch -->
    <g style="fill: #262626" transform="translate(638.989119 118.811545) scale(0.1 -0.1)">
     <use xlink:href="#ArialMT-62"/>
     <use xlink:href="#ArialMT-61" x="55.615234"/>
     <use xlink:href="#ArialMT-74" x="111.230469"/>
     <use xlink:href="#ArialMT-63" x="139.013672"/>
     <use xlink:href="#ArialMT-68" x="189.013672"/>
    </g>
   </g>
   <g id="text_19">
    <!-- iLISI -->
    <g style="fill: #262626" transform="translate(703.93655 113.523107) scale(0.1 -0.1)">
     <use xlink:href="#ArialMT-69"/>
     <use xlink:href="#ArialMT-4c" x="22.216797"/>
     <use xlink:href="#ArialMT-49" x="77.832031"/>
     <use xlink:href="#ArialMT-53" x="105.615234"/>
     <use xlink:href="#ArialMT-49" x="172.314453"/>
    </g>
   </g>
   <g id="text_20">
    <!-- KBET -->
    <g style="fill: #262626" transform="translate(763.603512 113.523107) scale(0.1 -0.1)">
     <defs>
      <path id="ArialMT-4b" d="M 469 0 
L 469 4581 
L 1075 4581 
L 1075 2309 
L 3350 4581 
L 4172 4581 
L 2250 2725 
L 4256 0 
L 3456 0 
L 1825 2319 
L 1075 1588 
L 1075 0 
L 469 0 
z
" transform="scale(0.015625)"/>
      <path id="ArialMT-42" d="M 469 0 
L 469 4581 
L 2188 4581 
Q 2713 4581 3030 4442 
Q 3347 4303 3526 4014 
Q 3706 3725 3706 3409 
Q 3706 3116 3547 2856 
Q 3388 2597 3066 2438 
Q 3481 2316 3704 2022 
Q 3928 1728 3928 1328 
Q 3928 1006 3792 729 
Q 3656 453 3456 303 
Q 3256 153 2954 76 
Q 2653 0 2216 0 
L 469 0 
z
M 1075 2656 
L 2066 2656 
Q 2469 2656 2644 2709 
Q 2875 2778 2992 2937 
Q 3109 3097 3109 3338 
Q 3109 3566 3000 3739 
Q 2891 3913 2687 3977 
Q 2484 4041 1991 4041 
L 1075 4041 
L 1075 2656 
z
M 1075 541 
L 2216 541 
Q 2509 541 2628 563 
Q 2838 600 2978 687 
Q 3119 775 3209 942 
Q 3300 1109 3300 1328 
Q 3300 1584 3169 1773 
Q 3038 1963 2805 2039 
Q 2572 2116 2134 2116 
L 1075 2116 
L 1075 541 
z
" transform="scale(0.015625)"/>
      <path id="ArialMT-45" d="M 506 0 
L 506 4581 
L 3819 4581 
L 3819 4041 
L 1113 4041 
L 1113 2638 
L 3647 2638 
L 3647 2100 
L 1113 2100 
L 1113 541 
L 3925 541 
L 3925 0 
L 506 0 
z
" transform="scale(0.015625)"/>
      <path id="ArialMT-54" d="M 1659 0 
L 1659 4041 
L 150 4041 
L 150 4581 
L 3781 4581 
L 3781 4041 
L 2266 4041 
L 2266 0 
L 1659 0 
z
" transform="scale(0.015625)"/>
     </defs>
     <use xlink:href="#ArialMT-4b"/>
     <use xlink:href="#ArialMT-42" x="66.699219"/>
     <use xlink:href="#ArialMT-45" x="133.398438"/>
     <use xlink:href="#ArialMT-54" x="200.097656"/>
    </g>
   </g>
   <g id="text_21">
    <!-- Graph -->
    <g style="fill: #262626" transform="translate(825.489224 108.237014) scale(0.1 -0.1)">
     <defs>
      <path id="ArialMT-47" d="M 2638 1797 
L 2638 2334 
L 4578 2338 
L 4578 638 
Q 4131 281 3656 101 
Q 3181 -78 2681 -78 
Q 2006 -78 1454 211 
Q 903 500 622 1047 
Q 341 1594 341 2269 
Q 341 2938 620 3517 
Q 900 4097 1425 4378 
Q 1950 4659 2634 4659 
Q 3131 4659 3532 4498 
Q 3934 4338 4162 4050 
Q 4391 3763 4509 3300 
L 3963 3150 
Q 3859 3500 3706 3700 
Q 3553 3900 3268 4020 
Q 2984 4141 2638 4141 
Q 2222 4141 1919 4014 
Q 1616 3888 1430 3681 
Q 1244 3475 1141 3228 
Q 966 2803 966 2306 
Q 966 1694 1177 1281 
Q 1388 869 1791 669 
Q 2194 469 2647 469 
Q 3041 469 3416 620 
Q 3791 772 3984 944 
L 3984 1797 
L 2638 1797 
z
" transform="scale(0.015625)"/>
      <path id="ArialMT-72" d="M 416 0 
L 416 3319 
L 922 3319 
L 922 2816 
Q 1116 3169 1280 3281 
Q 1444 3394 1641 3394 
Q 1925 3394 2219 3213 
L 2025 2691 
Q 1819 2813 1613 2813 
Q 1428 2813 1281 2702 
Q 1134 2591 1072 2394 
Q 978 2094 978 1738 
L 978 0 
L 416 0 
z
" transform="scale(0.015625)"/>
      <path id="ArialMT-70" d="M 422 -1272 
L 422 3319 
L 934 3319 
L 934 2888 
Q 1116 3141 1344 3267 
Q 1572 3394 1897 3394 
Q 2322 3394 2647 3175 
Q 2972 2956 3137 2557 
Q 3303 2159 3303 1684 
Q 3303 1175 3120 767 
Q 2938 359 2589 142 
Q 2241 -75 1856 -75 
Q 1575 -75 1351 44 
Q 1128 163 984 344 
L 984 -1272 
L 422 -1272 
z
M 931 1641 
Q 931 1000 1190 694 
Q 1450 388 1819 388 
Q 2194 388 2461 705 
Q 2728 1022 2728 1688 
Q 2728 2322 2467 2637 
Q 2206 2953 1844 2953 
Q 1484 2953 1207 2617 
Q 931 2281 931 1641 
z
" transform="scale(0.015625)"/>
     </defs>
     <use xlink:href="#ArialMT-47"/>
     <use xlink:href="#ArialMT-72" x="77.783203"/>
     <use xlink:href="#ArialMT-61" x="111.083984"/>
     <use xlink:href="#ArialMT-70" x="166.699219"/>
     <use xlink:href="#ArialMT-68" x="222.314453"/>
    </g>
    <!-- connectivity -->
    <g style="fill: #262626" transform="translate(813.262661 118.813889) scale(0.1 -0.1)">
     <defs>
      <path id="ArialMT-76" d="M 1344 0 
L 81 3319 
L 675 3319 
L 1388 1331 
Q 1503 1009 1600 663 
Q 1675 925 1809 1294 
L 2547 3319 
L 3125 3319 
L 1869 0 
L 1344 0 
z
" transform="scale(0.015625)"/>
      <path id="ArialMT-79" d="M 397 -1278 
L 334 -750 
Q 519 -800 656 -800 
Q 844 -800 956 -737 
Q 1069 -675 1141 -563 
Q 1194 -478 1313 -144 
Q 1328 -97 1363 -6 
L 103 3319 
L 709 3319 
L 1400 1397 
Q 1534 1031 1641 628 
Q 1738 1016 1872 1384 
L 2581 3319 
L 3144 3319 
L 1881 -56 
Q 1678 -603 1566 -809 
Q 1416 -1088 1222 -1217 
Q 1028 -1347 759 -1347 
Q 597 -1347 397 -1278 
z
" transform="scale(0.015625)"/>
     </defs>
     <use xlink:href="#ArialMT-63"/>
     <use xlink:href="#ArialMT-6f" x="50"/>
     <use xlink:href="#ArialMT-6e" x="105.615234"/>
     <use xlink:href="#ArialMT-6e" x="161.230469"/>
     <use xlink:href="#ArialMT-65" x="216.845703"/>
     <use xlink:href="#ArialMT-63" x="272.460938"/>
     <use xlink:href="#ArialMT-74" x="322.460938"/>
     <use xlink:href="#ArialMT-69" x="350.244141"/>
     <use xlink:href="#ArialMT-76" x="372.460938"/>
     <use xlink:href="#ArialMT-69" x="422.460938"/>
     <use xlink:href="#ArialMT-74" x="444.677734"/>
     <use xlink:href="#ArialMT-79" x="472.460938"/>
    </g>
   </g>
   <g id="text_22">
    <!-- PCR -->
    <g style="fill: #262626" transform="translate(891.549154 108.23467) scale(0.1 -0.1)">
     <defs>
      <path id="ArialMT-50" d="M 494 0 
L 494 4581 
L 2222 4581 
Q 2678 4581 2919 4538 
Q 3256 4481 3484 4323 
Q 3713 4166 3852 3881 
Q 3991 3597 3991 3256 
Q 3991 2672 3619 2267 
Q 3247 1863 2275 1863 
L 1100 1863 
L 1100 0 
L 494 0 
z
M 1100 2403 
L 2284 2403 
Q 2872 2403 3119 2622 
Q 3366 2841 3366 3238 
Q 3366 3525 3220 3729 
Q 3075 3934 2838 4000 
Q 2684 4041 2272 4041 
L 1100 4041 
L 1100 2403 
z
" transform="scale(0.015625)"/>
      <path id="ArialMT-43" d="M 3763 1606 
L 4369 1453 
Q 4178 706 3683 314 
Q 3188 -78 2472 -78 
Q 1731 -78 1267 223 
Q 803 525 561 1097 
Q 319 1669 319 2325 
Q 319 3041 592 3573 
Q 866 4106 1370 4382 
Q 1875 4659 2481 4659 
Q 3169 4659 3637 4309 
Q 4106 3959 4291 3325 
L 3694 3184 
Q 3534 3684 3231 3912 
Q 2928 4141 2469 4141 
Q 1941 4141 1586 3887 
Q 1231 3634 1087 3207 
Q 944 2781 944 2328 
Q 944 1744 1114 1308 
Q 1284 872 1643 656 
Q 2003 441 2422 441 
Q 2931 441 3284 734 
Q 3638 1028 3763 1606 
z
" transform="scale(0.015625)"/>
     </defs>
     <use xlink:href="#ArialMT-50"/>
     <use xlink:href="#ArialMT-43" x="66.699219"/>
     <use xlink:href="#ArialMT-52" x="138.916016"/>
    </g>
    <!-- comparison -->
    <g style="fill: #262626" transform="translate(876.263217 118.811545) scale(0.1 -0.1)">
     <defs>
      <path id="ArialMT-6d" d="M 422 0 
L 422 3319 
L 925 3319 
L 925 2853 
Q 1081 3097 1340 3245 
Q 1600 3394 1931 3394 
Q 2300 3394 2536 3241 
Q 2772 3088 2869 2813 
Q 3263 3394 3894 3394 
Q 4388 3394 4653 3120 
Q 4919 2847 4919 2278 
L 4919 0 
L 4359 0 
L 4359 2091 
Q 4359 2428 4304 2576 
Q 4250 2725 4106 2815 
Q 3963 2906 3769 2906 
Q 3419 2906 3187 2673 
Q 2956 2441 2956 1928 
L 2956 0 
L 2394 0 
L 2394 2156 
Q 2394 2531 2256 2718 
Q 2119 2906 1806 2906 
Q 1569 2906 1367 2781 
Q 1166 2656 1075 2415 
Q 984 2175 984 1722 
L 984 0 
L 422 0 
z
" transform="scale(0.015625)"/>
     </defs>
     <use xlink:href="#ArialMT-63"/>
     <use xlink:href="#ArialMT-6f" x="50"/>
     <use xlink:href="#ArialMT-6d" x="105.615234"/>
     <use xlink:href="#ArialMT-70" x="188.916016"/>
     <use xlink:href="#ArialMT-61" x="244.53125"/>
     <use xlink:href="#ArialMT-72" x="300.146484"/>
     <use xlink:href="#ArialMT-69" x="333.447266"/>
     <use xlink:href="#ArialMT-73" x="355.664062"/>
     <use xlink:href="#ArialMT-6f" x="405.664062"/>
     <use xlink:href="#ArialMT-6e" x="461.279297"/>
    </g>
   </g>
   <g id="text_23">
    <!-- Batch -->
    <g style="fill: #262626" transform="translate(952.042679 108.23467) scale(0.1 -0.1)">
     <use xlink:href="#ArialMT-42"/>
     <use xlink:href="#ArialMT-61" x="66.699219"/>
     <use xlink:href="#ArialMT-74" x="122.314453"/>
     <use xlink:href="#ArialMT-63" x="150.097656"/>
     <use xlink:href="#ArialMT-68" x="200.097656"/>
    </g>
    <!-- correction -->
    <g style="fill: #262626" transform="translate(942.876273 118.811545) scale(0.1 -0.1)">
     <use xlink:href="#ArialMT-63"/>
     <use xlink:href="#ArialMT-6f" x="50"/>
     <use xlink:href="#ArialMT-72" x="105.615234"/>
     <use xlink:href="#ArialMT-72" x="138.916016"/>
     <use xlink:href="#ArialMT-65" x="172.216797"/>
     <use xlink:href="#ArialMT-63" x="227.832031"/>
     <use xlink:href="#ArialMT-74" x="277.832031"/>
     <use xlink:href="#ArialMT-69" x="305.615234"/>
     <use xlink:href="#ArialMT-6f" x="327.832031"/>
     <use xlink:href="#ArialMT-6e" x="383.447266"/>
    </g>
   </g>
   <g id="text_24">
    <!-- Bio -->
    <g style="fill: #262626" transform="translate(1020.322922 108.23467) scale(0.1 -0.1)">
     <use xlink:href="#ArialMT-42"/>
     <use xlink:href="#ArialMT-69" x="66.699219"/>
     <use xlink:href="#ArialMT-6f" x="88.916016"/>
    </g>
    <!-- conservation -->
    <g style="fill: #262626" transform="translate(999.201828 118.811545) scale(0.1 -0.1)">
     <use xlink:href="#ArialMT-63"/>
     <use xlink:href="#ArialMT-6f" x="50"/>
     <use xlink:href="#ArialMT-6e" x="105.615234"/>
     <use xlink:href="#ArialMT-73" x="161.230469"/>
     <use xlink:href="#ArialMT-65" x="211.230469"/>
     <use xlink:href="#ArialMT-72" x="266.845703"/>
     <use xlink:href="#ArialMT-76" x="300.146484"/>
     <use xlink:href="#ArialMT-61" x="350.146484"/>
     <use xlink:href="#ArialMT-74" x="405.761719"/>
     <use xlink:href="#ArialMT-69" x="433.544922"/>
     <use xlink:href="#ArialMT-6f" x="455.761719"/>
     <use xlink:href="#ArialMT-6e" x="511.376953"/>
    </g>
   </g>
   <g id="text_25">
    <!-- Total -->
    <g style="fill: #262626" transform="translate(1079.71254 113.523107) scale(0.1 -0.1)">
     <use xlink:href="#ArialMT-54"/>
     <use xlink:href="#ArialMT-6f" x="49.958984"/>
     <use xlink:href="#ArialMT-74" x="105.574219"/>
     <use xlink:href="#ArialMT-61" x="133.357422"/>
     <use xlink:href="#ArialMT-6c" x="188.972656"/>
    </g>
   </g>
   <g id="text_26">
    <!-- Aggregate score -->
    <g style="fill: #262626" transform="translate(990.862766 73.598922) scale(0.1 -0.1)">
     <defs>
      <path id="ArialMT-67" d="M 319 -275 
L 866 -356 
Q 900 -609 1056 -725 
Q 1266 -881 1628 -881 
Q 2019 -881 2231 -725 
Q 2444 -569 2519 -288 
Q 2563 -116 2559 434 
Q 2191 0 1641 0 
Q 956 0 581 494 
Q 206 988 206 1678 
Q 206 2153 378 2554 
Q 550 2956 876 3175 
Q 1203 3394 1644 3394 
Q 2231 3394 2613 2919 
L 2613 3319 
L 3131 3319 
L 3131 450 
Q 3131 -325 2973 -648 
Q 2816 -972 2473 -1159 
Q 2131 -1347 1631 -1347 
Q 1038 -1347 672 -1080 
Q 306 -813 319 -275 
z
M 784 1719 
Q 784 1066 1043 766 
Q 1303 466 1694 466 
Q 2081 466 2343 764 
Q 2606 1063 2606 1700 
Q 2606 2309 2336 2618 
Q 2066 2928 1684 2928 
Q 1309 2928 1046 2623 
Q 784 2319 784 1719 
z
" transform="scale(0.015625)"/>
      <path id="ArialMT-20" transform="scale(0.015625)"/>
     </defs>
     <use xlink:href="#ArialMT-41"/>
     <use xlink:href="#ArialMT-67" x="66.699219"/>
     <use xlink:href="#ArialMT-67" x="122.314453"/>
     <use xlink:href="#ArialMT-72" x="177.929688"/>
     <use xlink:href="#ArialMT-65" x="211.230469"/>
     <use xlink:href="#ArialMT-67" x="266.845703"/>
     <use xlink:href="#ArialMT-61" x="322.460938"/>
     <use xlink:href="#ArialMT-74" x="378.076172"/>
     <use xlink:href="#ArialMT-65" x="405.859375"/>
     <use xlink:href="#ArialMT-20" x="461.474609"/>
     <use xlink:href="#ArialMT-73" x="489.257812"/>
     <use xlink:href="#ArialMT-63" x="539.257812"/>
     <use xlink:href="#ArialMT-6f" x="589.257812"/>
     <use xlink:href="#ArialMT-72" x="644.873047"/>
     <use xlink:href="#ArialMT-65" x="678.173828"/>
    </g>
   </g>
   <g id="text_27">
    <!-- Bio conservation -->
    <g style="fill: #262626" transform="translate(426.091358 73.71611) scale(0.1 -0.1)">
     <use xlink:href="#ArialMT-42"/>
     <use xlink:href="#ArialMT-69" x="66.699219"/>
     <use xlink:href="#ArialMT-6f" x="88.916016"/>
     <use xlink:href="#ArialMT-20" x="144.53125"/>
     <use xlink:href="#ArialMT-63" x="172.314453"/>
     <use xlink:href="#ArialMT-6f" x="222.314453"/>
     <use xlink:href="#ArialMT-6e" x="277.929688"/>
     <use xlink:href="#ArialMT-73" x="333.544922"/>
     <use xlink:href="#ArialMT-65" x="383.544922"/>
     <use xlink:href="#ArialMT-72" x="439.160156"/>
     <use xlink:href="#ArialMT-76" x="472.460938"/>
     <use xlink:href="#ArialMT-61" x="522.460938"/>
     <use xlink:href="#ArialMT-74" x="578.076172"/>
     <use xlink:href="#ArialMT-69" x="605.859375"/>
     <use xlink:href="#ArialMT-6f" x="628.076172"/>
     <use xlink:href="#ArialMT-6e" x="683.691406"/>
    </g>
   </g>
   <g id="text_28">
    <!-- Batch correction -->
    <g style="fill: #262626" transform="translate(740.537105 73.71611) scale(0.1 -0.1)">
     <use xlink:href="#ArialMT-42"/>
     <use xlink:href="#ArialMT-61" x="66.699219"/>
     <use xlink:href="#ArialMT-74" x="122.314453"/>
     <use xlink:href="#ArialMT-63" x="150.097656"/>
     <use xlink:href="#ArialMT-68" x="200.097656"/>
     <use xlink:href="#ArialMT-20" x="255.712891"/>
     <use xlink:href="#ArialMT-63" x="283.496094"/>
     <use xlink:href="#ArialMT-6f" x="333.496094"/>
     <use xlink:href="#ArialMT-72" x="389.111328"/>
     <use xlink:href="#ArialMT-72" x="422.412109"/>
     <use xlink:href="#ArialMT-65" x="455.712891"/>
     <use xlink:href="#ArialMT-63" x="511.328125"/>
     <use xlink:href="#ArialMT-74" x="561.328125"/>
     <use xlink:href="#ArialMT-69" x="589.111328"/>
     <use xlink:href="#ArialMT-6f" x="611.328125"/>
     <use xlink:href="#ArialMT-6e" x="666.943359"/>
    </g>
   </g>
  </g>
  <g id="axes_2">
   <g id="patch_49">
    <path d="M 934.960383 185.517307 
L 963.025636 185.517307 
L 963.025636 153.8064 
L 934.960383 153.8064 
z
" clip-path="url(#pf2d041741c)" style="fill: #50bbc2"/>
   </g>
   <g id="text_29">
    <!-- 0.47 -->
    <g style="fill: #262626" transform="translate(964.519009 173.281072) scale(0.14 -0.14)">
     <use xlink:href="#ArialMT-30"/>
     <use xlink:href="#ArialMT-2e" x="55.615234"/>
     <use xlink:href="#ArialMT-34" x="83.398438"/>
     <use xlink:href="#ArialMT-37" x="139.013672"/>
    </g>
   </g>
  </g>
  <g id="axes_3">
   <g id="patch_50">
    <path d="M 997.682032 185.517307 
L 1023.679817 185.517307 
L 1023.679817 153.8064 
L 997.682032 153.8064 
z
" clip-path="url(#p6a3fe4b529)" style="fill: #61c2bf"/>
   </g>
   <g id="text_30">
    <!-- 0.44 -->
    <g style="fill: #262626" transform="translate(1025.17319 173.281072) scale(0.14 -0.14)">
     <use xlink:href="#ArialMT-30"/>
     <use xlink:href="#ArialMT-2e" x="55.615234"/>
     <use xlink:href="#ArialMT-34" x="83.398438"/>
     <use xlink:href="#ArialMT-34" x="139.013672"/>
    </g>
   </g>
  </g>
  <g id="axes_4">
   <g id="patch_51">
    <path d="M 1060.403682 185.517307 
L 1087.228454 185.517307 
L 1087.228454 153.8064 
L 1060.403682 153.8064 
z
" clip-path="url(#p3c67b0c722)" style="fill: #5bc0c0"/>
   </g>
   <g id="text_31">
    <!-- 0.45 -->
    <g style="fill: #262626" transform="translate(1088.721827 173.281072) scale(0.14 -0.14)">
     <use xlink:href="#ArialMT-30"/>
     <use xlink:href="#ArialMT-2e" x="55.615234"/>
     <use xlink:href="#ArialMT-34" x="83.398438"/>
     <use xlink:href="#ArialMT-35" x="139.013672"/>
    </g>
   </g>
  </g>
 </g>
 <defs>
  <clipPath id="p717cb24fa6">
   <rect x="210.6" y="21.384" width="912.6" height="180.576"/>
  </clipPath>
  <clipPath id="pf2d041741c">
   <rect x="933.46701" y="152.044683" width="62.721649" height="35.234341"/>
  </clipPath>
  <clipPath id="p6a3fe4b529">
   <rect x="996.18866" y="152.044683" width="62.721649" height="35.234341"/>
  </clipPath>
  <clipPath id="p3c67b0c722">
   <rect x="1058.910309" y="152.044683" width="62.721649" height="35.234341"/>
  </clipPath>
 </defs>
</svg>
