<?xml version="1.0" encoding="utf-8" standalone="no"?>
<!DOCTYPE svg PUBLIC "-//W3C//DTD SVG 1.1//EN"
  "http://www.w3.org/Graphics/SVG/1.1/DTD/svg11.dtd">
<svg xmlns:xlink="http://www.w3.org/1999/xlink" width="1080pt" height="280.8pt" viewBox="0 0 1080 280.8" xmlns="http://www.w3.org/2000/svg" version="1.1">
 <metadata>
  <rdf:RDF xmlns:dc="http://purl.org/dc/elements/1.1/" xmlns:cc="http://creativecommons.org/ns#" xmlns:rdf="http://www.w3.org/1999/02/22-rdf-syntax-ns#">
   <cc:Work>
    <dc:type rdf:resource="http://purl.org/dc/dcmitype/StillImage"/>
    <dc:date>2025-05-05T16:36:08.514518</dc:date>
    <dc:format>image/svg+xml</dc:format>
    <dc:creator>
     <cc:Agent>
      <dc:title>Matplotlib v3.9.4, https://matplotlib.org/</dc:title>
     </cc:Agent>
    </dc:creator>
   </cc:Work>
  </rdf:RDF>
 </metadata>
 <defs>
  <style type="text/css">*{stroke-linejoin: round; stroke-linecap: butt}</style>
 </defs>
 <g id="figure_1">
  <g id="patch_1">
   <path d="M 0 280.8 
L 1080 280.8 
L 1080 0 
L 0 0 
z
" style="fill: #ffffff"/>
  </g>
  <g id="axes_1">
   <g id="patch_2">
    <path d="M 195.954244 110.424946 
L 289.208856 110.424946 
L 289.208856 152.475783 
L 195.954244 152.475783 
z
" clip-path="url(#pb7f1aad391)" style="fill: #ffffff"/>
   </g>
   <g id="patch_3">
    <path d="M 289.208856 110.424946 
L 351.378598 110.424946 
L 351.378598 152.475783 
L 289.208856 152.475783 
z
" clip-path="url(#pb7f1aad391)" style="fill: #ffffff"/>
   </g>
   <g id="patch_4">
    <path d="M 351.378598 110.424946 
L 413.548339 110.424946 
L 413.548339 152.475783 
L 351.378598 152.475783 
z
" clip-path="url(#pb7f1aad391)" style="fill: #ffffff"/>
   </g>
   <g id="patch_5">
    <path d="M 413.548339 110.424946 
L 475.718081 110.424946 
L 475.718081 152.475783 
L 413.548339 152.475783 
z
" clip-path="url(#pb7f1aad391)" style="fill: #ffffff"/>
   </g>
   <g id="patch_6">
    <path d="M 475.718081 110.424946 
L 537.887823 110.424946 
L 537.887823 152.475783 
L 475.718081 152.475783 
z
" clip-path="url(#pb7f1aad391)" style="fill: #ffffff"/>
   </g>
   <g id="patch_7">
    <path d="M 537.887823 110.424946 
L 600.057565 110.424946 
L 600.057565 152.475783 
L 537.887823 152.475783 
z
" clip-path="url(#pb7f1aad391)" style="fill: #ffffff"/>
   </g>
   <g id="patch_8">
    <path d="M 600.057565 110.424946 
L 662.227306 110.424946 
L 662.227306 152.475783 
L 600.057565 152.475783 
z
" clip-path="url(#pb7f1aad391)" style="fill: #ffffff"/>
   </g>
   <g id="patch_9">
    <path d="M 662.227306 110.424946 
L 724.397048 110.424946 
L 724.397048 152.475783 
L 662.227306 152.475783 
z
" clip-path="url(#pb7f1aad391)" style="fill: #ffffff"/>
   </g>
   <g id="patch_10">
    <path d="M 724.397048 110.424946 
L 786.56679 110.424946 
L 786.56679 152.475783 
L 724.397048 152.475783 
z
" clip-path="url(#pb7f1aad391)" style="fill: #ffffff"/>
   </g>
   <g id="patch_11">
    <path d="M 786.56679 110.424946 
L 848.736531 110.424946 
L 848.736531 152.475783 
L 786.56679 152.475783 
z
" clip-path="url(#pb7f1aad391)" style="fill: #ffffff"/>
   </g>
   <g id="patch_12">
    <path d="M 848.736531 110.424946 
L 910.906273 110.424946 
L 910.906273 152.475783 
L 848.736531 152.475783 
z
" clip-path="url(#pb7f1aad391)" style="fill: #ffffff"/>
   </g>
   <g id="patch_13">
    <path d="M 848.736531 110.424946 
L 910.906273 110.424946 
L 910.906273 152.475783 
L 848.736531 152.475783 
z
" clip-path="url(#pb7f1aad391)" style="fill: #ffffff"/>
   </g>
   <g id="patch_14">
    <path d="M 910.906273 110.424946 
L 973.076015 110.424946 
L 973.076015 152.475783 
L 910.906273 152.475783 
z
" clip-path="url(#pb7f1aad391)" style="fill: #ffffff"/>
   </g>
   <g id="patch_15">
    <path d="M 910.906273 110.424946 
L 973.076015 110.424946 
L 973.076015 152.475783 
L 910.906273 152.475783 
z
" clip-path="url(#pb7f1aad391)" style="fill: #ffffff"/>
   </g>
   <g id="patch_16">
    <path d="M 973.076015 110.424946 
L 1035.245756 110.424946 
L 1035.245756 152.475783 
L 973.076015 152.475783 
z
" clip-path="url(#pb7f1aad391)" style="fill: #ffffff"/>
   </g>
   <g id="patch_17">
    <path d="M 973.076015 110.424946 
L 1035.245756 110.424946 
L 1035.245756 152.475783 
L 973.076015 152.475783 
z
" clip-path="url(#pb7f1aad391)" style="fill: #ffffff"/>
   </g>
   <g id="patch_18">
    <path d="M 195.954244 152.475783 
L 289.208856 152.475783 
L 289.208856 194.526621 
L 195.954244 194.526621 
z
" clip-path="url(#pb7f1aad391)" style="fill: #ffffff"/>
   </g>
   <g id="patch_19">
    <path d="M 289.208856 152.475783 
L 351.378598 152.475783 
L 351.378598 194.526621 
L 289.208856 194.526621 
z
" clip-path="url(#pb7f1aad391)" style="fill: #ffffff"/>
   </g>
   <g id="patch_20">
    <path d="M 351.378598 152.475783 
L 413.548339 152.475783 
L 413.548339 194.526621 
L 351.378598 194.526621 
z
" clip-path="url(#pb7f1aad391)" style="fill: #ffffff"/>
   </g>
   <g id="patch_21">
    <path d="M 413.548339 152.475783 
L 475.718081 152.475783 
L 475.718081 194.526621 
L 413.548339 194.526621 
z
" clip-path="url(#pb7f1aad391)" style="fill: #ffffff"/>
   </g>
   <g id="patch_22">
    <path d="M 475.718081 152.475783 
L 537.887823 152.475783 
L 537.887823 194.526621 
L 475.718081 194.526621 
z
" clip-path="url(#pb7f1aad391)" style="fill: #ffffff"/>
   </g>
   <g id="patch_23">
    <path d="M 537.887823 152.475783 
L 600.057565 152.475783 
L 600.057565 194.526621 
L 537.887823 194.526621 
z
" clip-path="url(#pb7f1aad391)" style="fill: #ffffff"/>
   </g>
   <g id="patch_24">
    <path d="M 600.057565 152.475783 
L 662.227306 152.475783 
L 662.227306 194.526621 
L 600.057565 194.526621 
z
" clip-path="url(#pb7f1aad391)" style="fill: #ffffff"/>
   </g>
   <g id="patch_25">
    <path d="M 662.227306 152.475783 
L 724.397048 152.475783 
L 724.397048 194.526621 
L 662.227306 194.526621 
z
" clip-path="url(#pb7f1aad391)" style="fill: #ffffff"/>
   </g>
   <g id="patch_26">
    <path d="M 724.397048 152.475783 
L 786.56679 152.475783 
L 786.56679 194.526621 
L 724.397048 194.526621 
z
" clip-path="url(#pb7f1aad391)" style="fill: #ffffff"/>
   </g>
   <g id="patch_27">
    <path d="M 786.56679 152.475783 
L 848.736531 152.475783 
L 848.736531 194.526621 
L 786.56679 194.526621 
z
" clip-path="url(#pb7f1aad391)" style="fill: #ffffff"/>
   </g>
   <g id="patch_28">
    <path d="M 848.736531 152.475783 
L 910.906273 152.475783 
L 910.906273 194.526621 
L 848.736531 194.526621 
z
" clip-path="url(#pb7f1aad391)" style="fill: #ffffff"/>
   </g>
   <g id="patch_29">
    <path d="M 848.736531 152.475783 
L 910.906273 152.475783 
L 910.906273 194.526621 
L 848.736531 194.526621 
z
" clip-path="url(#pb7f1aad391)" style="fill: #ffffff"/>
   </g>
   <g id="patch_30">
    <path d="M 910.906273 152.475783 
L 973.076015 152.475783 
L 973.076015 194.526621 
L 910.906273 194.526621 
z
" clip-path="url(#pb7f1aad391)" style="fill: #ffffff"/>
   </g>
   <g id="patch_31">
    <path d="M 910.906273 152.475783 
L 973.076015 152.475783 
L 973.076015 194.526621 
L 910.906273 194.526621 
z
" clip-path="url(#pb7f1aad391)" style="fill: #ffffff"/>
   </g>
   <g id="patch_32">
    <path d="M 973.076015 152.475783 
L 1035.245756 152.475783 
L 1035.245756 194.526621 
L 973.076015 194.526621 
z
" clip-path="url(#pb7f1aad391)" style="fill: #ffffff"/>
   </g>
   <g id="patch_33">
    <path d="M 973.076015 152.475783 
L 1035.245756 152.475783 
L 1035.245756 194.526621 
L 973.076015 194.526621 
z
" clip-path="url(#pb7f1aad391)" style="fill: #ffffff"/>
   </g>
   <g id="patch_34">
    <path d="M 195.954244 194.526621 
L 289.208856 194.526621 
L 289.208856 236.577458 
L 195.954244 236.577458 
z
" clip-path="url(#pb7f1aad391)" style="fill: #ffffff"/>
   </g>
   <g id="patch_35">
    <path d="M 289.208856 194.526621 
L 351.378598 194.526621 
L 351.378598 236.577458 
L 289.208856 236.577458 
z
" clip-path="url(#pb7f1aad391)" style="fill: #ffffff"/>
   </g>
   <g id="patch_36">
    <path d="M 351.378598 194.526621 
L 413.548339 194.526621 
L 413.548339 236.577458 
L 351.378598 236.577458 
z
" clip-path="url(#pb7f1aad391)" style="fill: #ffffff"/>
   </g>
   <g id="patch_37">
    <path d="M 413.548339 194.526621 
L 475.718081 194.526621 
L 475.718081 236.577458 
L 413.548339 236.577458 
z
" clip-path="url(#pb7f1aad391)" style="fill: #ffffff"/>
   </g>
   <g id="patch_38">
    <path d="M 475.718081 194.526621 
L 537.887823 194.526621 
L 537.887823 236.577458 
L 475.718081 236.577458 
z
" clip-path="url(#pb7f1aad391)" style="fill: #ffffff"/>
   </g>
   <g id="patch_39">
    <path d="M 537.887823 194.526621 
L 600.057565 194.526621 
L 600.057565 236.577458 
L 537.887823 236.577458 
z
" clip-path="url(#pb7f1aad391)" style="fill: #ffffff"/>
   </g>
   <g id="patch_40">
    <path d="M 600.057565 194.526621 
L 662.227306 194.526621 
L 662.227306 236.577458 
L 600.057565 236.577458 
z
" clip-path="url(#pb7f1aad391)" style="fill: #ffffff"/>
   </g>
   <g id="patch_41">
    <path d="M 662.227306 194.526621 
L 724.397048 194.526621 
L 724.397048 236.577458 
L 662.227306 236.577458 
z
" clip-path="url(#pb7f1aad391)" style="fill: #ffffff"/>
   </g>
   <g id="patch_42">
    <path d="M 724.397048 194.526621 
L 786.56679 194.526621 
L 786.56679 236.577458 
L 724.397048 236.577458 
z
" clip-path="url(#pb7f1aad391)" style="fill: #ffffff"/>
   </g>
   <g id="patch_43">
    <path d="M 786.56679 194.526621 
L 848.736531 194.526621 
L 848.736531 236.577458 
L 786.56679 236.577458 
z
" clip-path="url(#pb7f1aad391)" style="fill: #ffffff"/>
   </g>
   <g id="patch_44">
    <path d="M 848.736531 194.526621 
L 910.906273 194.526621 
L 910.906273 236.577458 
L 848.736531 236.577458 
z
" clip-path="url(#pb7f1aad391)" style="fill: #ffffff"/>
   </g>
   <g id="patch_45">
    <path d="M 848.736531 194.526621 
L 910.906273 194.526621 
L 910.906273 236.577458 
L 848.736531 236.577458 
z
" clip-path="url(#pb7f1aad391)" style="fill: #ffffff"/>
   </g>
   <g id="patch_46">
    <path d="M 910.906273 194.526621 
L 973.076015 194.526621 
L 973.076015 236.577458 
L 910.906273 236.577458 
z
" clip-path="url(#pb7f1aad391)" style="fill: #ffffff"/>
   </g>
   <g id="patch_47">
    <path d="M 910.906273 194.526621 
L 973.076015 194.526621 
L 973.076015 236.577458 
L 910.906273 236.577458 
z
" clip-path="url(#pb7f1aad391)" style="fill: #ffffff"/>
   </g>
   <g id="patch_48">
    <path d="M 973.076015 194.526621 
L 1035.245756 194.526621 
L 1035.245756 236.577458 
L 973.076015 236.577458 
z
" clip-path="url(#pb7f1aad391)" style="fill: #ffffff"/>
   </g>
   <g id="patch_49">
    <path d="M 973.076015 194.526621 
L 1035.245756 194.526621 
L 1035.245756 236.577458 
L 973.076015 236.577458 
z
" clip-path="url(#pb7f1aad391)" style="fill: #ffffff"/>
   </g>
   <g id="patch_50">
    <path d="M 195.954244 68.374108 
L 289.208856 68.374108 
L 289.208856 110.424946 
L 195.954244 110.424946 
z
" clip-path="url(#pb7f1aad391)" style="fill: #ffffff"/>
   </g>
   <g id="patch_51">
    <path d="M 289.208856 68.374108 
L 351.378598 68.374108 
L 351.378598 110.424946 
L 289.208856 110.424946 
z
" clip-path="url(#pb7f1aad391)" style="fill: #ffffff"/>
   </g>
   <g id="patch_52">
    <path d="M 351.378598 68.374108 
L 413.548339 68.374108 
L 413.548339 110.424946 
L 351.378598 110.424946 
z
" clip-path="url(#pb7f1aad391)" style="fill: #ffffff"/>
   </g>
   <g id="patch_53">
    <path d="M 413.548339 68.374108 
L 475.718081 68.374108 
L 475.718081 110.424946 
L 413.548339 110.424946 
z
" clip-path="url(#pb7f1aad391)" style="fill: #ffffff"/>
   </g>
   <g id="patch_54">
    <path d="M 475.718081 68.374108 
L 537.887823 68.374108 
L 537.887823 110.424946 
L 475.718081 110.424946 
z
" clip-path="url(#pb7f1aad391)" style="fill: #ffffff"/>
   </g>
   <g id="patch_55">
    <path d="M 537.887823 68.374108 
L 600.057565 68.374108 
L 600.057565 110.424946 
L 537.887823 110.424946 
z
" clip-path="url(#pb7f1aad391)" style="fill: #ffffff"/>
   </g>
   <g id="patch_56">
    <path d="M 600.057565 68.374108 
L 662.227306 68.374108 
L 662.227306 110.424946 
L 600.057565 110.424946 
z
" clip-path="url(#pb7f1aad391)" style="fill: #ffffff"/>
   </g>
   <g id="patch_57">
    <path d="M 662.227306 68.374108 
L 724.397048 68.374108 
L 724.397048 110.424946 
L 662.227306 110.424946 
z
" clip-path="url(#pb7f1aad391)" style="fill: #ffffff"/>
   </g>
   <g id="patch_58">
    <path d="M 724.397048 68.374108 
L 786.56679 68.374108 
L 786.56679 110.424946 
L 724.397048 110.424946 
z
" clip-path="url(#pb7f1aad391)" style="fill: #ffffff"/>
   </g>
   <g id="patch_59">
    <path d="M 786.56679 68.374108 
L 848.736531 68.374108 
L 848.736531 110.424946 
L 786.56679 110.424946 
z
" clip-path="url(#pb7f1aad391)" style="fill: #ffffff"/>
   </g>
   <g id="patch_60">
    <path d="M 848.736531 68.374108 
L 910.906273 68.374108 
L 910.906273 110.424946 
L 848.736531 110.424946 
z
" clip-path="url(#pb7f1aad391)" style="fill: #ffffff"/>
   </g>
   <g id="patch_61">
    <path d="M 910.906273 68.374108 
L 973.076015 68.374108 
L 973.076015 110.424946 
L 910.906273 110.424946 
z
" clip-path="url(#pb7f1aad391)" style="fill: #ffffff"/>
   </g>
   <g id="patch_62">
    <path d="M 973.076015 68.374108 
L 1035.245756 68.374108 
L 1035.245756 110.424946 
L 973.076015 110.424946 
z
" clip-path="url(#pb7f1aad391)" style="fill: #ffffff"/>
   </g>
   <g id="patch_63">
    <path d="M 289.208856 68.374108 
L 600.057565 68.374108 
L 600.057565 110.424946 
L 289.208856 110.424946 
z
" clip-path="url(#pb7f1aad391)" style="fill: #ffffff"/>
   </g>
   <g id="patch_64">
    <path d="M 600.057565 68.374108 
L 848.736531 68.374108 
L 848.736531 110.424946 
L 600.057565 110.424946 
z
" clip-path="url(#pb7f1aad391)" style="fill: #ffffff"/>
   </g>
   <g id="patch_65">
    <path d="M 848.736531 68.374108 
L 1035.245756 68.374108 
L 1035.245756 110.424946 
L 848.736531 110.424946 
z
" clip-path="url(#pb7f1aad391)" style="fill: #ffffff"/>
   </g>
   <g id="patch_66">
    <path d="M 848.736531 110.424946 
L 910.906273 110.424946 
L 910.906273 152.475783 
L 848.736531 152.475783 
z
" clip-path="url(#pb7f1aad391)" style="fill: #ffffff"/>
   </g>
   <g id="patch_67">
    <path d="M 910.906273 110.424946 
L 973.076015 110.424946 
L 973.076015 152.475783 
L 910.906273 152.475783 
z
" clip-path="url(#pb7f1aad391)" style="fill: #ffffff"/>
   </g>
   <g id="patch_68">
    <path d="M 973.076015 110.424946 
L 1035.245756 110.424946 
L 1035.245756 152.475783 
L 973.076015 152.475783 
z
" clip-path="url(#pb7f1aad391)" style="fill: #ffffff"/>
   </g>
   <g id="patch_69">
    <path d="M 848.736531 152.475783 
L 910.906273 152.475783 
L 910.906273 194.526621 
L 848.736531 194.526621 
z
" clip-path="url(#pb7f1aad391)" style="fill: #ffffff"/>
   </g>
   <g id="patch_70">
    <path d="M 910.906273 152.475783 
L 973.076015 152.475783 
L 973.076015 194.526621 
L 910.906273 194.526621 
z
" clip-path="url(#pb7f1aad391)" style="fill: #ffffff"/>
   </g>
   <g id="patch_71">
    <path d="M 973.076015 152.475783 
L 1035.245756 152.475783 
L 1035.245756 194.526621 
L 973.076015 194.526621 
z
" clip-path="url(#pb7f1aad391)" style="fill: #ffffff"/>
   </g>
   <g id="patch_72">
    <path d="M 848.736531 194.526621 
L 910.906273 194.526621 
L 910.906273 236.577458 
L 848.736531 236.577458 
z
" clip-path="url(#pb7f1aad391)" style="fill: #ffffff"/>
   </g>
   <g id="patch_73">
    <path d="M 910.906273 194.526621 
L 973.076015 194.526621 
L 973.076015 236.577458 
L 910.906273 236.577458 
z
" clip-path="url(#pb7f1aad391)" style="fill: #ffffff"/>
   </g>
   <g id="patch_74">
    <path d="M 973.076015 194.526621 
L 1035.245756 194.526621 
L 1035.245756 236.577458 
L 973.076015 236.577458 
z
" clip-path="url(#pb7f1aad391)" style="fill: #ffffff"/>
   </g>
   <g id="line2d_1">
    <path d="M 304.751292 68.374108 
L 584.515129 68.374108 
" clip-path="url(#pb7f1aad391)" style="fill: none; stroke: #262626; stroke-width: 0.2; stroke-linecap: round"/>
   </g>
   <g id="line2d_2">
    <path d="M 612.491513 68.374108 
L 836.302583 68.374108 
" clip-path="url(#pb7f1aad391)" style="fill: none; stroke: #262626; stroke-width: 0.2; stroke-linecap: round"/>
   </g>
   <g id="line2d_3">
    <path d="M 858.061993 68.374108 
L 1025.920295 68.374108 
" clip-path="url(#pb7f1aad391)" style="fill: none; stroke: #262626; stroke-width: 0.2; stroke-linecap: round"/>
   </g>
   <g id="line2d_4">
    <path d="M 195.954244 110.424946 
L 1035.245756 110.424946 
" clip-path="url(#pb7f1aad391)" style="fill: none; stroke: #262626; stroke-linecap: round"/>
   </g>
   <g id="line2d_5">
    <path d="M 195.954244 236.577458 
L 1035.245756 236.577458 
" clip-path="url(#pb7f1aad391)" style="fill: none; stroke: #262626; stroke-linecap: round"/>
   </g>
   <g id="line2d_6">
    <path d="M 195.954244 152.475783 
L 1035.245756 152.475783 
" clip-path="url(#pb7f1aad391)" style="fill: none; stroke-dasharray: 1,5; stroke-dashoffset: 0; stroke: #262626"/>
   </g>
   <g id="line2d_7">
    <path d="M 195.954244 194.526621 
L 1035.245756 194.526621 
" clip-path="url(#pb7f1aad391)" style="fill: none; stroke-dasharray: 1,5; stroke-dashoffset: 0; stroke: #262626"/>
   </g>
   <g id="line2d_8">
    <path d="M 848.736531 110.424946 
L 848.736531 236.577458 
" clip-path="url(#pb7f1aad391)" style="fill: none; stroke: #262626; stroke-linecap: round"/>
   </g>
   <g id="text_1">
    <!-- X_pca -->
    <g transform="translate(205.279705 133.931615) scale(0.1 -0.1)">
     <defs>
      <path id="DejaVuSans-Bold-58" d="M 3188 2381 
L 4806 0 
L 3553 0 
L 2463 1594 
L 1381 0 
L 122 0 
L 1741 2381 
L 184 4666 
L 1441 4666 
L 2463 3163 
L 3481 4666 
L 4744 4666 
L 3188 2381 
z
" transform="scale(0.015625)"/>
      <path id="DejaVuSans-Bold-5f" d="M 3200 -916 
L 3200 -1509 
L 0 -1509 
L 0 -916 
L 3200 -916 
z
" transform="scale(0.015625)"/>
      <path id="DejaVuSans-Bold-70" d="M 1656 506 
L 1656 -1331 
L 538 -1331 
L 538 3500 
L 1656 3500 
L 1656 2988 
Q 1888 3294 2169 3439 
Q 2450 3584 2816 3584 
Q 3463 3584 3878 3070 
Q 4294 2556 4294 1747 
Q 4294 938 3878 423 
Q 3463 -91 2816 -91 
Q 2450 -91 2169 54 
Q 1888 200 1656 506 
z
M 2400 2772 
Q 2041 2772 1848 2508 
Q 1656 2244 1656 1747 
Q 1656 1250 1848 986 
Q 2041 722 2400 722 
Q 2759 722 2948 984 
Q 3138 1247 3138 1747 
Q 3138 2247 2948 2509 
Q 2759 2772 2400 2772 
z
" transform="scale(0.015625)"/>
      <path id="DejaVuSans-Bold-63" d="M 3366 3391 
L 3366 2478 
Q 3138 2634 2908 2709 
Q 2678 2784 2431 2784 
Q 1963 2784 1702 2511 
Q 1441 2238 1441 1747 
Q 1441 1256 1702 982 
Q 1963 709 2431 709 
Q 2694 709 2930 787 
Q 3166 866 3366 1019 
L 3366 103 
Q 3103 6 2833 -42 
Q 2563 -91 2291 -91 
Q 1344 -91 809 395 
Q 275 881 275 1747 
Q 275 2613 809 3098 
Q 1344 3584 2291 3584 
Q 2566 3584 2833 3536 
Q 3100 3488 3366 3391 
z
" transform="scale(0.015625)"/>
      <path id="DejaVuSans-Bold-61" d="M 2106 1575 
Q 1756 1575 1579 1456 
Q 1403 1338 1403 1106 
Q 1403 894 1545 773 
Q 1688 653 1941 653 
Q 2256 653 2472 879 
Q 2688 1106 2688 1447 
L 2688 1575 
L 2106 1575 
z
M 3816 1997 
L 3816 0 
L 2688 0 
L 2688 519 
Q 2463 200 2181 54 
Q 1900 -91 1497 -91 
Q 953 -91 614 226 
Q 275 544 275 1050 
Q 275 1666 698 1953 
Q 1122 2241 2028 2241 
L 2688 2241 
L 2688 2328 
Q 2688 2594 2478 2717 
Q 2269 2841 1825 2841 
Q 1466 2841 1156 2769 
Q 847 2697 581 2553 
L 581 3406 
Q 941 3494 1303 3539 
Q 1666 3584 2028 3584 
Q 2975 3584 3395 3211 
Q 3816 2838 3816 1997 
z
" transform="scale(0.015625)"/>
     </defs>
     <use xlink:href="#DejaVuSans-Bold-58"/>
     <use xlink:href="#DejaVuSans-Bold-5f" x="77.099609"/>
     <use xlink:href="#DejaVuSans-Bold-70" x="127.099609"/>
     <use xlink:href="#DejaVuSans-Bold-63" x="198.681641"/>
     <use xlink:href="#DejaVuSans-Bold-61" x="257.958984"/>
    </g>
   </g>
   <g id="text_2">
    <g id="patch_75">
     <path d="M 320.293727 145.083177 
C 323.909191 145.083177 327.377062 143.646738 329.933581 141.090219 
C 332.4901 138.533699 333.926539 135.065829 333.926539 131.450365 
C 333.926539 127.8349 332.4901 124.36703 329.933581 121.81051 
C 327.377062 119.253991 323.909191 117.817552 320.293727 117.817552 
C 316.678263 117.817552 313.210392 119.253991 310.653873 121.81051 
C 308.097354 124.36703 306.660914 127.8349 306.660914 131.450365 
C 306.660914 135.065829 308.097354 138.533699 310.653873 141.090219 
C 313.210392 143.646738 316.678263 145.083177 320.293727 145.083177 
z
" style="fill: #c7abd2; stroke: #c7abd2; stroke-linejoin: miter"/>
    </g>
    <!-- 0.80 -->
    <g transform="translate(309.160914 134.20974) scale(0.1 -0.1)">
     <defs>
      <path id="DejaVuSans-30" d="M 2034 4250 
Q 1547 4250 1301 3770 
Q 1056 3291 1056 2328 
Q 1056 1369 1301 889 
Q 1547 409 2034 409 
Q 2525 409 2770 889 
Q 3016 1369 3016 2328 
Q 3016 3291 2770 3770 
Q 2525 4250 2034 4250 
z
M 2034 4750 
Q 2819 4750 3233 4129 
Q 3647 3509 3647 2328 
Q 3647 1150 3233 529 
Q 2819 -91 2034 -91 
Q 1250 -91 836 529 
Q 422 1150 422 2328 
Q 422 3509 836 4129 
Q 1250 4750 2034 4750 
z
" transform="scale(0.015625)"/>
      <path id="DejaVuSans-2e" d="M 684 794 
L 1344 794 
L 1344 0 
L 684 0 
L 684 794 
z
" transform="scale(0.015625)"/>
      <path id="DejaVuSans-38" d="M 2034 2216 
Q 1584 2216 1326 1975 
Q 1069 1734 1069 1313 
Q 1069 891 1326 650 
Q 1584 409 2034 409 
Q 2484 409 2743 651 
Q 3003 894 3003 1313 
Q 3003 1734 2745 1975 
Q 2488 2216 2034 2216 
z
M 1403 2484 
Q 997 2584 770 2862 
Q 544 3141 544 3541 
Q 544 4100 942 4425 
Q 1341 4750 2034 4750 
Q 2731 4750 3128 4425 
Q 3525 4100 3525 3541 
Q 3525 3141 3298 2862 
Q 3072 2584 2669 2484 
Q 3125 2378 3379 2068 
Q 3634 1759 3634 1313 
Q 3634 634 3220 271 
Q 2806 -91 2034 -91 
Q 1263 -91 848 271 
Q 434 634 434 1313 
Q 434 1759 690 2068 
Q 947 2378 1403 2484 
z
M 1172 3481 
Q 1172 3119 1398 2916 
Q 1625 2713 2034 2713 
Q 2441 2713 2670 2916 
Q 2900 3119 2900 3481 
Q 2900 3844 2670 4047 
Q 2441 4250 2034 4250 
Q 1625 4250 1398 4047 
Q 1172 3844 1172 3481 
z
" transform="scale(0.015625)"/>
     </defs>
     <use xlink:href="#DejaVuSans-30"/>
     <use xlink:href="#DejaVuSans-2e" x="63.623047"/>
     <use xlink:href="#DejaVuSans-38" x="95.410156"/>
     <use xlink:href="#DejaVuSans-30" x="159.033203"/>
    </g>
   </g>
   <g id="text_3">
    <g id="patch_76">
     <path d="M 382.463469 145.083177 
C 386.078933 145.083177 389.546804 143.646738 392.103323 141.090219 
C 394.659842 138.533699 396.096281 135.065829 396.096281 131.450365 
C 396.096281 127.8349 394.659842 124.36703 392.103323 121.81051 
C 389.546804 119.253991 386.078933 117.817552 382.463469 117.817552 
C 378.848004 117.817552 375.380134 119.253991 372.823614 121.81051 
C 370.267095 124.36703 368.830656 127.8349 368.830656 131.450365 
C 368.830656 135.065829 370.267095 138.533699 372.823614 141.090219 
C 375.380134 143.646738 378.848004 145.083177 382.463469 145.083177 
z
" style="fill: #f6f7f6; stroke: #f6f7f6; stroke-linejoin: miter"/>
    </g>
    <!-- 0.56 -->
    <g transform="translate(371.330656 134.20974) scale(0.1 -0.1)">
     <defs>
      <path id="DejaVuSans-35" d="M 691 4666 
L 3169 4666 
L 3169 4134 
L 1269 4134 
L 1269 2991 
Q 1406 3038 1543 3061 
Q 1681 3084 1819 3084 
Q 2600 3084 3056 2656 
Q 3513 2228 3513 1497 
Q 3513 744 3044 326 
Q 2575 -91 1722 -91 
Q 1428 -91 1123 -41 
Q 819 9 494 109 
L 494 744 
Q 775 591 1075 516 
Q 1375 441 1709 441 
Q 2250 441 2565 725 
Q 2881 1009 2881 1497 
Q 2881 1984 2565 2268 
Q 2250 2553 1709 2553 
Q 1456 2553 1204 2497 
Q 953 2441 691 2322 
L 691 4666 
z
" transform="scale(0.015625)"/>
      <path id="DejaVuSans-36" d="M 2113 2584 
Q 1688 2584 1439 2293 
Q 1191 2003 1191 1497 
Q 1191 994 1439 701 
Q 1688 409 2113 409 
Q 2538 409 2786 701 
Q 3034 994 3034 1497 
Q 3034 2003 2786 2293 
Q 2538 2584 2113 2584 
z
M 3366 4563 
L 3366 3988 
Q 3128 4100 2886 4159 
Q 2644 4219 2406 4219 
Q 1781 4219 1451 3797 
Q 1122 3375 1075 2522 
Q 1259 2794 1537 2939 
Q 1816 3084 2150 3084 
Q 2853 3084 3261 2657 
Q 3669 2231 3669 1497 
Q 3669 778 3244 343 
Q 2819 -91 2113 -91 
Q 1303 -91 875 529 
Q 447 1150 447 2328 
Q 447 3434 972 4092 
Q 1497 4750 2381 4750 
Q 2619 4750 2861 4703 
Q 3103 4656 3366 4563 
z
" transform="scale(0.015625)"/>
     </defs>
     <use xlink:href="#DejaVuSans-30"/>
     <use xlink:href="#DejaVuSans-2e" x="63.623047"/>
     <use xlink:href="#DejaVuSans-35" x="95.410156"/>
     <use xlink:href="#DejaVuSans-36" x="159.033203"/>
    </g>
   </g>
   <g id="text_4">
    <g id="patch_77">
     <path d="M 444.63321 145.083177 
C 448.248674 145.083177 451.716545 143.646738 454.273064 141.090219 
C 456.829584 138.533699 458.266023 135.065829 458.266023 131.450365 
C 458.266023 127.8349 456.829584 124.36703 454.273064 121.81051 
C 451.716545 119.253991 448.248674 117.817552 444.63321 117.817552 
C 441.017746 117.817552 437.549875 119.253991 434.993356 121.81051 
C 432.436837 124.36703 431.000398 127.8349 431.000398 131.450365 
C 431.000398 135.065829 432.436837 138.533699 434.993356 141.090219 
C 437.549875 143.646738 441.017746 145.083177 444.63321 145.083177 
z
" style="fill: #afdfa9; stroke: #afdfa9; stroke-linejoin: miter"/>
    </g>
    <!-- 0.34 -->
    <g transform="translate(433.500398 134.20974) scale(0.1 -0.1)">
     <defs>
      <path id="DejaVuSans-33" d="M 2597 2516 
Q 3050 2419 3304 2112 
Q 3559 1806 3559 1356 
Q 3559 666 3084 287 
Q 2609 -91 1734 -91 
Q 1441 -91 1130 -33 
Q 819 25 488 141 
L 488 750 
Q 750 597 1062 519 
Q 1375 441 1716 441 
Q 2309 441 2620 675 
Q 2931 909 2931 1356 
Q 2931 1769 2642 2001 
Q 2353 2234 1838 2234 
L 1294 2234 
L 1294 2753 
L 1863 2753 
Q 2328 2753 2575 2939 
Q 2822 3125 2822 3475 
Q 2822 3834 2567 4026 
Q 2313 4219 1838 4219 
Q 1578 4219 1281 4162 
Q 984 4106 628 3988 
L 628 4550 
Q 988 4650 1302 4700 
Q 1616 4750 1894 4750 
Q 2613 4750 3031 4423 
Q 3450 4097 3450 3541 
Q 3450 3153 3228 2886 
Q 3006 2619 2597 2516 
z
" transform="scale(0.015625)"/>
      <path id="DejaVuSans-34" d="M 2419 4116 
L 825 1625 
L 2419 1625 
L 2419 4116 
z
M 2253 4666 
L 3047 4666 
L 3047 1625 
L 3713 1625 
L 3713 1100 
L 3047 1100 
L 3047 0 
L 2419 0 
L 2419 1100 
L 313 1100 
L 313 1709 
L 2253 4666 
z
" transform="scale(0.015625)"/>
     </defs>
     <use xlink:href="#DejaVuSans-30"/>
     <use xlink:href="#DejaVuSans-2e" x="63.623047"/>
     <use xlink:href="#DejaVuSans-33" x="95.410156"/>
     <use xlink:href="#DejaVuSans-34" x="159.033203"/>
    </g>
   </g>
   <g id="text_5">
    <g id="patch_78">
     <path d="M 506.802952 145.083177 
C 510.418416 145.083177 513.886287 143.646738 516.442806 141.090219 
C 518.999325 138.533699 520.435765 135.065829 520.435765 131.450365 
C 520.435765 127.8349 518.999325 124.36703 516.442806 121.81051 
C 513.886287 119.253991 510.418416 117.817552 506.802952 117.817552 
C 503.187488 117.817552 499.719617 119.253991 497.163098 121.81051 
C 494.606579 124.36703 493.17014 127.8349 493.17014 131.450365 
C 493.17014 135.065829 494.606579 138.533699 497.163098 141.090219 
C 499.719617 143.646738 503.187488 145.083177 506.802952 145.083177 
z
" style="fill: #c3e7bd; stroke: #c3e7bd; stroke-linejoin: miter"/>
    </g>
    <!-- 0.48 -->
    <g transform="translate(495.67014 134.20974) scale(0.1 -0.1)">
     <use xlink:href="#DejaVuSans-30"/>
     <use xlink:href="#DejaVuSans-2e" x="63.623047"/>
     <use xlink:href="#DejaVuSans-34" x="95.410156"/>
     <use xlink:href="#DejaVuSans-38" x="159.033203"/>
    </g>
   </g>
   <g id="text_6">
    <g id="patch_79">
     <path d="M 568.972694 145.083177 
C 572.588158 145.083177 576.056029 143.646738 578.612548 141.090219 
C 581.169067 138.533699 582.605506 135.065829 582.605506 131.450365 
C 582.605506 127.8349 581.169067 124.36703 578.612548 121.81051 
C 576.056029 119.253991 572.588158 117.817552 568.972694 117.817552 
C 565.35723 117.817552 561.889359 119.253991 559.33284 121.81051 
C 556.77632 124.36703 555.339881 127.8349 555.339881 131.450365 
C 555.339881 135.065829 556.77632 138.533699 559.33284 141.090219 
C 561.889359 143.646738 565.35723 145.083177 568.972694 145.083177 
z
" style="fill: #f7f6f7; stroke: #f7f6f7; stroke-linejoin: miter"/>
    </g>
    <!-- 0.98 -->
    <g transform="translate(557.839881 134.20974) scale(0.1 -0.1)">
     <defs>
      <path id="DejaVuSans-39" d="M 703 97 
L 703 672 
Q 941 559 1184 500 
Q 1428 441 1663 441 
Q 2288 441 2617 861 
Q 2947 1281 2994 2138 
Q 2813 1869 2534 1725 
Q 2256 1581 1919 1581 
Q 1219 1581 811 2004 
Q 403 2428 403 3163 
Q 403 3881 828 4315 
Q 1253 4750 1959 4750 
Q 2769 4750 3195 4129 
Q 3622 3509 3622 2328 
Q 3622 1225 3098 567 
Q 2575 -91 1691 -91 
Q 1453 -91 1209 -44 
Q 966 3 703 97 
z
M 1959 2075 
Q 2384 2075 2632 2365 
Q 2881 2656 2881 3163 
Q 2881 3666 2632 3958 
Q 2384 4250 1959 4250 
Q 1534 4250 1286 3958 
Q 1038 3666 1038 3163 
Q 1038 2656 1286 2365 
Q 1534 2075 1959 2075 
z
" transform="scale(0.015625)"/>
     </defs>
     <use xlink:href="#DejaVuSans-30"/>
     <use xlink:href="#DejaVuSans-2e" x="63.623047"/>
     <use xlink:href="#DejaVuSans-39" x="95.410156"/>
     <use xlink:href="#DejaVuSans-38" x="159.033203"/>
    </g>
   </g>
   <g id="text_7">
    <g id="patch_80">
     <path d="M 631.142435 145.083177 
C 634.7579 145.083177 638.22577 143.646738 640.78229 141.090219 
C 643.338809 138.533699 644.775248 135.065829 644.775248 131.450365 
C 644.775248 127.8349 643.338809 124.36703 640.78229 121.81051 
C 638.22577 119.253991 634.7579 117.817552 631.142435 117.817552 
C 627.526971 117.817552 624.0591 119.253991 621.502581 121.81051 
C 618.946062 124.36703 617.509623 127.8349 617.509623 131.450365 
C 617.509623 135.065829 618.946062 138.533699 621.502581 141.090219 
C 624.0591 143.646738 627.526971 145.083177 631.142435 145.083177 
z
" style="fill: #f6f7f6; stroke: #f6f7f6; stroke-linejoin: miter"/>
    </g>
    <!-- 0.89 -->
    <g transform="translate(620.009623 134.20974) scale(0.1 -0.1)">
     <use xlink:href="#DejaVuSans-30"/>
     <use xlink:href="#DejaVuSans-2e" x="63.623047"/>
     <use xlink:href="#DejaVuSans-38" x="95.410156"/>
     <use xlink:href="#DejaVuSans-39" x="159.033203"/>
    </g>
   </g>
   <g id="text_8">
    <g id="patch_81">
     <path d="M 693.312177 145.083177 
C 696.927641 145.083177 700.395512 143.646738 702.952031 141.090219 
C 705.50855 138.533699 706.94499 135.065829 706.94499 131.450365 
C 706.94499 127.8349 705.50855 124.36703 702.952031 121.81051 
C 700.395512 119.253991 696.927641 117.817552 693.312177 117.817552 
C 689.696713 117.817552 686.228842 119.253991 683.672323 121.81051 
C 681.115804 124.36703 679.679365 127.8349 679.679365 131.450365 
C 679.679365 135.065829 681.115804 138.533699 683.672323 141.090219 
C 686.228842 143.646738 689.696713 145.083177 693.312177 145.083177 
z
" style="fill: #f6f7f6; stroke: #f6f7f6; stroke-linejoin: miter"/>
    </g>
    <!-- 0.12 -->
    <g transform="translate(682.179365 134.20974) scale(0.1 -0.1)">
     <defs>
      <path id="DejaVuSans-31" d="M 794 531 
L 1825 531 
L 1825 4091 
L 703 3866 
L 703 4441 
L 1819 4666 
L 2450 4666 
L 2450 531 
L 3481 531 
L 3481 0 
L 794 0 
L 794 531 
z
" transform="scale(0.015625)"/>
      <path id="DejaVuSans-32" d="M 1228 531 
L 3431 531 
L 3431 0 
L 469 0 
L 469 531 
Q 828 903 1448 1529 
Q 2069 2156 2228 2338 
Q 2531 2678 2651 2914 
Q 2772 3150 2772 3378 
Q 2772 3750 2511 3984 
Q 2250 4219 1831 4219 
Q 1534 4219 1204 4116 
Q 875 4013 500 3803 
L 500 4441 
Q 881 4594 1212 4672 
Q 1544 4750 1819 4750 
Q 2544 4750 2975 4387 
Q 3406 4025 3406 3419 
Q 3406 3131 3298 2873 
Q 3191 2616 2906 2266 
Q 2828 2175 2409 1742 
Q 1991 1309 1228 531 
z
" transform="scale(0.015625)"/>
     </defs>
     <use xlink:href="#DejaVuSans-30"/>
     <use xlink:href="#DejaVuSans-2e" x="63.623047"/>
     <use xlink:href="#DejaVuSans-31" x="95.410156"/>
     <use xlink:href="#DejaVuSans-32" x="159.033203"/>
    </g>
   </g>
   <g id="text_9">
    <g id="patch_82">
     <path d="M 755.481919 145.083177 
C 759.097383 145.083177 762.565254 143.646738 765.121773 141.090219 
C 767.678292 138.533699 769.114731 135.065829 769.114731 131.450365 
C 769.114731 127.8349 767.678292 124.36703 765.121773 121.81051 
C 762.565254 119.253991 759.097383 117.817552 755.481919 117.817552 
C 751.866455 117.817552 748.398584 119.253991 745.842065 121.81051 
C 743.285545 124.36703 741.849106 127.8349 741.849106 131.450365 
C 741.849106 135.065829 743.285545 138.533699 745.842065 141.090219 
C 748.398584 143.646738 751.866455 145.083177 755.481919 145.083177 
z
" style="fill: #b7e2b1; stroke: #b7e2b1; stroke-linejoin: miter"/>
    </g>
    <!-- 0.67 -->
    <g transform="translate(744.349106 134.20974) scale(0.1 -0.1)">
     <defs>
      <path id="DejaVuSans-37" d="M 525 4666 
L 3525 4666 
L 3525 4397 
L 1831 0 
L 1172 0 
L 2766 4134 
L 525 4134 
L 525 4666 
z
" transform="scale(0.015625)"/>
     </defs>
     <use xlink:href="#DejaVuSans-30"/>
     <use xlink:href="#DejaVuSans-2e" x="63.623047"/>
     <use xlink:href="#DejaVuSans-36" x="95.410156"/>
     <use xlink:href="#DejaVuSans-37" x="159.033203"/>
    </g>
   </g>
   <g id="text_10">
    <g id="patch_83">
     <path d="M 817.651661 145.083177 
C 821.267125 145.083177 824.734995 143.646738 827.291515 141.090219 
C 829.848034 138.533699 831.284473 135.065829 831.284473 131.450365 
C 831.284473 127.8349 829.848034 124.36703 827.291515 121.81051 
C 824.734995 119.253991 821.267125 117.817552 817.651661 117.817552 
C 814.036196 117.817552 810.568326 119.253991 808.011806 121.81051 
C 805.455287 124.36703 804.018848 127.8349 804.018848 131.450365 
C 804.018848 135.065829 805.455287 138.533699 808.011806 141.090219 
C 810.568326 143.646738 814.036196 145.083177 817.651661 145.083177 
z
" style="fill: #f6f7f6; stroke: #f6f7f6; stroke-linejoin: miter"/>
    </g>
    <!-- 0.43 -->
    <g transform="translate(806.518848 134.20974) scale(0.1 -0.1)">
     <use xlink:href="#DejaVuSans-30"/>
     <use xlink:href="#DejaVuSans-2e" x="63.623047"/>
     <use xlink:href="#DejaVuSans-34" x="95.410156"/>
     <use xlink:href="#DejaVuSans-33" x="159.033203"/>
    </g>
   </g>
   <g id="text_11">
    <!-- X_umap -->
    <g transform="translate(205.279705 175.982452) scale(0.1 -0.1)">
     <defs>
      <path id="DejaVuSans-Bold-75" d="M 500 1363 
L 500 3500 
L 1625 3500 
L 1625 3150 
Q 1625 2866 1622 2436 
Q 1619 2006 1619 1863 
Q 1619 1441 1641 1255 
Q 1663 1069 1716 984 
Q 1784 875 1895 815 
Q 2006 756 2150 756 
Q 2500 756 2700 1025 
Q 2900 1294 2900 1772 
L 2900 3500 
L 4019 3500 
L 4019 0 
L 2900 0 
L 2900 506 
Q 2647 200 2364 54 
Q 2081 -91 1741 -91 
Q 1134 -91 817 281 
Q 500 653 500 1363 
z
" transform="scale(0.015625)"/>
      <path id="DejaVuSans-Bold-6d" d="M 3781 2919 
Q 3994 3244 4286 3414 
Q 4578 3584 4928 3584 
Q 5531 3584 5847 3212 
Q 6163 2841 6163 2131 
L 6163 0 
L 5038 0 
L 5038 1825 
Q 5041 1866 5042 1909 
Q 5044 1953 5044 2034 
Q 5044 2406 4934 2573 
Q 4825 2741 4581 2741 
Q 4263 2741 4089 2478 
Q 3916 2216 3909 1719 
L 3909 0 
L 2784 0 
L 2784 1825 
Q 2784 2406 2684 2573 
Q 2584 2741 2328 2741 
Q 2006 2741 1831 2477 
Q 1656 2213 1656 1722 
L 1656 0 
L 531 0 
L 531 3500 
L 1656 3500 
L 1656 2988 
Q 1863 3284 2130 3434 
Q 2397 3584 2719 3584 
Q 3081 3584 3359 3409 
Q 3638 3234 3781 2919 
z
" transform="scale(0.015625)"/>
     </defs>
     <use xlink:href="#DejaVuSans-Bold-58"/>
     <use xlink:href="#DejaVuSans-Bold-5f" x="77.099609"/>
     <use xlink:href="#DejaVuSans-Bold-75" x="127.099609"/>
     <use xlink:href="#DejaVuSans-Bold-6d" x="198.291016"/>
     <use xlink:href="#DejaVuSans-Bold-61" x="302.490234"/>
     <use xlink:href="#DejaVuSans-Bold-70" x="369.970703"/>
    </g>
   </g>
   <g id="text_12">
    <g id="patch_84">
     <path d="M 320.293727 187.134014 
C 323.909191 187.134014 327.377062 185.697575 329.933581 183.141056 
C 332.4901 180.584537 333.926539 177.116666 333.926539 173.501202 
C 333.926539 169.885738 332.4901 166.417867 329.933581 163.861348 
C 327.377062 161.304829 323.909191 159.868389 320.293727 159.868389 
C 316.678263 159.868389 313.210392 161.304829 310.653873 163.861348 
C 308.097354 166.417867 306.660914 169.885738 306.660914 173.501202 
C 306.660914 177.116666 308.097354 180.584537 310.653873 183.141056 
C 313.210392 185.697575 316.678263 187.134014 320.293727 187.134014 
z
" style="fill: #9cd597; stroke: #9cd597; stroke-linejoin: miter"/>
    </g>
    <!-- 0.83 -->
    <g transform="translate(309.160914 176.260577) scale(0.1 -0.1)">
     <use xlink:href="#DejaVuSans-30"/>
     <use xlink:href="#DejaVuSans-2e" x="63.623047"/>
     <use xlink:href="#DejaVuSans-38" x="95.410156"/>
     <use xlink:href="#DejaVuSans-33" x="159.033203"/>
    </g>
   </g>
   <g id="text_13">
    <g id="patch_85">
     <path d="M 382.463469 187.134014 
C 386.078933 187.134014 389.546804 185.697575 392.103323 183.141056 
C 394.659842 180.584537 396.096281 177.116666 396.096281 173.501202 
C 396.096281 169.885738 394.659842 166.417867 392.103323 163.861348 
C 389.546804 161.304829 386.078933 159.868389 382.463469 159.868389 
C 378.848004 159.868389 375.380134 161.304829 372.823614 163.861348 
C 370.267095 166.417867 368.830656 169.885738 368.830656 173.501202 
C 368.830656 177.116666 370.267095 180.584537 372.823614 183.141056 
C 375.380134 185.697575 378.848004 187.134014 382.463469 187.134014 
z
" style="fill: #edf5eb; stroke: #edf5eb; stroke-linejoin: miter"/>
    </g>
    <!-- 0.58 -->
    <g transform="translate(371.330656 176.260577) scale(0.1 -0.1)">
     <use xlink:href="#DejaVuSans-30"/>
     <use xlink:href="#DejaVuSans-2e" x="63.623047"/>
     <use xlink:href="#DejaVuSans-35" x="95.410156"/>
     <use xlink:href="#DejaVuSans-38" x="159.033203"/>
    </g>
   </g>
   <g id="text_14">
    <g id="patch_86">
     <path d="M 444.63321 187.134014 
C 448.248674 187.134014 451.716545 185.697575 454.273064 183.141056 
C 456.829584 180.584537 458.266023 177.116666 458.266023 173.501202 
C 458.266023 169.885738 456.829584 166.417867 454.273064 163.861348 
C 451.716545 161.304829 448.248674 159.868389 444.63321 159.868389 
C 441.017746 159.868389 437.549875 161.304829 434.993356 163.861348 
C 432.436837 166.417867 431.000398 169.885738 431.000398 173.501202 
C 431.000398 177.116666 432.436837 180.584537 434.993356 183.141056 
C 437.549875 185.697575 441.017746 187.134014 444.63321 187.134014 
z
" style="fill: #f6f7f6; stroke: #f6f7f6; stroke-linejoin: miter"/>
    </g>
    <!-- 0.23 -->
    <g transform="translate(433.500398 176.260577) scale(0.1 -0.1)">
     <use xlink:href="#DejaVuSans-30"/>
     <use xlink:href="#DejaVuSans-2e" x="63.623047"/>
     <use xlink:href="#DejaVuSans-32" x="95.410156"/>
     <use xlink:href="#DejaVuSans-33" x="159.033203"/>
    </g>
   </g>
   <g id="text_15">
    <g id="patch_87">
     <path d="M 506.802952 187.134014 
C 510.418416 187.134014 513.886287 185.697575 516.442806 183.141056 
C 518.999325 180.584537 520.435765 177.116666 520.435765 173.501202 
C 520.435765 169.885738 518.999325 166.417867 516.442806 163.861348 
C 513.886287 161.304829 510.418416 159.868389 506.802952 159.868389 
C 503.187488 159.868389 499.719617 161.304829 497.163098 163.861348 
C 494.606579 166.417867 493.17014 169.885738 493.17014 173.501202 
C 493.17014 177.116666 494.606579 180.584537 497.163098 183.141056 
C 499.719617 185.697575 503.187488 187.134014 506.802952 187.134014 
z
" style="fill: #ac89bc; stroke: #ac89bc; stroke-linejoin: miter"/>
    </g>
    <!-- 0.43 -->
    <g transform="translate(495.67014 176.260577) scale(0.1 -0.1)">
     <use xlink:href="#DejaVuSans-30"/>
     <use xlink:href="#DejaVuSans-2e" x="63.623047"/>
     <use xlink:href="#DejaVuSans-34" x="95.410156"/>
     <use xlink:href="#DejaVuSans-33" x="159.033203"/>
    </g>
   </g>
   <g id="text_16">
    <g id="patch_88">
     <path d="M 568.972694 187.134014 
C 572.588158 187.134014 576.056029 185.697575 578.612548 183.141056 
C 581.169067 180.584537 582.605506 177.116666 582.605506 173.501202 
C 582.605506 169.885738 581.169067 166.417867 578.612548 163.861348 
C 576.056029 161.304829 572.588158 159.868389 568.972694 159.868389 
C 565.35723 159.868389 561.889359 161.304829 559.33284 163.861348 
C 556.77632 166.417867 555.339881 169.885738 555.339881 173.501202 
C 555.339881 177.116666 556.77632 180.584537 559.33284 183.141056 
C 561.889359 185.697575 565.35723 187.134014 568.972694 187.134014 
z
" style="fill: #dff1da; stroke: #dff1da; stroke-linejoin: miter"/>
    </g>
    <!-- 0.99 -->
    <g transform="translate(557.839881 176.260577) scale(0.1 -0.1)">
     <use xlink:href="#DejaVuSans-30"/>
     <use xlink:href="#DejaVuSans-2e" x="63.623047"/>
     <use xlink:href="#DejaVuSans-39" x="95.410156"/>
     <use xlink:href="#DejaVuSans-39" x="159.033203"/>
    </g>
   </g>
   <g id="text_17">
    <g id="patch_89">
     <path d="M 631.142435 187.134014 
C 634.7579 187.134014 638.22577 185.697575 640.78229 183.141056 
C 643.338809 180.584537 644.775248 177.116666 644.775248 173.501202 
C 644.775248 169.885738 643.338809 166.417867 640.78229 163.861348 
C 638.22577 161.304829 634.7579 159.868389 631.142435 159.868389 
C 627.526971 159.868389 624.0591 161.304829 621.502581 163.861348 
C 618.946062 166.417867 617.509623 169.885738 617.509623 173.501202 
C 617.509623 177.116666 618.946062 180.584537 621.502581 183.141056 
C 624.0591 185.697575 627.526971 187.134014 631.142435 187.134014 
z
" style="fill: #8b559b; stroke: #8b559b; stroke-linejoin: miter"/>
    </g>
    <!-- 0.67 -->
    <g style="fill: #ffffff" transform="translate(620.009623 176.260577) scale(0.1 -0.1)">
     <use xlink:href="#DejaVuSans-30"/>
     <use xlink:href="#DejaVuSans-2e" x="63.623047"/>
     <use xlink:href="#DejaVuSans-36" x="95.410156"/>
     <use xlink:href="#DejaVuSans-37" x="159.033203"/>
    </g>
   </g>
   <g id="text_18">
    <g id="patch_90">
     <path d="M 693.312177 187.134014 
C 696.927641 187.134014 700.395512 185.697575 702.952031 183.141056 
C 705.50855 180.584537 706.94499 177.116666 706.94499 173.501202 
C 706.94499 169.885738 705.50855 166.417867 702.952031 163.861348 
C 700.395512 161.304829 696.927641 159.868389 693.312177 159.868389 
C 689.696713 159.868389 686.228842 161.304829 683.672323 163.861348 
C 681.115804 166.417867 679.679365 169.885738 679.679365 173.501202 
C 679.679365 177.116666 681.115804 180.584537 683.672323 183.141056 
C 686.228842 185.697575 689.696713 187.134014 693.312177 187.134014 
z
" style="fill: #9c74ae; stroke: #9c74ae; stroke-linejoin: miter"/>
    </g>
    <!-- 0.07 -->
    <g style="fill: #ffffff" transform="translate(682.179365 176.260577) scale(0.1 -0.1)">
     <use xlink:href="#DejaVuSans-30"/>
     <use xlink:href="#DejaVuSans-2e" x="63.623047"/>
     <use xlink:href="#DejaVuSans-30" x="95.410156"/>
     <use xlink:href="#DejaVuSans-37" x="159.033203"/>
    </g>
   </g>
   <g id="text_19">
    <g id="patch_91">
     <path d="M 755.481919 187.134014 
C 759.097383 187.134014 762.565254 185.697575 765.121773 183.141056 
C 767.678292 180.584537 769.114731 177.116666 769.114731 173.501202 
C 769.114731 169.885738 767.678292 166.417867 765.121773 163.861348 
C 762.565254 161.304829 759.097383 159.868389 755.481919 159.868389 
C 751.866455 159.868389 748.398584 161.304829 745.842065 163.861348 
C 743.285545 166.417867 741.849106 169.885738 741.849106 173.501202 
C 741.849106 177.116666 743.285545 180.584537 745.842065 183.141056 
C 748.398584 185.697575 751.866455 187.134014 755.481919 187.134014 
z
" style="fill: #b493c3; stroke: #b493c3; stroke-linejoin: miter"/>
    </g>
    <!-- 0.27 -->
    <g transform="translate(744.349106 176.260577) scale(0.1 -0.1)">
     <use xlink:href="#DejaVuSans-30"/>
     <use xlink:href="#DejaVuSans-2e" x="63.623047"/>
     <use xlink:href="#DejaVuSans-32" x="95.410156"/>
     <use xlink:href="#DejaVuSans-37" x="159.033203"/>
    </g>
   </g>
   <g id="text_20">
    <g id="patch_92">
     <path d="M 817.651661 187.134014 
C 821.267125 187.134014 824.734995 185.697575 827.291515 183.141056 
C 829.848034 180.584537 831.284473 177.116666 831.284473 173.501202 
C 831.284473 169.885738 829.848034 166.417867 827.291515 163.861348 
C 824.734995 161.304829 821.267125 159.868389 817.651661 159.868389 
C 814.036196 159.868389 810.568326 161.304829 808.011806 163.861348 
C 805.455287 166.417867 804.018848 169.885738 804.018848 173.501202 
C 804.018848 177.116666 805.455287 180.584537 808.011806 183.141056 
C 810.568326 185.697575 814.036196 187.134014 817.651661 187.134014 
z
" style="fill: #f4f6f3; stroke: #f4f6f3; stroke-linejoin: miter"/>
    </g>
    <!-- 0.44 -->
    <g transform="translate(806.518848 176.260577) scale(0.1 -0.1)">
     <use xlink:href="#DejaVuSans-30"/>
     <use xlink:href="#DejaVuSans-2e" x="63.623047"/>
     <use xlink:href="#DejaVuSans-34" x="95.410156"/>
     <use xlink:href="#DejaVuSans-34" x="159.033203"/>
    </g>
   </g>
   <g id="text_21">
    <!-- CancerGPT -->
    <g transform="translate(205.279705 218.311414) scale(0.1 -0.1)">
     <defs>
      <path id="DejaVuSans-Bold-43" d="M 4288 256 
Q 3956 84 3597 -3 
Q 3238 -91 2847 -91 
Q 1681 -91 1000 561 
Q 319 1213 319 2328 
Q 319 3447 1000 4098 
Q 1681 4750 2847 4750 
Q 3238 4750 3597 4662 
Q 3956 4575 4288 4403 
L 4288 3438 
Q 3953 3666 3628 3772 
Q 3303 3878 2944 3878 
Q 2300 3878 1931 3465 
Q 1563 3053 1563 2328 
Q 1563 1606 1931 1193 
Q 2300 781 2944 781 
Q 3303 781 3628 887 
Q 3953 994 4288 1222 
L 4288 256 
z
" transform="scale(0.015625)"/>
      <path id="DejaVuSans-Bold-6e" d="M 4056 2131 
L 4056 0 
L 2931 0 
L 2931 347 
L 2931 1631 
Q 2931 2084 2911 2256 
Q 2891 2428 2841 2509 
Q 2775 2619 2662 2680 
Q 2550 2741 2406 2741 
Q 2056 2741 1856 2470 
Q 1656 2200 1656 1722 
L 1656 0 
L 538 0 
L 538 3500 
L 1656 3500 
L 1656 2988 
Q 1909 3294 2193 3439 
Q 2478 3584 2822 3584 
Q 3428 3584 3742 3212 
Q 4056 2841 4056 2131 
z
" transform="scale(0.015625)"/>
      <path id="DejaVuSans-Bold-65" d="M 4031 1759 
L 4031 1441 
L 1416 1441 
Q 1456 1047 1700 850 
Q 1944 653 2381 653 
Q 2734 653 3104 758 
Q 3475 863 3866 1075 
L 3866 213 
Q 3469 63 3072 -14 
Q 2675 -91 2278 -91 
Q 1328 -91 801 392 
Q 275 875 275 1747 
Q 275 2603 792 3093 
Q 1309 3584 2216 3584 
Q 3041 3584 3536 3087 
Q 4031 2591 4031 1759 
z
M 2881 2131 
Q 2881 2450 2695 2645 
Q 2509 2841 2209 2841 
Q 1884 2841 1681 2658 
Q 1478 2475 1428 2131 
L 2881 2131 
z
" transform="scale(0.015625)"/>
      <path id="DejaVuSans-Bold-72" d="M 3138 2547 
Q 2991 2616 2845 2648 
Q 2700 2681 2553 2681 
Q 2122 2681 1889 2404 
Q 1656 2128 1656 1613 
L 1656 0 
L 538 0 
L 538 3500 
L 1656 3500 
L 1656 2925 
Q 1872 3269 2151 3426 
Q 2431 3584 2822 3584 
Q 2878 3584 2943 3579 
Q 3009 3575 3134 3559 
L 3138 2547 
z
" transform="scale(0.015625)"/>
      <path id="DejaVuSans-Bold-47" d="M 4781 347 
Q 4331 128 3847 18 
Q 3363 -91 2847 -91 
Q 1681 -91 1000 561 
Q 319 1213 319 2328 
Q 319 3456 1012 4103 
Q 1706 4750 2913 4750 
Q 3378 4750 3804 4662 
Q 4231 4575 4609 4403 
L 4609 3438 
Q 4219 3659 3833 3768 
Q 3447 3878 3059 3878 
Q 2341 3878 1952 3476 
Q 1563 3075 1563 2328 
Q 1563 1588 1938 1184 
Q 2313 781 3003 781 
Q 3191 781 3352 804 
Q 3513 828 3641 878 
L 3641 1784 
L 2906 1784 
L 2906 2591 
L 4781 2591 
L 4781 347 
z
" transform="scale(0.015625)"/>
      <path id="DejaVuSans-Bold-50" d="M 588 4666 
L 2584 4666 
Q 3475 4666 3951 4270 
Q 4428 3875 4428 3144 
Q 4428 2409 3951 2014 
Q 3475 1619 2584 1619 
L 1791 1619 
L 1791 0 
L 588 0 
L 588 4666 
z
M 1791 3794 
L 1791 2491 
L 2456 2491 
Q 2806 2491 2997 2661 
Q 3188 2831 3188 3144 
Q 3188 3456 2997 3625 
Q 2806 3794 2456 3794 
L 1791 3794 
z
" transform="scale(0.015625)"/>
      <path id="DejaVuSans-Bold-54" d="M 31 4666 
L 4331 4666 
L 4331 3756 
L 2784 3756 
L 2784 0 
L 1581 0 
L 1581 3756 
L 31 3756 
L 31 4666 
z
" transform="scale(0.015625)"/>
     </defs>
     <use xlink:href="#DejaVuSans-Bold-43"/>
     <use xlink:href="#DejaVuSans-Bold-61" x="73.388672"/>
     <use xlink:href="#DejaVuSans-Bold-6e" x="140.869141"/>
     <use xlink:href="#DejaVuSans-Bold-63" x="212.060547"/>
     <use xlink:href="#DejaVuSans-Bold-65" x="271.337891"/>
     <use xlink:href="#DejaVuSans-Bold-72" x="339.160156"/>
     <use xlink:href="#DejaVuSans-Bold-47" x="388.476562"/>
     <use xlink:href="#DejaVuSans-Bold-50" x="470.556641"/>
     <use xlink:href="#DejaVuSans-Bold-54" x="543.847656"/>
    </g>
   </g>
   <g id="text_22">
    <g id="patch_93">
     <path d="M 320.293727 229.184852 
C 323.909191 229.184852 327.377062 227.748413 329.933581 225.191894 
C 332.4901 222.635374 333.926539 219.167504 333.926539 215.552039 
C 333.926539 211.936575 332.4901 208.468704 329.933581 205.912185 
C 327.377062 203.355666 323.909191 201.919227 320.293727 201.919227 
C 316.678263 201.919227 313.210392 203.355666 310.653873 205.912185 
C 308.097354 208.468704 306.660914 211.936575 306.660914 215.552039 
C 306.660914 219.167504 308.097354 222.635374 310.653873 225.191894 
C 313.210392 227.748413 316.678263 229.184852 320.293727 229.184852 
z
" style="fill: #f6f7f6; stroke: #f6f7f6; stroke-linejoin: miter"/>
    </g>
    <!-- 0.81 -->
    <g transform="translate(309.160914 218.311414) scale(0.1 -0.1)">
     <use xlink:href="#DejaVuSans-30"/>
     <use xlink:href="#DejaVuSans-2e" x="63.623047"/>
     <use xlink:href="#DejaVuSans-38" x="95.410156"/>
     <use xlink:href="#DejaVuSans-31" x="159.033203"/>
    </g>
   </g>
   <g id="text_23">
    <g id="patch_94">
     <path d="M 382.463469 229.184852 
C 386.078933 229.184852 389.546804 227.748413 392.103323 225.191894 
C 394.659842 222.635374 396.096281 219.167504 396.096281 215.552039 
C 396.096281 211.936575 394.659842 208.468704 392.103323 205.912185 
C 389.546804 203.355666 386.078933 201.919227 382.463469 201.919227 
C 378.848004 201.919227 375.380134 203.355666 372.823614 205.912185 
C 370.267095 208.468704 368.830656 211.936575 368.830656 215.552039 
C 368.830656 219.167504 370.267095 222.635374 372.823614 225.191894 
C 375.380134 227.748413 378.848004 229.184852 382.463469 229.184852 
z
" style="fill: #8e5a9e; stroke: #8e5a9e; stroke-linejoin: miter"/>
    </g>
    <!-- 0.31 -->
    <g style="fill: #ffffff" transform="translate(371.330656 218.311414) scale(0.1 -0.1)">
     <use xlink:href="#DejaVuSans-30"/>
     <use xlink:href="#DejaVuSans-2e" x="63.623047"/>
     <use xlink:href="#DejaVuSans-33" x="95.410156"/>
     <use xlink:href="#DejaVuSans-31" x="159.033203"/>
    </g>
   </g>
   <g id="text_24">
    <g id="patch_95">
     <path d="M 444.63321 229.184852 
C 448.248674 229.184852 451.716545 227.748413 454.273064 225.191894 
C 456.829584 222.635374 458.266023 219.167504 458.266023 215.552039 
C 458.266023 211.936575 456.829584 208.468704 454.273064 205.912185 
C 451.716545 203.355666 448.248674 201.919227 444.63321 201.919227 
C 441.017746 201.919227 437.549875 203.355666 434.993356 205.912185 
C 432.436837 208.468704 431.000398 211.936575 431.000398 215.552039 
C 431.000398 219.167504 432.436837 222.635374 434.993356 225.191894 
C 437.549875 227.748413 441.017746 229.184852 444.63321 229.184852 
z
" style="fill: #bb9cc9; stroke: #bb9cc9; stroke-linejoin: miter"/>
    </g>
    <!-- 0.10 -->
    <g transform="translate(433.500398 218.311414) scale(0.1 -0.1)">
     <use xlink:href="#DejaVuSans-30"/>
     <use xlink:href="#DejaVuSans-2e" x="63.623047"/>
     <use xlink:href="#DejaVuSans-31" x="95.410156"/>
     <use xlink:href="#DejaVuSans-30" x="159.033203"/>
    </g>
   </g>
   <g id="text_25">
    <g id="patch_96">
     <path d="M 506.802952 229.184852 
C 510.418416 229.184852 513.886287 227.748413 516.442806 225.191894 
C 518.999325 222.635374 520.435765 219.167504 520.435765 215.552039 
C 520.435765 211.936575 518.999325 208.468704 516.442806 205.912185 
C 513.886287 203.355666 510.418416 201.919227 506.802952 201.919227 
C 503.187488 201.919227 499.719617 203.355666 497.163098 205.912185 
C 494.606579 208.468704 493.17014 211.936575 493.17014 215.552039 
C 493.17014 219.167504 494.606579 222.635374 497.163098 225.191894 
C 499.719617 227.748413 503.187488 229.184852 506.802952 229.184852 
z
" style="fill: #f7f6f7; stroke: #f7f6f7; stroke-linejoin: miter"/>
    </g>
    <!-- 0.46 -->
    <g transform="translate(495.67014 218.311414) scale(0.1 -0.1)">
     <use xlink:href="#DejaVuSans-30"/>
     <use xlink:href="#DejaVuSans-2e" x="63.623047"/>
     <use xlink:href="#DejaVuSans-34" x="95.410156"/>
     <use xlink:href="#DejaVuSans-36" x="159.033203"/>
    </g>
   </g>
   <g id="text_26">
    <g id="patch_97">
     <path d="M 568.972694 229.184852 
C 572.588158 229.184852 576.056029 227.748413 578.612548 225.191894 
C 581.169067 222.635374 582.605506 219.167504 582.605506 215.552039 
C 582.605506 211.936575 581.169067 208.468704 578.612548 205.912185 
C 576.056029 203.355666 572.588158 201.919227 568.972694 201.919227 
C 565.35723 201.919227 561.889359 203.355666 559.33284 205.912185 
C 556.77632 208.468704 555.339881 211.936575 555.339881 215.552039 
C 555.339881 219.167504 556.77632 222.635374 559.33284 225.191894 
C 561.889359 227.748413 565.35723 229.184852 568.972694 229.184852 
z
" style="fill: #9970ab; stroke: #9970ab; stroke-linejoin: miter"/>
    </g>
    <!-- 0.92 -->
    <g style="fill: #ffffff" transform="translate(557.839881 218.311414) scale(0.1 -0.1)">
     <use xlink:href="#DejaVuSans-30"/>
     <use xlink:href="#DejaVuSans-2e" x="63.623047"/>
     <use xlink:href="#DejaVuSans-39" x="95.410156"/>
     <use xlink:href="#DejaVuSans-32" x="159.033203"/>
    </g>
   </g>
   <g id="text_27">
    <g id="patch_98">
     <path d="M 631.142435 229.184852 
C 634.7579 229.184852 638.22577 227.748413 640.78229 225.191894 
C 643.338809 222.635374 644.775248 219.167504 644.775248 215.552039 
C 644.775248 211.936575 643.338809 208.468704 640.78229 205.912185 
C 638.22577 203.355666 634.7579 201.919227 631.142435 201.919227 
C 627.526971 201.919227 624.0591 203.355666 621.502581 205.912185 
C 618.946062 208.468704 617.509623 211.936575 617.509623 215.552039 
C 617.509623 219.167504 618.946062 222.635374 621.502581 225.191894 
C 624.0591 227.748413 627.526971 229.184852 631.142435 229.184852 
z
" style="fill: #f2f6f1; stroke: #f2f6f1; stroke-linejoin: miter"/>
    </g>
    <!-- 0.90 -->
    <g transform="translate(620.009623 218.311414) scale(0.1 -0.1)">
     <use xlink:href="#DejaVuSans-30"/>
     <use xlink:href="#DejaVuSans-2e" x="63.623047"/>
     <use xlink:href="#DejaVuSans-39" x="95.410156"/>
     <use xlink:href="#DejaVuSans-30" x="159.033203"/>
    </g>
   </g>
   <g id="text_28">
    <g id="patch_99">
     <path d="M 693.312177 229.184852 
C 696.927641 229.184852 700.395512 227.748413 702.952031 225.191894 
C 705.50855 222.635374 706.94499 219.167504 706.94499 215.552039 
C 706.94499 211.936575 705.50855 208.468704 702.952031 205.912185 
C 700.395512 203.355666 696.927641 201.919227 693.312177 201.919227 
C 689.696713 201.919227 686.228842 203.355666 683.672323 205.912185 
C 681.115804 208.468704 679.679365 211.936575 679.679365 215.552039 
C 679.679365 219.167504 681.115804 222.635374 683.672323 225.191894 
C 686.228842 227.748413 689.696713 229.184852 693.312177 229.184852 
z
" style="fill: #dbf1d6; stroke: #dbf1d6; stroke-linejoin: miter"/>
    </g>
    <!-- 0.14 -->
    <g transform="translate(682.179365 218.311414) scale(0.1 -0.1)">
     <use xlink:href="#DejaVuSans-30"/>
     <use xlink:href="#DejaVuSans-2e" x="63.623047"/>
     <use xlink:href="#DejaVuSans-31" x="95.410156"/>
     <use xlink:href="#DejaVuSans-34" x="159.033203"/>
    </g>
   </g>
   <g id="text_29">
    <g id="patch_100">
     <path d="M 755.481919 229.184852 
C 759.097383 229.184852 762.565254 227.748413 765.121773 225.191894 
C 767.678292 222.635374 769.114731 219.167504 769.114731 215.552039 
C 769.114731 211.936575 767.678292 208.468704 765.121773 205.912185 
C 762.565254 203.355666 759.097383 201.919227 755.481919 201.919227 
C 751.866455 201.919227 748.398584 203.355666 745.842065 205.912185 
C 743.285545 208.468704 741.849106 211.936575 741.849106 215.552039 
C 741.849106 219.167504 743.285545 222.635374 745.842065 225.191894 
C 748.398584 227.748413 751.866455 229.184852 755.481919 229.184852 
z
" style="fill: #f6f7f6; stroke: #f6f7f6; stroke-linejoin: miter"/>
    </g>
    <!-- 0.50 -->
    <g transform="translate(744.349106 218.311414) scale(0.1 -0.1)">
     <use xlink:href="#DejaVuSans-30"/>
     <use xlink:href="#DejaVuSans-2e" x="63.623047"/>
     <use xlink:href="#DejaVuSans-35" x="95.410156"/>
     <use xlink:href="#DejaVuSans-30" x="159.033203"/>
    </g>
   </g>
   <g id="text_30">
    <g id="patch_101">
     <path d="M 817.651661 229.184852 
C 821.267125 229.184852 824.734995 227.748413 827.291515 225.191894 
C 829.848034 222.635374 831.284473 219.167504 831.284473 215.552039 
C 831.284473 211.936575 829.848034 208.468704 827.291515 205.912185 
C 824.734995 203.355666 821.267125 201.919227 817.651661 201.919227 
C 814.036196 201.919227 810.568326 203.355666 808.011806 205.912185 
C 805.455287 208.468704 804.018848 211.936575 804.018848 215.552039 
C 804.018848 219.167504 805.455287 222.635374 808.011806 225.191894 
C 810.568326 227.748413 814.036196 229.184852 817.651661 229.184852 
z
" style="fill: #8a529a; stroke: #8a529a; stroke-linejoin: miter"/>
    </g>
    <!-- 0.31 -->
    <g style="fill: #ffffff" transform="translate(806.518848 218.311414) scale(0.1 -0.1)">
     <use xlink:href="#DejaVuSans-30"/>
     <use xlink:href="#DejaVuSans-2e" x="63.623047"/>
     <use xlink:href="#DejaVuSans-33" x="95.410156"/>
     <use xlink:href="#DejaVuSans-31" x="159.033203"/>
    </g>
   </g>
   <g id="text_31">
    <!-- Method -->
    <g style="fill: #262626" transform="translate(205.279705 92.158902) scale(0.1 -0.1)">
     <defs>
      <path id="DejaVuSans-Bold-4d" d="M 588 4666 
L 2119 4666 
L 3181 2169 
L 4250 4666 
L 5778 4666 
L 5778 0 
L 4641 0 
L 4641 3413 
L 3566 897 
L 2803 897 
L 1728 3413 
L 1728 0 
L 588 0 
L 588 4666 
z
" transform="scale(0.015625)"/>
      <path id="DejaVuSans-Bold-74" d="M 1759 4494 
L 1759 3500 
L 2913 3500 
L 2913 2700 
L 1759 2700 
L 1759 1216 
Q 1759 972 1856 886 
Q 1953 800 2241 800 
L 2816 800 
L 2816 0 
L 1856 0 
Q 1194 0 917 276 
Q 641 553 641 1216 
L 641 2700 
L 84 2700 
L 84 3500 
L 641 3500 
L 641 4494 
L 1759 4494 
z
" transform="scale(0.015625)"/>
      <path id="DejaVuSans-Bold-68" d="M 4056 2131 
L 4056 0 
L 2931 0 
L 2931 347 
L 2931 1625 
Q 2931 2084 2911 2256 
Q 2891 2428 2841 2509 
Q 2775 2619 2662 2680 
Q 2550 2741 2406 2741 
Q 2056 2741 1856 2470 
Q 1656 2200 1656 1722 
L 1656 0 
L 538 0 
L 538 4863 
L 1656 4863 
L 1656 2988 
Q 1909 3294 2193 3439 
Q 2478 3584 2822 3584 
Q 3428 3584 3742 3212 
Q 4056 2841 4056 2131 
z
" transform="scale(0.015625)"/>
      <path id="DejaVuSans-Bold-6f" d="M 2203 2784 
Q 1831 2784 1636 2517 
Q 1441 2250 1441 1747 
Q 1441 1244 1636 976 
Q 1831 709 2203 709 
Q 2569 709 2762 976 
Q 2956 1244 2956 1747 
Q 2956 2250 2762 2517 
Q 2569 2784 2203 2784 
z
M 2203 3584 
Q 3106 3584 3614 3096 
Q 4122 2609 4122 1747 
Q 4122 884 3614 396 
Q 3106 -91 2203 -91 
Q 1297 -91 786 396 
Q 275 884 275 1747 
Q 275 2609 786 3096 
Q 1297 3584 2203 3584 
z
" transform="scale(0.015625)"/>
      <path id="DejaVuSans-Bold-64" d="M 2919 2988 
L 2919 4863 
L 4044 4863 
L 4044 0 
L 2919 0 
L 2919 506 
Q 2688 197 2409 53 
Q 2131 -91 1766 -91 
Q 1119 -91 703 423 
Q 288 938 288 1747 
Q 288 2556 703 3070 
Q 1119 3584 1766 3584 
Q 2128 3584 2408 3439 
Q 2688 3294 2919 2988 
z
M 2181 722 
Q 2541 722 2730 984 
Q 2919 1247 2919 1747 
Q 2919 2247 2730 2509 
Q 2541 2772 2181 2772 
Q 1825 2772 1636 2509 
Q 1447 2247 1447 1747 
Q 1447 1247 1636 984 
Q 1825 722 2181 722 
z
" transform="scale(0.015625)"/>
     </defs>
     <use xlink:href="#DejaVuSans-Bold-4d"/>
     <use xlink:href="#DejaVuSans-Bold-65" x="99.511719"/>
     <use xlink:href="#DejaVuSans-Bold-74" x="167.333984"/>
     <use xlink:href="#DejaVuSans-Bold-68" x="215.136719"/>
     <use xlink:href="#DejaVuSans-Bold-6f" x="286.328125"/>
     <use xlink:href="#DejaVuSans-Bold-64" x="355.029297"/>
    </g>
   </g>
   <g id="text_32">
    <!-- Isolated -->
    <g style="fill: #262626" transform="translate(300.490602 86.559996) scale(0.1 -0.1)">
     <defs>
      <path id="DejaVuSans-49" d="M 628 4666 
L 1259 4666 
L 1259 0 
L 628 0 
L 628 4666 
z
" transform="scale(0.015625)"/>
      <path id="DejaVuSans-73" d="M 2834 3397 
L 2834 2853 
Q 2591 2978 2328 3040 
Q 2066 3103 1784 3103 
Q 1356 3103 1142 2972 
Q 928 2841 928 2578 
Q 928 2378 1081 2264 
Q 1234 2150 1697 2047 
L 1894 2003 
Q 2506 1872 2764 1633 
Q 3022 1394 3022 966 
Q 3022 478 2636 193 
Q 2250 -91 1575 -91 
Q 1294 -91 989 -36 
Q 684 19 347 128 
L 347 722 
Q 666 556 975 473 
Q 1284 391 1588 391 
Q 1994 391 2212 530 
Q 2431 669 2431 922 
Q 2431 1156 2273 1281 
Q 2116 1406 1581 1522 
L 1381 1569 
Q 847 1681 609 1914 
Q 372 2147 372 2553 
Q 372 3047 722 3315 
Q 1072 3584 1716 3584 
Q 2034 3584 2315 3537 
Q 2597 3491 2834 3397 
z
" transform="scale(0.015625)"/>
      <path id="DejaVuSans-6f" d="M 1959 3097 
Q 1497 3097 1228 2736 
Q 959 2375 959 1747 
Q 959 1119 1226 758 
Q 1494 397 1959 397 
Q 2419 397 2687 759 
Q 2956 1122 2956 1747 
Q 2956 2369 2687 2733 
Q 2419 3097 1959 3097 
z
M 1959 3584 
Q 2709 3584 3137 3096 
Q 3566 2609 3566 1747 
Q 3566 888 3137 398 
Q 2709 -91 1959 -91 
Q 1206 -91 779 398 
Q 353 888 353 1747 
Q 353 2609 779 3096 
Q 1206 3584 1959 3584 
z
" transform="scale(0.015625)"/>
      <path id="DejaVuSans-6c" d="M 603 4863 
L 1178 4863 
L 1178 0 
L 603 0 
L 603 4863 
z
" transform="scale(0.015625)"/>
      <path id="DejaVuSans-61" d="M 2194 1759 
Q 1497 1759 1228 1600 
Q 959 1441 959 1056 
Q 959 750 1161 570 
Q 1363 391 1709 391 
Q 2188 391 2477 730 
Q 2766 1069 2766 1631 
L 2766 1759 
L 2194 1759 
z
M 3341 1997 
L 3341 0 
L 2766 0 
L 2766 531 
Q 2569 213 2275 61 
Q 1981 -91 1556 -91 
Q 1019 -91 701 211 
Q 384 513 384 1019 
Q 384 1609 779 1909 
Q 1175 2209 1959 2209 
L 2766 2209 
L 2766 2266 
Q 2766 2663 2505 2880 
Q 2244 3097 1772 3097 
Q 1472 3097 1187 3025 
Q 903 2953 641 2809 
L 641 3341 
Q 956 3463 1253 3523 
Q 1550 3584 1831 3584 
Q 2591 3584 2966 3190 
Q 3341 2797 3341 1997 
z
" transform="scale(0.015625)"/>
      <path id="DejaVuSans-74" d="M 1172 4494 
L 1172 3500 
L 2356 3500 
L 2356 3053 
L 1172 3053 
L 1172 1153 
Q 1172 725 1289 603 
Q 1406 481 1766 481 
L 2356 481 
L 2356 0 
L 1766 0 
Q 1100 0 847 248 
Q 594 497 594 1153 
L 594 3053 
L 172 3053 
L 172 3500 
L 594 3500 
L 594 4494 
L 1172 4494 
z
" transform="scale(0.015625)"/>
      <path id="DejaVuSans-65" d="M 3597 1894 
L 3597 1613 
L 953 1613 
Q 991 1019 1311 708 
Q 1631 397 2203 397 
Q 2534 397 2845 478 
Q 3156 559 3463 722 
L 3463 178 
Q 3153 47 2828 -22 
Q 2503 -91 2169 -91 
Q 1331 -91 842 396 
Q 353 884 353 1716 
Q 353 2575 817 3079 
Q 1281 3584 2069 3584 
Q 2775 3584 3186 3129 
Q 3597 2675 3597 1894 
z
M 3022 2063 
Q 3016 2534 2758 2815 
Q 2500 3097 2075 3097 
Q 1594 3097 1305 2825 
Q 1016 2553 972 2059 
L 3022 2063 
z
" transform="scale(0.015625)"/>
      <path id="DejaVuSans-64" d="M 2906 2969 
L 2906 4863 
L 3481 4863 
L 3481 0 
L 2906 0 
L 2906 525 
Q 2725 213 2448 61 
Q 2172 -91 1784 -91 
Q 1150 -91 751 415 
Q 353 922 353 1747 
Q 353 2572 751 3078 
Q 1150 3584 1784 3584 
Q 2172 3584 2448 3432 
Q 2725 3281 2906 2969 
z
M 947 1747 
Q 947 1113 1208 752 
Q 1469 391 1925 391 
Q 2381 391 2643 752 
Q 2906 1113 2906 1747 
Q 2906 2381 2643 2742 
Q 2381 3103 1925 3103 
Q 1469 3103 1208 2742 
Q 947 2381 947 1747 
z
" transform="scale(0.015625)"/>
     </defs>
     <use xlink:href="#DejaVuSans-49"/>
     <use xlink:href="#DejaVuSans-73" x="29.492188"/>
     <use xlink:href="#DejaVuSans-6f" x="81.591797"/>
     <use xlink:href="#DejaVuSans-6c" x="142.773438"/>
     <use xlink:href="#DejaVuSans-61" x="170.556641"/>
     <use xlink:href="#DejaVuSans-74" x="231.835938"/>
     <use xlink:href="#DejaVuSans-65" x="271.044922"/>
     <use xlink:href="#DejaVuSans-64" x="332.568359"/>
    </g>
    <!-- labels -->
    <g style="fill: #262626" transform="translate(305.596071 97.757808) scale(0.1 -0.1)">
     <defs>
      <path id="DejaVuSans-62" d="M 3116 1747 
Q 3116 2381 2855 2742 
Q 2594 3103 2138 3103 
Q 1681 3103 1420 2742 
Q 1159 2381 1159 1747 
Q 1159 1113 1420 752 
Q 1681 391 2138 391 
Q 2594 391 2855 752 
Q 3116 1113 3116 1747 
z
M 1159 2969 
Q 1341 3281 1617 3432 
Q 1894 3584 2278 3584 
Q 2916 3584 3314 3078 
Q 3713 2572 3713 1747 
Q 3713 922 3314 415 
Q 2916 -91 2278 -91 
Q 1894 -91 1617 61 
Q 1341 213 1159 525 
L 1159 0 
L 581 0 
L 581 4863 
L 1159 4863 
L 1159 2969 
z
" transform="scale(0.015625)"/>
     </defs>
     <use xlink:href="#DejaVuSans-6c"/>
     <use xlink:href="#DejaVuSans-61" x="27.783203"/>
     <use xlink:href="#DejaVuSans-62" x="89.0625"/>
     <use xlink:href="#DejaVuSans-65" x="152.539062"/>
     <use xlink:href="#DejaVuSans-6c" x="214.0625"/>
     <use xlink:href="#DejaVuSans-73" x="241.845703"/>
    </g>
   </g>
   <g id="text_33">
    <!-- Leiden -->
    <g style="fill: #262626" transform="translate(365.879875 86.559996) scale(0.1 -0.1)">
     <defs>
      <path id="DejaVuSans-4c" d="M 628 4666 
L 1259 4666 
L 1259 531 
L 3531 531 
L 3531 0 
L 628 0 
L 628 4666 
z
" transform="scale(0.015625)"/>
      <path id="DejaVuSans-69" d="M 603 3500 
L 1178 3500 
L 1178 0 
L 603 0 
L 603 3500 
z
M 603 4863 
L 1178 4863 
L 1178 4134 
L 603 4134 
L 603 4863 
z
" transform="scale(0.015625)"/>
      <path id="DejaVuSans-6e" d="M 3513 2113 
L 3513 0 
L 2938 0 
L 2938 2094 
Q 2938 2591 2744 2837 
Q 2550 3084 2163 3084 
Q 1697 3084 1428 2787 
Q 1159 2491 1159 1978 
L 1159 0 
L 581 0 
L 581 3500 
L 1159 3500 
L 1159 2956 
Q 1366 3272 1645 3428 
Q 1925 3584 2291 3584 
Q 2894 3584 3203 3211 
Q 3513 2838 3513 2113 
z
" transform="scale(0.015625)"/>
     </defs>
     <use xlink:href="#DejaVuSans-4c"/>
     <use xlink:href="#DejaVuSans-65" x="53.962891"/>
     <use xlink:href="#DejaVuSans-69" x="115.486328"/>
     <use xlink:href="#DejaVuSans-64" x="143.269531"/>
     <use xlink:href="#DejaVuSans-65" x="206.746094"/>
     <use xlink:href="#DejaVuSans-6e" x="268.269531"/>
    </g>
    <!-- NMI -->
    <g style="fill: #262626" transform="translate(372.933781 97.757808) scale(0.1 -0.1)">
     <defs>
      <path id="DejaVuSans-4e" d="M 628 4666 
L 1478 4666 
L 3547 763 
L 3547 4666 
L 4159 4666 
L 4159 0 
L 3309 0 
L 1241 3903 
L 1241 0 
L 628 0 
L 628 4666 
z
" transform="scale(0.015625)"/>
      <path id="DejaVuSans-4d" d="M 628 4666 
L 1569 4666 
L 2759 1491 
L 3956 4666 
L 4897 4666 
L 4897 0 
L 4281 0 
L 4281 4097 
L 3078 897 
L 2444 897 
L 1241 4097 
L 1241 0 
L 628 0 
L 628 4666 
z
" transform="scale(0.015625)"/>
     </defs>
     <use xlink:href="#DejaVuSans-4e"/>
     <use xlink:href="#DejaVuSans-4d" x="74.804688"/>
     <use xlink:href="#DejaVuSans-49" x="161.083984"/>
    </g>
   </g>
   <g id="text_34">
    <!-- Leiden -->
    <g style="fill: #262626" transform="translate(428.049617 86.559996) scale(0.1 -0.1)">
     <use xlink:href="#DejaVuSans-4c"/>
     <use xlink:href="#DejaVuSans-65" x="53.962891"/>
     <use xlink:href="#DejaVuSans-69" x="115.486328"/>
     <use xlink:href="#DejaVuSans-64" x="143.269531"/>
     <use xlink:href="#DejaVuSans-65" x="206.746094"/>
     <use xlink:href="#DejaVuSans-6e" x="268.269531"/>
    </g>
    <!-- ARI -->
    <g style="fill: #262626" transform="translate(436.263679 97.757808) scale(0.1 -0.1)">
     <defs>
      <path id="DejaVuSans-41" d="M 2188 4044 
L 1331 1722 
L 3047 1722 
L 2188 4044 
z
M 1831 4666 
L 2547 4666 
L 4325 0 
L 3669 0 
L 3244 1197 
L 1141 1197 
L 716 0 
L 50 0 
L 1831 4666 
z
" transform="scale(0.015625)"/>
      <path id="DejaVuSans-52" d="M 2841 2188 
Q 3044 2119 3236 1894 
Q 3428 1669 3622 1275 
L 4263 0 
L 3584 0 
L 2988 1197 
Q 2756 1666 2539 1819 
Q 2322 1972 1947 1972 
L 1259 1972 
L 1259 0 
L 628 0 
L 628 4666 
L 2053 4666 
Q 2853 4666 3247 4331 
Q 3641 3997 3641 3322 
Q 3641 2881 3436 2590 
Q 3231 2300 2841 2188 
z
M 1259 4147 
L 1259 2491 
L 2053 2491 
Q 2509 2491 2742 2702 
Q 2975 2913 2975 3322 
Q 2975 3731 2742 3939 
Q 2509 4147 2053 4147 
L 1259 4147 
z
" transform="scale(0.015625)"/>
     </defs>
     <use xlink:href="#DejaVuSans-41"/>
     <use xlink:href="#DejaVuSans-52" x="68.408203"/>
     <use xlink:href="#DejaVuSans-49" x="137.890625"/>
    </g>
   </g>
   <g id="text_35">
    <!-- Silhouette -->
    <g style="fill: #262626" transform="translate(481.380296 86.559996) scale(0.1 -0.1)">
     <defs>
      <path id="DejaVuSans-53" d="M 3425 4513 
L 3425 3897 
Q 3066 4069 2747 4153 
Q 2428 4238 2131 4238 
Q 1616 4238 1336 4038 
Q 1056 3838 1056 3469 
Q 1056 3159 1242 3001 
Q 1428 2844 1947 2747 
L 2328 2669 
Q 3034 2534 3370 2195 
Q 3706 1856 3706 1288 
Q 3706 609 3251 259 
Q 2797 -91 1919 -91 
Q 1588 -91 1214 -16 
Q 841 59 441 206 
L 441 856 
Q 825 641 1194 531 
Q 1563 422 1919 422 
Q 2459 422 2753 634 
Q 3047 847 3047 1241 
Q 3047 1584 2836 1778 
Q 2625 1972 2144 2069 
L 1759 2144 
Q 1053 2284 737 2584 
Q 422 2884 422 3419 
Q 422 4038 858 4394 
Q 1294 4750 2059 4750 
Q 2388 4750 2728 4690 
Q 3069 4631 3425 4513 
z
" transform="scale(0.015625)"/>
      <path id="DejaVuSans-68" d="M 3513 2113 
L 3513 0 
L 2938 0 
L 2938 2094 
Q 2938 2591 2744 2837 
Q 2550 3084 2163 3084 
Q 1697 3084 1428 2787 
Q 1159 2491 1159 1978 
L 1159 0 
L 581 0 
L 581 4863 
L 1159 4863 
L 1159 2956 
Q 1366 3272 1645 3428 
Q 1925 3584 2291 3584 
Q 2894 3584 3203 3211 
Q 3513 2838 3513 2113 
z
" transform="scale(0.015625)"/>
      <path id="DejaVuSans-75" d="M 544 1381 
L 544 3500 
L 1119 3500 
L 1119 1403 
Q 1119 906 1312 657 
Q 1506 409 1894 409 
Q 2359 409 2629 706 
Q 2900 1003 2900 1516 
L 2900 3500 
L 3475 3500 
L 3475 0 
L 2900 0 
L 2900 538 
Q 2691 219 2414 64 
Q 2138 -91 1772 -91 
Q 1169 -91 856 284 
Q 544 659 544 1381 
z
M 1991 3584 
L 1991 3584 
z
" transform="scale(0.015625)"/>
     </defs>
     <use xlink:href="#DejaVuSans-53"/>
     <use xlink:href="#DejaVuSans-69" x="63.476562"/>
     <use xlink:href="#DejaVuSans-6c" x="91.259766"/>
     <use xlink:href="#DejaVuSans-68" x="119.042969"/>
     <use xlink:href="#DejaVuSans-6f" x="182.421875"/>
     <use xlink:href="#DejaVuSans-75" x="243.603516"/>
     <use xlink:href="#DejaVuSans-65" x="306.982422"/>
     <use xlink:href="#DejaVuSans-74" x="368.505859"/>
     <use xlink:href="#DejaVuSans-74" x="407.714844"/>
     <use xlink:href="#DejaVuSans-65" x="446.923828"/>
    </g>
    <!-- label -->
    <g style="fill: #262626" transform="translate(494.709983 97.757808) scale(0.1 -0.1)">
     <use xlink:href="#DejaVuSans-6c"/>
     <use xlink:href="#DejaVuSans-61" x="27.783203"/>
     <use xlink:href="#DejaVuSans-62" x="89.0625"/>
     <use xlink:href="#DejaVuSans-65" x="152.539062"/>
     <use xlink:href="#DejaVuSans-6c" x="214.0625"/>
    </g>
   </g>
   <g id="text_36">
    <!-- cLISI -->
    <g style="fill: #262626" transform="translate(557.313319 92.158902) scale(0.1 -0.1)">
     <defs>
      <path id="DejaVuSans-63" d="M 3122 3366 
L 3122 2828 
Q 2878 2963 2633 3030 
Q 2388 3097 2138 3097 
Q 1578 3097 1268 2742 
Q 959 2388 959 1747 
Q 959 1106 1268 751 
Q 1578 397 2138 397 
Q 2388 397 2633 464 
Q 2878 531 3122 666 
L 3122 134 
Q 2881 22 2623 -34 
Q 2366 -91 2075 -91 
Q 1284 -91 818 406 
Q 353 903 353 1747 
Q 353 2603 823 3093 
Q 1294 3584 2113 3584 
Q 2378 3584 2631 3529 
Q 2884 3475 3122 3366 
z
" transform="scale(0.015625)"/>
     </defs>
     <use xlink:href="#DejaVuSans-63"/>
     <use xlink:href="#DejaVuSans-4c" x="54.980469"/>
     <use xlink:href="#DejaVuSans-49" x="110.693359"/>
     <use xlink:href="#DejaVuSans-53" x="140.185547"/>
     <use xlink:href="#DejaVuSans-49" x="203.662109"/>
    </g>
   </g>
   <g id="text_37">
    <!-- Silhouette -->
    <g style="fill: #262626" transform="translate(605.719779 86.559996) scale(0.1 -0.1)">
     <use xlink:href="#DejaVuSans-53"/>
     <use xlink:href="#DejaVuSans-69" x="63.476562"/>
     <use xlink:href="#DejaVuSans-6c" x="91.259766"/>
     <use xlink:href="#DejaVuSans-68" x="119.042969"/>
     <use xlink:href="#DejaVuSans-6f" x="182.421875"/>
     <use xlink:href="#DejaVuSans-75" x="243.603516"/>
     <use xlink:href="#DejaVuSans-65" x="306.982422"/>
     <use xlink:href="#DejaVuSans-74" x="368.505859"/>
     <use xlink:href="#DejaVuSans-74" x="407.714844"/>
     <use xlink:href="#DejaVuSans-65" x="446.923828"/>
    </g>
    <!-- batch -->
    <g style="fill: #262626" transform="translate(617.026029 97.757808) scale(0.1 -0.1)">
     <use xlink:href="#DejaVuSans-62"/>
     <use xlink:href="#DejaVuSans-61" x="63.476562"/>
     <use xlink:href="#DejaVuSans-74" x="124.755859"/>
     <use xlink:href="#DejaVuSans-63" x="163.964844"/>
     <use xlink:href="#DejaVuSans-68" x="218.945312"/>
    </g>
   </g>
   <g id="text_38">
    <!-- iLISI -->
    <g style="fill: #262626" transform="translate(683.012958 92.158902) scale(0.1 -0.1)">
     <use xlink:href="#DejaVuSans-69"/>
     <use xlink:href="#DejaVuSans-4c" x="27.783203"/>
     <use xlink:href="#DejaVuSans-49" x="83.496094"/>
     <use xlink:href="#DejaVuSans-53" x="112.988281"/>
     <use xlink:href="#DejaVuSans-49" x="176.464844"/>
    </g>
   </g>
   <g id="text_39">
    <!-- KBET -->
    <g style="fill: #262626" transform="translate(742.559263 92.158902) scale(0.1 -0.1)">
     <defs>
      <path id="DejaVuSans-4b" d="M 628 4666 
L 1259 4666 
L 1259 2694 
L 3353 4666 
L 4166 4666 
L 1850 2491 
L 4331 0 
L 3500 0 
L 1259 2247 
L 1259 0 
L 628 0 
L 628 4666 
z
" transform="scale(0.015625)"/>
      <path id="DejaVuSans-42" d="M 1259 2228 
L 1259 519 
L 2272 519 
Q 2781 519 3026 730 
Q 3272 941 3272 1375 
Q 3272 1813 3026 2020 
Q 2781 2228 2272 2228 
L 1259 2228 
z
M 1259 4147 
L 1259 2741 
L 2194 2741 
Q 2656 2741 2882 2914 
Q 3109 3088 3109 3444 
Q 3109 3797 2882 3972 
Q 2656 4147 2194 4147 
L 1259 4147 
z
M 628 4666 
L 2241 4666 
Q 2963 4666 3353 4366 
Q 3744 4066 3744 3513 
Q 3744 3084 3544 2831 
Q 3344 2578 2956 2516 
Q 3422 2416 3680 2098 
Q 3938 1781 3938 1306 
Q 3938 681 3513 340 
Q 3088 0 2303 0 
L 628 0 
L 628 4666 
z
" transform="scale(0.015625)"/>
      <path id="DejaVuSans-45" d="M 628 4666 
L 3578 4666 
L 3578 4134 
L 1259 4134 
L 1259 2753 
L 3481 2753 
L 3481 2222 
L 1259 2222 
L 1259 531 
L 3634 531 
L 3634 0 
L 628 0 
L 628 4666 
z
" transform="scale(0.015625)"/>
      <path id="DejaVuSans-54" d="M -19 4666 
L 3928 4666 
L 3928 4134 
L 2272 4134 
L 2272 0 
L 1638 0 
L 1638 4134 
L -19 4134 
L -19 4666 
z
" transform="scale(0.015625)"/>
     </defs>
     <use xlink:href="#DejaVuSans-4b"/>
     <use xlink:href="#DejaVuSans-42" x="65.576172"/>
     <use xlink:href="#DejaVuSans-45" x="134.179688"/>
     <use xlink:href="#DejaVuSans-54" x="197.363281"/>
    </g>
   </g>
   <g id="text_40">
    <!-- Graph -->
    <g style="fill: #262626" transform="translate(802.314942 86.559996) scale(0.1 -0.1)">
     <defs>
      <path id="DejaVuSans-47" d="M 3809 666 
L 3809 1919 
L 2778 1919 
L 2778 2438 
L 4434 2438 
L 4434 434 
Q 4069 175 3628 42 
Q 3188 -91 2688 -91 
Q 1594 -91 976 548 
Q 359 1188 359 2328 
Q 359 3472 976 4111 
Q 1594 4750 2688 4750 
Q 3144 4750 3555 4637 
Q 3966 4525 4313 4306 
L 4313 3634 
Q 3963 3931 3569 4081 
Q 3175 4231 2741 4231 
Q 1884 4231 1454 3753 
Q 1025 3275 1025 2328 
Q 1025 1384 1454 906 
Q 1884 428 2741 428 
Q 3075 428 3337 486 
Q 3600 544 3809 666 
z
" transform="scale(0.015625)"/>
      <path id="DejaVuSans-72" d="M 2631 2963 
Q 2534 3019 2420 3045 
Q 2306 3072 2169 3072 
Q 1681 3072 1420 2755 
Q 1159 2438 1159 1844 
L 1159 0 
L 581 0 
L 581 3500 
L 1159 3500 
L 1159 2956 
Q 1341 3275 1631 3429 
Q 1922 3584 2338 3584 
Q 2397 3584 2469 3576 
Q 2541 3569 2628 3553 
L 2631 2963 
z
" transform="scale(0.015625)"/>
      <path id="DejaVuSans-70" d="M 1159 525 
L 1159 -1331 
L 581 -1331 
L 581 3500 
L 1159 3500 
L 1159 2969 
Q 1341 3281 1617 3432 
Q 1894 3584 2278 3584 
Q 2916 3584 3314 3078 
Q 3713 2572 3713 1747 
Q 3713 922 3314 415 
Q 2916 -91 2278 -91 
Q 1894 -91 1617 61 
Q 1341 213 1159 525 
z
M 3116 1747 
Q 3116 2381 2855 2742 
Q 2594 3103 2138 3103 
Q 1681 3103 1420 2742 
Q 1159 2381 1159 1747 
Q 1159 1113 1420 752 
Q 1681 391 2138 391 
Q 2594 391 2855 752 
Q 3116 1113 3116 1747 
z
" transform="scale(0.015625)"/>
     </defs>
     <use xlink:href="#DejaVuSans-47"/>
     <use xlink:href="#DejaVuSans-72" x="77.490234"/>
     <use xlink:href="#DejaVuSans-61" x="118.603516"/>
     <use xlink:href="#DejaVuSans-70" x="179.882812"/>
     <use xlink:href="#DejaVuSans-68" x="243.359375"/>
    </g>
    <!-- connectivity -->
    <g style="fill: #262626" transform="translate(787.062598 97.757808) scale(0.1 -0.1)">
     <defs>
      <path id="DejaVuSans-76" d="M 191 3500 
L 800 3500 
L 1894 563 
L 2988 3500 
L 3597 3500 
L 2284 0 
L 1503 0 
L 191 3500 
z
" transform="scale(0.015625)"/>
      <path id="DejaVuSans-79" d="M 2059 -325 
Q 1816 -950 1584 -1140 
Q 1353 -1331 966 -1331 
L 506 -1331 
L 506 -850 
L 844 -850 
Q 1081 -850 1212 -737 
Q 1344 -625 1503 -206 
L 1606 56 
L 191 3500 
L 800 3500 
L 1894 763 
L 2988 3500 
L 3597 3500 
L 2059 -325 
z
" transform="scale(0.015625)"/>
     </defs>
     <use xlink:href="#DejaVuSans-63"/>
     <use xlink:href="#DejaVuSans-6f" x="54.980469"/>
     <use xlink:href="#DejaVuSans-6e" x="116.162109"/>
     <use xlink:href="#DejaVuSans-6e" x="179.541016"/>
     <use xlink:href="#DejaVuSans-65" x="242.919922"/>
     <use xlink:href="#DejaVuSans-63" x="304.443359"/>
     <use xlink:href="#DejaVuSans-74" x="359.423828"/>
     <use xlink:href="#DejaVuSans-69" x="398.632812"/>
     <use xlink:href="#DejaVuSans-76" x="426.416016"/>
     <use xlink:href="#DejaVuSans-69" x="485.595703"/>
     <use xlink:href="#DejaVuSans-74" x="513.378906"/>
     <use xlink:href="#DejaVuSans-79" x="552.587891"/>
    </g>
   </g>
   <g id="text_41">
    <!-- Batch -->
    <g style="fill: #262626" transform="translate(865.448746 86.559996) scale(0.1 -0.1)">
     <use xlink:href="#DejaVuSans-42"/>
     <use xlink:href="#DejaVuSans-61" x="68.603516"/>
     <use xlink:href="#DejaVuSans-74" x="129.882812"/>
     <use xlink:href="#DejaVuSans-63" x="169.091797"/>
     <use xlink:href="#DejaVuSans-68" x="224.072266"/>
    </g>
    <!-- correction -->
    <g style="fill: #262626" transform="translate(854.698746 97.757808) scale(0.1 -0.1)">
     <use xlink:href="#DejaVuSans-63"/>
     <use xlink:href="#DejaVuSans-6f" x="54.980469"/>
     <use xlink:href="#DejaVuSans-72" x="116.162109"/>
     <use xlink:href="#DejaVuSans-72" x="155.525391"/>
     <use xlink:href="#DejaVuSans-65" x="194.388672"/>
     <use xlink:href="#DejaVuSans-63" x="255.912109"/>
     <use xlink:href="#DejaVuSans-74" x="310.892578"/>
     <use xlink:href="#DejaVuSans-69" x="350.101562"/>
     <use xlink:href="#DejaVuSans-6f" x="377.884766"/>
     <use xlink:href="#DejaVuSans-6e" x="439.066406"/>
    </g>
   </g>
   <g id="text_42">
    <!-- Bio -->
    <g style="fill: #262626" transform="translate(934.112238 86.559996) scale(0.1 -0.1)">
     <use xlink:href="#DejaVuSans-42"/>
     <use xlink:href="#DejaVuSans-69" x="68.603516"/>
     <use xlink:href="#DejaVuSans-6f" x="96.386719"/>
    </g>
    <!-- conservation -->
    <g style="fill: #262626" transform="translate(909.6763 97.757808) scale(0.1 -0.1)">
     <use xlink:href="#DejaVuSans-63"/>
     <use xlink:href="#DejaVuSans-6f" x="54.980469"/>
     <use xlink:href="#DejaVuSans-6e" x="116.162109"/>
     <use xlink:href="#DejaVuSans-73" x="179.541016"/>
     <use xlink:href="#DejaVuSans-65" x="231.640625"/>
     <use xlink:href="#DejaVuSans-72" x="293.164062"/>
     <use xlink:href="#DejaVuSans-76" x="334.277344"/>
     <use xlink:href="#DejaVuSans-61" x="393.457031"/>
     <use xlink:href="#DejaVuSans-74" x="454.736328"/>
     <use xlink:href="#DejaVuSans-69" x="493.945312"/>
     <use xlink:href="#DejaVuSans-6f" x="521.728516"/>
     <use xlink:href="#DejaVuSans-6e" x="582.910156"/>
    </g>
   </g>
   <g id="text_43">
    <!-- Total -->
    <g style="fill: #262626" transform="translate(992.484323 92.158902) scale(0.1 -0.1)">
     <use xlink:href="#DejaVuSans-54"/>
     <use xlink:href="#DejaVuSans-6f" x="44.083984"/>
     <use xlink:href="#DejaVuSans-74" x="105.265625"/>
     <use xlink:href="#DejaVuSans-61" x="144.474609"/>
     <use xlink:href="#DejaVuSans-6c" x="205.753906"/>
    </g>
   </g>
   <g id="text_44">
    <!-- Bio conservation -->
    <g style="fill: #262626" transform="translate(402.850398 62.089337) scale(0.1 -0.1)">
     <defs>
      <path id="DejaVuSans-20" transform="scale(0.015625)"/>
     </defs>
     <use xlink:href="#DejaVuSans-42"/>
     <use xlink:href="#DejaVuSans-69" x="68.603516"/>
     <use xlink:href="#DejaVuSans-6f" x="96.386719"/>
     <use xlink:href="#DejaVuSans-20" x="157.568359"/>
     <use xlink:href="#DejaVuSans-63" x="189.355469"/>
     <use xlink:href="#DejaVuSans-6f" x="244.335938"/>
     <use xlink:href="#DejaVuSans-6e" x="305.517578"/>
     <use xlink:href="#DejaVuSans-73" x="368.896484"/>
     <use xlink:href="#DejaVuSans-65" x="420.996094"/>
     <use xlink:href="#DejaVuSans-72" x="482.519531"/>
     <use xlink:href="#DejaVuSans-76" x="523.632812"/>
     <use xlink:href="#DejaVuSans-61" x="582.8125"/>
     <use xlink:href="#DejaVuSans-74" x="644.091797"/>
     <use xlink:href="#DejaVuSans-69" x="683.300781"/>
     <use xlink:href="#DejaVuSans-6f" x="711.083984"/>
     <use xlink:href="#DejaVuSans-6e" x="772.265625"/>
    </g>
   </g>
   <g id="text_45">
    <!-- Batch correction -->
    <g style="fill: #262626" transform="translate(683.312673 62.089337) scale(0.1 -0.1)">
     <use xlink:href="#DejaVuSans-42"/>
     <use xlink:href="#DejaVuSans-61" x="68.603516"/>
     <use xlink:href="#DejaVuSans-74" x="129.882812"/>
     <use xlink:href="#DejaVuSans-63" x="169.091797"/>
     <use xlink:href="#DejaVuSans-68" x="224.072266"/>
     <use xlink:href="#DejaVuSans-20" x="287.451172"/>
     <use xlink:href="#DejaVuSans-63" x="319.238281"/>
     <use xlink:href="#DejaVuSans-6f" x="374.21875"/>
     <use xlink:href="#DejaVuSans-72" x="435.400391"/>
     <use xlink:href="#DejaVuSans-72" x="474.763672"/>
     <use xlink:href="#DejaVuSans-65" x="513.626953"/>
     <use xlink:href="#DejaVuSans-63" x="575.150391"/>
     <use xlink:href="#DejaVuSans-74" x="630.130859"/>
     <use xlink:href="#DejaVuSans-69" x="669.339844"/>
     <use xlink:href="#DejaVuSans-6f" x="697.123047"/>
     <use xlink:href="#DejaVuSans-6e" x="758.304688"/>
    </g>
   </g>
   <g id="text_46">
    <!-- Aggregate score -->
    <g style="fill: #262626" transform="translate(900.905988 62.089337) scale(0.1 -0.1)">
     <defs>
      <path id="DejaVuSans-67" d="M 2906 1791 
Q 2906 2416 2648 2759 
Q 2391 3103 1925 3103 
Q 1463 3103 1205 2759 
Q 947 2416 947 1791 
Q 947 1169 1205 825 
Q 1463 481 1925 481 
Q 2391 481 2648 825 
Q 2906 1169 2906 1791 
z
M 3481 434 
Q 3481 -459 3084 -895 
Q 2688 -1331 1869 -1331 
Q 1566 -1331 1297 -1286 
Q 1028 -1241 775 -1147 
L 775 -588 
Q 1028 -725 1275 -790 
Q 1522 -856 1778 -856 
Q 2344 -856 2625 -561 
Q 2906 -266 2906 331 
L 2906 616 
Q 2728 306 2450 153 
Q 2172 0 1784 0 
Q 1141 0 747 490 
Q 353 981 353 1791 
Q 353 2603 747 3093 
Q 1141 3584 1784 3584 
Q 2172 3584 2450 3431 
Q 2728 3278 2906 2969 
L 2906 3500 
L 3481 3500 
L 3481 434 
z
" transform="scale(0.015625)"/>
     </defs>
     <use xlink:href="#DejaVuSans-41"/>
     <use xlink:href="#DejaVuSans-67" x="68.408203"/>
     <use xlink:href="#DejaVuSans-67" x="131.884766"/>
     <use xlink:href="#DejaVuSans-72" x="195.361328"/>
     <use xlink:href="#DejaVuSans-65" x="234.224609"/>
     <use xlink:href="#DejaVuSans-67" x="295.748047"/>
     <use xlink:href="#DejaVuSans-61" x="359.224609"/>
     <use xlink:href="#DejaVuSans-74" x="420.503906"/>
     <use xlink:href="#DejaVuSans-65" x="459.712891"/>
     <use xlink:href="#DejaVuSans-20" x="521.236328"/>
     <use xlink:href="#DejaVuSans-73" x="553.023438"/>
     <use xlink:href="#DejaVuSans-63" x="605.123047"/>
     <use xlink:href="#DejaVuSans-6f" x="660.103516"/>
     <use xlink:href="#DejaVuSans-72" x="721.285156"/>
     <use xlink:href="#DejaVuSans-65" x="760.148438"/>
    </g>
   </g>
  </g>
  <g id="axes_2">
   <g id="patch_102">
    <path d="M 850.216763 142.804091 
L 881.452259 142.804091 
L 881.452259 120.096638 
L 850.216763 120.096638 
z
" clip-path="url(#pbb0d648e53)" style="fill: #39adc3"/>
   </g>
   <g id="text_47">
    <!-- 0.53 -->
    <g style="fill: #262626" transform="translate(848.800152 135.31349) scale(0.14 -0.14)">
     <use xlink:href="#DejaVuSans-30"/>
     <use xlink:href="#DejaVuSans-2e" x="63.623047"/>
     <use xlink:href="#DejaVuSans-35" x="95.410156"/>
     <use xlink:href="#DejaVuSans-33" x="159.033203"/>
    </g>
   </g>
  </g>
  <g id="axes_3">
   <g id="patch_103">
    <path d="M 912.386505 142.804091 
L 949.619759 142.804091 
L 949.619759 120.096638 
L 912.386505 120.096638 
z
" clip-path="url(#p2ee24b9adb)" style="fill: #1d90c0"/>
   </g>
   <g id="text_48">
    <!-- 0.63 -->
    <g style="fill: #262626" transform="translate(916.967652 135.31349) scale(0.14 -0.14)">
     <use xlink:href="#DejaVuSans-30"/>
     <use xlink:href="#DejaVuSans-2e" x="63.623047"/>
     <use xlink:href="#DejaVuSans-36" x="95.410156"/>
     <use xlink:href="#DejaVuSans-33" x="159.033203"/>
    </g>
   </g>
  </g>
  <g id="axes_4">
   <g id="patch_104">
    <path d="M 974.556247 142.804091 
L 1009.390397 142.804091 
L 1009.390397 120.096638 
L 974.556247 120.096638 
z
" clip-path="url(#peadb385639)" style="fill: #289cc1"/>
   </g>
   <g id="text_49">
    <!-- 0.59 -->
    <g style="fill: #262626" transform="translate(976.73829 135.31349) scale(0.14 -0.14)">
     <use xlink:href="#DejaVuSans-30"/>
     <use xlink:href="#DejaVuSans-2e" x="63.623047"/>
     <use xlink:href="#DejaVuSans-35" x="95.410156"/>
     <use xlink:href="#DejaVuSans-39" x="159.033203"/>
    </g>
   </g>
  </g>
  <g id="axes_5">
   <g id="patch_105">
    <path d="M 850.216763 184.854928 
L 871.703515 184.854928 
L 871.703515 162.147476 
L 850.216763 162.147476 
z
" clip-path="url(#p35ea44ea0e)" style="fill: #87d0ba"/>
   </g>
   <g id="text_50">
    <!-- 0.36 -->
    <g style="fill: #262626" transform="translate(873.183747 177.364327) scale(0.14 -0.14)">
     <use xlink:href="#DejaVuSans-30"/>
     <use xlink:href="#DejaVuSans-2e" x="63.623047"/>
     <use xlink:href="#DejaVuSans-33" x="95.410156"/>
     <use xlink:href="#DejaVuSans-36" x="159.033203"/>
    </g>
   </g>
  </g>
  <g id="axes_6">
   <g id="patch_106">
    <path d="M 912.386505 184.854928 
L 948.587175 184.854928 
L 948.587175 162.147476 
L 912.386505 162.147476 
z
" clip-path="url(#pa9a22b2609)" style="fill: #2195c0"/>
   </g>
   <g id="text_51">
    <!-- 0.61 -->
    <g style="fill: #262626" transform="translate(915.935068 177.364327) scale(0.14 -0.14)">
     <use xlink:href="#DejaVuSans-30"/>
     <use xlink:href="#DejaVuSans-2e" x="63.623047"/>
     <use xlink:href="#DejaVuSans-36" x="95.410156"/>
     <use xlink:href="#DejaVuSans-31" x="159.033203"/>
    </g>
   </g>
  </g>
  <g id="axes_7">
   <g id="patch_107">
    <path d="M 974.556247 184.854928 
L 1004.87135 184.854928 
L 1004.87135 162.147476 
L 974.556247 162.147476 
z
" clip-path="url(#pb3fd1a12f2)" style="fill: #3db2c4"/>
   </g>
   <g id="text_52">
    <!-- 0.51 -->
    <g style="fill: #262626" transform="translate(972.219243 177.364327) scale(0.14 -0.14)">
     <use xlink:href="#DejaVuSans-30"/>
     <use xlink:href="#DejaVuSans-2e" x="63.623047"/>
     <use xlink:href="#DejaVuSans-35" x="95.410156"/>
     <use xlink:href="#DejaVuSans-31" x="159.033203"/>
    </g>
   </g>
  </g>
  <g id="axes_8">
   <g id="patch_108">
    <path d="M 850.216763 226.905766 
L 877.635777 226.905766 
L 877.635777 204.198313 
L 850.216763 204.198313 
z
" clip-path="url(#pabc190c6c3)" style="fill: #53bdc1"/>
   </g>
   <g id="text_53">
    <!-- 0.46 -->
    <g style="fill: #262626" transform="translate(879.116009 219.415164) scale(0.14 -0.14)">
     <use xlink:href="#DejaVuSans-30"/>
     <use xlink:href="#DejaVuSans-2e" x="63.623047"/>
     <use xlink:href="#DejaVuSans-34" x="95.410156"/>
     <use xlink:href="#DejaVuSans-36" x="159.033203"/>
    </g>
   </g>
  </g>
  <g id="axes_9">
   <g id="patch_109">
    <path d="M 912.386505 226.905766 
L 943.143706 226.905766 
L 943.143706 204.198313 
L 912.386505 204.198313 
z
" clip-path="url(#p40bc96a424)" style="fill: #3cb1c3"/>
   </g>
   <g id="text_54">
    <!-- 0.52 -->
    <g style="fill: #262626" transform="translate(910.4916 219.415164) scale(0.14 -0.14)">
     <use xlink:href="#DejaVuSans-30"/>
     <use xlink:href="#DejaVuSans-2e" x="63.623047"/>
     <use xlink:href="#DejaVuSans-35" x="95.410156"/>
     <use xlink:href="#DejaVuSans-32" x="159.033203"/>
    </g>
   </g>
  </g>
  <g id="axes_10">
   <g id="patch_110">
    <path d="M 974.556247 226.905766 
L 1003.978173 226.905766 
L 1003.978173 204.198313 
L 974.556247 204.198313 
z
" clip-path="url(#pfc0124519c)" style="fill: #42b6c4"/>
   </g>
   <g id="text_55">
    <!-- 0.50 -->
    <g style="fill: #262626" transform="translate(1005.458405 219.415164) scale(0.14 -0.14)">
     <use xlink:href="#DejaVuSans-30"/>
     <use xlink:href="#DejaVuSans-2e" x="63.623047"/>
     <use xlink:href="#DejaVuSans-35" x="95.410156"/>
     <use xlink:href="#DejaVuSans-30" x="159.033203"/>
    </g>
   </g>
  </g>
 </g>
 <defs>
  <clipPath id="pb7f1aad391">
   <rect x="194.4" y="25.272" width="842.4" height="213.408"/>
  </clipPath>
  <clipPath id="pbb0d648e53">
   <rect x="848.736531" y="118.835113" width="62.169742" height="25.230502"/>
  </clipPath>
  <clipPath id="p2ee24b9adb">
   <rect x="910.906273" y="118.835113" width="62.169742" height="25.230502"/>
  </clipPath>
  <clipPath id="peadb385639">
   <rect x="973.076015" y="118.835113" width="62.169742" height="25.230502"/>
  </clipPath>
  <clipPath id="p35ea44ea0e">
   <rect x="848.736531" y="160.885951" width="62.169742" height="25.230502"/>
  </clipPath>
  <clipPath id="pa9a22b2609">
   <rect x="910.906273" y="160.885951" width="62.169742" height="25.230502"/>
  </clipPath>
  <clipPath id="pb3fd1a12f2">
   <rect x="973.076015" y="160.885951" width="62.169742" height="25.230502"/>
  </clipPath>
  <clipPath id="pabc190c6c3">
   <rect x="848.736531" y="202.936788" width="62.169742" height="25.230502"/>
  </clipPath>
  <clipPath id="p40bc96a424">
   <rect x="910.906273" y="202.936788" width="62.169742" height="25.230502"/>
  </clipPath>
  <clipPath id="pfc0124519c">
   <rect x="973.076015" y="202.936788" width="62.169742" height="25.230502"/>
  </clipPath>
 </defs>
</svg>
