<?xml version="1.0" encoding="utf-8" standalone="no"?>
<!DOCTYPE svg PUBLIC "-//W3C//DTD SVG 1.1//EN"
  "http://www.w3.org/Graphics/SVG/1.1/DTD/svg11.dtd">
<svg xmlns:xlink="http://www.w3.org/1999/xlink" width="1080pt" height="280.8pt" viewBox="0 0 1080 280.8" xmlns="http://www.w3.org/2000/svg" version="1.1">
 <metadata>
  <rdf:RDF xmlns:dc="http://purl.org/dc/elements/1.1/" xmlns:cc="http://creativecommons.org/ns#" xmlns:rdf="http://www.w3.org/1999/02/22-rdf-syntax-ns#">
   <cc:Work>
    <dc:type rdf:resource="http://purl.org/dc/dcmitype/StillImage"/>
    <dc:date>2025-04-15T22:44:55.991706</dc:date>
    <dc:format>image/svg+xml</dc:format>
    <dc:creator>
     <cc:Agent>
      <dc:title>Matplotlib v3.9.4, https://matplotlib.org/</dc:title>
     </cc:Agent>
    </dc:creator>
   </cc:Work>
  </rdf:RDF>
 </metadata>
 <defs>
  <style type="text/css">*{stroke-linejoin: round; stroke-linecap: butt}</style>
 </defs>
 <g id="figure_1">
  <g id="patch_1">
   <path d="M 0 280.8 
L 1080 280.8 
L 1080 0 
L 0 0 
z
" style="fill: #ffffff"/>
  </g>
  <g id="axes_1">
   <g id="patch_2">
    <path d="M 195.954244 110.424946 
L 289.208856 110.424946 
L 289.208856 152.475783 
L 195.954244 152.475783 
z
" clip-path="url(#pab0625ac00)" style="fill: #ffffff"/>
   </g>
   <g id="patch_3">
    <path d="M 289.208856 110.424946 
L 351.378598 110.424946 
L 351.378598 152.475783 
L 289.208856 152.475783 
z
" clip-path="url(#pab0625ac00)" style="fill: #ffffff"/>
   </g>
   <g id="patch_4">
    <path d="M 351.378598 110.424946 
L 413.548339 110.424946 
L 413.548339 152.475783 
L 351.378598 152.475783 
z
" clip-path="url(#pab0625ac00)" style="fill: #ffffff"/>
   </g>
   <g id="patch_5">
    <path d="M 413.548339 110.424946 
L 475.718081 110.424946 
L 475.718081 152.475783 
L 413.548339 152.475783 
z
" clip-path="url(#pab0625ac00)" style="fill: #ffffff"/>
   </g>
   <g id="patch_6">
    <path d="M 475.718081 110.424946 
L 537.887823 110.424946 
L 537.887823 152.475783 
L 475.718081 152.475783 
z
" clip-path="url(#pab0625ac00)" style="fill: #ffffff"/>
   </g>
   <g id="patch_7">
    <path d="M 537.887823 110.424946 
L 600.057565 110.424946 
L 600.057565 152.475783 
L 537.887823 152.475783 
z
" clip-path="url(#pab0625ac00)" style="fill: #ffffff"/>
   </g>
   <g id="patch_8">
    <path d="M 600.057565 110.424946 
L 662.227306 110.424946 
L 662.227306 152.475783 
L 600.057565 152.475783 
z
" clip-path="url(#pab0625ac00)" style="fill: #ffffff"/>
   </g>
   <g id="patch_9">
    <path d="M 662.227306 110.424946 
L 724.397048 110.424946 
L 724.397048 152.475783 
L 662.227306 152.475783 
z
" clip-path="url(#pab0625ac00)" style="fill: #ffffff"/>
   </g>
   <g id="patch_10">
    <path d="M 724.397048 110.424946 
L 786.56679 110.424946 
L 786.56679 152.475783 
L 724.397048 152.475783 
z
" clip-path="url(#pab0625ac00)" style="fill: #ffffff"/>
   </g>
   <g id="patch_11">
    <path d="M 786.56679 110.424946 
L 848.736531 110.424946 
L 848.736531 152.475783 
L 786.56679 152.475783 
z
" clip-path="url(#pab0625ac00)" style="fill: #ffffff"/>
   </g>
   <g id="patch_12">
    <path d="M 848.736531 110.424946 
L 910.906273 110.424946 
L 910.906273 152.475783 
L 848.736531 152.475783 
z
" clip-path="url(#pab0625ac00)" style="fill: #ffffff"/>
   </g>
   <g id="patch_13">
    <path d="M 848.736531 110.424946 
L 910.906273 110.424946 
L 910.906273 152.475783 
L 848.736531 152.475783 
z
" clip-path="url(#pab0625ac00)" style="fill: #ffffff"/>
   </g>
   <g id="patch_14">
    <path d="M 910.906273 110.424946 
L 973.076015 110.424946 
L 973.076015 152.475783 
L 910.906273 152.475783 
z
" clip-path="url(#pab0625ac00)" style="fill: #ffffff"/>
   </g>
   <g id="patch_15">
    <path d="M 910.906273 110.424946 
L 973.076015 110.424946 
L 973.076015 152.475783 
L 910.906273 152.475783 
z
" clip-path="url(#pab0625ac00)" style="fill: #ffffff"/>
   </g>
   <g id="patch_16">
    <path d="M 973.076015 110.424946 
L 1035.245756 110.424946 
L 1035.245756 152.475783 
L 973.076015 152.475783 
z
" clip-path="url(#pab0625ac00)" style="fill: #ffffff"/>
   </g>
   <g id="patch_17">
    <path d="M 973.076015 110.424946 
L 1035.245756 110.424946 
L 1035.245756 152.475783 
L 973.076015 152.475783 
z
" clip-path="url(#pab0625ac00)" style="fill: #ffffff"/>
   </g>
   <g id="patch_18">
    <path d="M 195.954244 152.475783 
L 289.208856 152.475783 
L 289.208856 194.526621 
L 195.954244 194.526621 
z
" clip-path="url(#pab0625ac00)" style="fill: #ffffff"/>
   </g>
   <g id="patch_19">
    <path d="M 289.208856 152.475783 
L 351.378598 152.475783 
L 351.378598 194.526621 
L 289.208856 194.526621 
z
" clip-path="url(#pab0625ac00)" style="fill: #ffffff"/>
   </g>
   <g id="patch_20">
    <path d="M 351.378598 152.475783 
L 413.548339 152.475783 
L 413.548339 194.526621 
L 351.378598 194.526621 
z
" clip-path="url(#pab0625ac00)" style="fill: #ffffff"/>
   </g>
   <g id="patch_21">
    <path d="M 413.548339 152.475783 
L 475.718081 152.475783 
L 475.718081 194.526621 
L 413.548339 194.526621 
z
" clip-path="url(#pab0625ac00)" style="fill: #ffffff"/>
   </g>
   <g id="patch_22">
    <path d="M 475.718081 152.475783 
L 537.887823 152.475783 
L 537.887823 194.526621 
L 475.718081 194.526621 
z
" clip-path="url(#pab0625ac00)" style="fill: #ffffff"/>
   </g>
   <g id="patch_23">
    <path d="M 537.887823 152.475783 
L 600.057565 152.475783 
L 600.057565 194.526621 
L 537.887823 194.526621 
z
" clip-path="url(#pab0625ac00)" style="fill: #ffffff"/>
   </g>
   <g id="patch_24">
    <path d="M 600.057565 152.475783 
L 662.227306 152.475783 
L 662.227306 194.526621 
L 600.057565 194.526621 
z
" clip-path="url(#pab0625ac00)" style="fill: #ffffff"/>
   </g>
   <g id="patch_25">
    <path d="M 662.227306 152.475783 
L 724.397048 152.475783 
L 724.397048 194.526621 
L 662.227306 194.526621 
z
" clip-path="url(#pab0625ac00)" style="fill: #ffffff"/>
   </g>
   <g id="patch_26">
    <path d="M 724.397048 152.475783 
L 786.56679 152.475783 
L 786.56679 194.526621 
L 724.397048 194.526621 
z
" clip-path="url(#pab0625ac00)" style="fill: #ffffff"/>
   </g>
   <g id="patch_27">
    <path d="M 786.56679 152.475783 
L 848.736531 152.475783 
L 848.736531 194.526621 
L 786.56679 194.526621 
z
" clip-path="url(#pab0625ac00)" style="fill: #ffffff"/>
   </g>
   <g id="patch_28">
    <path d="M 848.736531 152.475783 
L 910.906273 152.475783 
L 910.906273 194.526621 
L 848.736531 194.526621 
z
" clip-path="url(#pab0625ac00)" style="fill: #ffffff"/>
   </g>
   <g id="patch_29">
    <path d="M 848.736531 152.475783 
L 910.906273 152.475783 
L 910.906273 194.526621 
L 848.736531 194.526621 
z
" clip-path="url(#pab0625ac00)" style="fill: #ffffff"/>
   </g>
   <g id="patch_30">
    <path d="M 910.906273 152.475783 
L 973.076015 152.475783 
L 973.076015 194.526621 
L 910.906273 194.526621 
z
" clip-path="url(#pab0625ac00)" style="fill: #ffffff"/>
   </g>
   <g id="patch_31">
    <path d="M 910.906273 152.475783 
L 973.076015 152.475783 
L 973.076015 194.526621 
L 910.906273 194.526621 
z
" clip-path="url(#pab0625ac00)" style="fill: #ffffff"/>
   </g>
   <g id="patch_32">
    <path d="M 973.076015 152.475783 
L 1035.245756 152.475783 
L 1035.245756 194.526621 
L 973.076015 194.526621 
z
" clip-path="url(#pab0625ac00)" style="fill: #ffffff"/>
   </g>
   <g id="patch_33">
    <path d="M 973.076015 152.475783 
L 1035.245756 152.475783 
L 1035.245756 194.526621 
L 973.076015 194.526621 
z
" clip-path="url(#pab0625ac00)" style="fill: #ffffff"/>
   </g>
   <g id="patch_34">
    <path d="M 195.954244 194.526621 
L 289.208856 194.526621 
L 289.208856 236.577458 
L 195.954244 236.577458 
z
" clip-path="url(#pab0625ac00)" style="fill: #ffffff"/>
   </g>
   <g id="patch_35">
    <path d="M 289.208856 194.526621 
L 351.378598 194.526621 
L 351.378598 236.577458 
L 289.208856 236.577458 
z
" clip-path="url(#pab0625ac00)" style="fill: #ffffff"/>
   </g>
   <g id="patch_36">
    <path d="M 351.378598 194.526621 
L 413.548339 194.526621 
L 413.548339 236.577458 
L 351.378598 236.577458 
z
" clip-path="url(#pab0625ac00)" style="fill: #ffffff"/>
   </g>
   <g id="patch_37">
    <path d="M 413.548339 194.526621 
L 475.718081 194.526621 
L 475.718081 236.577458 
L 413.548339 236.577458 
z
" clip-path="url(#pab0625ac00)" style="fill: #ffffff"/>
   </g>
   <g id="patch_38">
    <path d="M 475.718081 194.526621 
L 537.887823 194.526621 
L 537.887823 236.577458 
L 475.718081 236.577458 
z
" clip-path="url(#pab0625ac00)" style="fill: #ffffff"/>
   </g>
   <g id="patch_39">
    <path d="M 537.887823 194.526621 
L 600.057565 194.526621 
L 600.057565 236.577458 
L 537.887823 236.577458 
z
" clip-path="url(#pab0625ac00)" style="fill: #ffffff"/>
   </g>
   <g id="patch_40">
    <path d="M 600.057565 194.526621 
L 662.227306 194.526621 
L 662.227306 236.577458 
L 600.057565 236.577458 
z
" clip-path="url(#pab0625ac00)" style="fill: #ffffff"/>
   </g>
   <g id="patch_41">
    <path d="M 662.227306 194.526621 
L 724.397048 194.526621 
L 724.397048 236.577458 
L 662.227306 236.577458 
z
" clip-path="url(#pab0625ac00)" style="fill: #ffffff"/>
   </g>
   <g id="patch_42">
    <path d="M 724.397048 194.526621 
L 786.56679 194.526621 
L 786.56679 236.577458 
L 724.397048 236.577458 
z
" clip-path="url(#pab0625ac00)" style="fill: #ffffff"/>
   </g>
   <g id="patch_43">
    <path d="M 786.56679 194.526621 
L 848.736531 194.526621 
L 848.736531 236.577458 
L 786.56679 236.577458 
z
" clip-path="url(#pab0625ac00)" style="fill: #ffffff"/>
   </g>
   <g id="patch_44">
    <path d="M 848.736531 194.526621 
L 910.906273 194.526621 
L 910.906273 236.577458 
L 848.736531 236.577458 
z
" clip-path="url(#pab0625ac00)" style="fill: #ffffff"/>
   </g>
   <g id="patch_45">
    <path d="M 848.736531 194.526621 
L 910.906273 194.526621 
L 910.906273 236.577458 
L 848.736531 236.577458 
z
" clip-path="url(#pab0625ac00)" style="fill: #ffffff"/>
   </g>
   <g id="patch_46">
    <path d="M 910.906273 194.526621 
L 973.076015 194.526621 
L 973.076015 236.577458 
L 910.906273 236.577458 
z
" clip-path="url(#pab0625ac00)" style="fill: #ffffff"/>
   </g>
   <g id="patch_47">
    <path d="M 910.906273 194.526621 
L 973.076015 194.526621 
L 973.076015 236.577458 
L 910.906273 236.577458 
z
" clip-path="url(#pab0625ac00)" style="fill: #ffffff"/>
   </g>
   <g id="patch_48">
    <path d="M 973.076015 194.526621 
L 1035.245756 194.526621 
L 1035.245756 236.577458 
L 973.076015 236.577458 
z
" clip-path="url(#pab0625ac00)" style="fill: #ffffff"/>
   </g>
   <g id="patch_49">
    <path d="M 973.076015 194.526621 
L 1035.245756 194.526621 
L 1035.245756 236.577458 
L 973.076015 236.577458 
z
" clip-path="url(#pab0625ac00)" style="fill: #ffffff"/>
   </g>
   <g id="patch_50">
    <path d="M 195.954244 68.374108 
L 289.208856 68.374108 
L 289.208856 110.424946 
L 195.954244 110.424946 
z
" clip-path="url(#pab0625ac00)" style="fill: #ffffff"/>
   </g>
   <g id="patch_51">
    <path d="M 289.208856 68.374108 
L 351.378598 68.374108 
L 351.378598 110.424946 
L 289.208856 110.424946 
z
" clip-path="url(#pab0625ac00)" style="fill: #ffffff"/>
   </g>
   <g id="patch_52">
    <path d="M 351.378598 68.374108 
L 413.548339 68.374108 
L 413.548339 110.424946 
L 351.378598 110.424946 
z
" clip-path="url(#pab0625ac00)" style="fill: #ffffff"/>
   </g>
   <g id="patch_53">
    <path d="M 413.548339 68.374108 
L 475.718081 68.374108 
L 475.718081 110.424946 
L 413.548339 110.424946 
z
" clip-path="url(#pab0625ac00)" style="fill: #ffffff"/>
   </g>
   <g id="patch_54">
    <path d="M 475.718081 68.374108 
L 537.887823 68.374108 
L 537.887823 110.424946 
L 475.718081 110.424946 
z
" clip-path="url(#pab0625ac00)" style="fill: #ffffff"/>
   </g>
   <g id="patch_55">
    <path d="M 537.887823 68.374108 
L 600.057565 68.374108 
L 600.057565 110.424946 
L 537.887823 110.424946 
z
" clip-path="url(#pab0625ac00)" style="fill: #ffffff"/>
   </g>
   <g id="patch_56">
    <path d="M 600.057565 68.374108 
L 662.227306 68.374108 
L 662.227306 110.424946 
L 600.057565 110.424946 
z
" clip-path="url(#pab0625ac00)" style="fill: #ffffff"/>
   </g>
   <g id="patch_57">
    <path d="M 662.227306 68.374108 
L 724.397048 68.374108 
L 724.397048 110.424946 
L 662.227306 110.424946 
z
" clip-path="url(#pab0625ac00)" style="fill: #ffffff"/>
   </g>
   <g id="patch_58">
    <path d="M 724.397048 68.374108 
L 786.56679 68.374108 
L 786.56679 110.424946 
L 724.397048 110.424946 
z
" clip-path="url(#pab0625ac00)" style="fill: #ffffff"/>
   </g>
   <g id="patch_59">
    <path d="M 786.56679 68.374108 
L 848.736531 68.374108 
L 848.736531 110.424946 
L 786.56679 110.424946 
z
" clip-path="url(#pab0625ac00)" style="fill: #ffffff"/>
   </g>
   <g id="patch_60">
    <path d="M 848.736531 68.374108 
L 910.906273 68.374108 
L 910.906273 110.424946 
L 848.736531 110.424946 
z
" clip-path="url(#pab0625ac00)" style="fill: #ffffff"/>
   </g>
   <g id="patch_61">
    <path d="M 910.906273 68.374108 
L 973.076015 68.374108 
L 973.076015 110.424946 
L 910.906273 110.424946 
z
" clip-path="url(#pab0625ac00)" style="fill: #ffffff"/>
   </g>
   <g id="patch_62">
    <path d="M 973.076015 68.374108 
L 1035.245756 68.374108 
L 1035.245756 110.424946 
L 973.076015 110.424946 
z
" clip-path="url(#pab0625ac00)" style="fill: #ffffff"/>
   </g>
   <g id="patch_63">
    <path d="M 600.057565 68.374108 
L 848.736531 68.374108 
L 848.736531 110.424946 
L 600.057565 110.424946 
z
" clip-path="url(#pab0625ac00)" style="fill: #ffffff"/>
   </g>
   <g id="patch_64">
    <path d="M 848.736531 68.374108 
L 1035.245756 68.374108 
L 1035.245756 110.424946 
L 848.736531 110.424946 
z
" clip-path="url(#pab0625ac00)" style="fill: #ffffff"/>
   </g>
   <g id="patch_65">
    <path d="M 289.208856 68.374108 
L 600.057565 68.374108 
L 600.057565 110.424946 
L 289.208856 110.424946 
z
" clip-path="url(#pab0625ac00)" style="fill: #ffffff"/>
   </g>
   <g id="patch_66">
    <path d="M 848.736531 110.424946 
L 910.906273 110.424946 
L 910.906273 152.475783 
L 848.736531 152.475783 
z
" clip-path="url(#pab0625ac00)" style="fill: #ffffff"/>
   </g>
   <g id="patch_67">
    <path d="M 910.906273 110.424946 
L 973.076015 110.424946 
L 973.076015 152.475783 
L 910.906273 152.475783 
z
" clip-path="url(#pab0625ac00)" style="fill: #ffffff"/>
   </g>
   <g id="patch_68">
    <path d="M 973.076015 110.424946 
L 1035.245756 110.424946 
L 1035.245756 152.475783 
L 973.076015 152.475783 
z
" clip-path="url(#pab0625ac00)" style="fill: #ffffff"/>
   </g>
   <g id="patch_69">
    <path d="M 848.736531 152.475783 
L 910.906273 152.475783 
L 910.906273 194.526621 
L 848.736531 194.526621 
z
" clip-path="url(#pab0625ac00)" style="fill: #ffffff"/>
   </g>
   <g id="patch_70">
    <path d="M 910.906273 152.475783 
L 973.076015 152.475783 
L 973.076015 194.526621 
L 910.906273 194.526621 
z
" clip-path="url(#pab0625ac00)" style="fill: #ffffff"/>
   </g>
   <g id="patch_71">
    <path d="M 973.076015 152.475783 
L 1035.245756 152.475783 
L 1035.245756 194.526621 
L 973.076015 194.526621 
z
" clip-path="url(#pab0625ac00)" style="fill: #ffffff"/>
   </g>
   <g id="patch_72">
    <path d="M 848.736531 194.526621 
L 910.906273 194.526621 
L 910.906273 236.577458 
L 848.736531 236.577458 
z
" clip-path="url(#pab0625ac00)" style="fill: #ffffff"/>
   </g>
   <g id="patch_73">
    <path d="M 910.906273 194.526621 
L 973.076015 194.526621 
L 973.076015 236.577458 
L 910.906273 236.577458 
z
" clip-path="url(#pab0625ac00)" style="fill: #ffffff"/>
   </g>
   <g id="patch_74">
    <path d="M 973.076015 194.526621 
L 1035.245756 194.526621 
L 1035.245756 236.577458 
L 973.076015 236.577458 
z
" clip-path="url(#pab0625ac00)" style="fill: #ffffff"/>
   </g>
   <g id="line2d_1">
    <path d="M 612.491513 68.374108 
L 836.302583 68.374108 
" clip-path="url(#pab0625ac00)" style="fill: none; stroke: #262626; stroke-width: 0.2; stroke-linecap: round"/>
   </g>
   <g id="line2d_2">
    <path d="M 858.061993 68.374108 
L 1025.920295 68.374108 
" clip-path="url(#pab0625ac00)" style="fill: none; stroke: #262626; stroke-width: 0.2; stroke-linecap: round"/>
   </g>
   <g id="line2d_3">
    <path d="M 304.751292 68.374108 
L 584.515129 68.374108 
" clip-path="url(#pab0625ac00)" style="fill: none; stroke: #262626; stroke-width: 0.2; stroke-linecap: round"/>
   </g>
   <g id="line2d_4">
    <path d="M 195.954244 110.424946 
L 1035.245756 110.424946 
" clip-path="url(#pab0625ac00)" style="fill: none; stroke: #262626; stroke-linecap: round"/>
   </g>
   <g id="line2d_5">
    <path d="M 195.954244 236.577458 
L 1035.245756 236.577458 
" clip-path="url(#pab0625ac00)" style="fill: none; stroke: #262626; stroke-linecap: round"/>
   </g>
   <g id="line2d_6">
    <path d="M 195.954244 152.475783 
L 1035.245756 152.475783 
" clip-path="url(#pab0625ac00)" style="fill: none; stroke-dasharray: 1,5; stroke-dashoffset: 0; stroke: #262626"/>
   </g>
   <g id="line2d_7">
    <path d="M 195.954244 194.526621 
L 1035.245756 194.526621 
" clip-path="url(#pab0625ac00)" style="fill: none; stroke-dasharray: 1,5; stroke-dashoffset: 0; stroke: #262626"/>
   </g>
   <g id="line2d_8">
    <path d="M 848.736531 110.424946 
L 848.736531 236.577458 
" clip-path="url(#pab0625ac00)" style="fill: none; stroke: #262626; stroke-linecap: round"/>
   </g>
   <g id="text_1">
    <!-- X_pca -->
    <g transform="translate(205.279705 134.040208) scale(0.1 -0.1)">
     <defs>
      <path id="Arial-BoldMT-58" d="M 0 0 
L 1566 2391 
L 147 4581 
L 1228 4581 
L 2147 3109 
L 3047 4581 
L 4119 4581 
L 2694 2356 
L 4259 0 
L 3144 0 
L 2128 1584 
L 1109 0 
L 0 0 
z
" transform="scale(0.015625)"/>
      <path id="Arial-BoldMT-5f" d="M -59 -1266 
L -59 -697 
L 3591 -697 
L 3591 -1266 
L -59 -1266 
z
" transform="scale(0.015625)"/>
      <path id="Arial-BoldMT-70" d="M 434 3319 
L 1253 3319 
L 1253 2831 
Q 1413 3081 1684 3237 
Q 1956 3394 2288 3394 
Q 2866 3394 3269 2941 
Q 3672 2488 3672 1678 
Q 3672 847 3265 386 
Q 2859 -75 2281 -75 
Q 2006 -75 1782 34 
Q 1559 144 1313 409 
L 1313 -1263 
L 434 -1263 
L 434 3319 
z
M 1303 1716 
Q 1303 1156 1525 889 
Q 1747 622 2066 622 
Q 2372 622 2575 867 
Q 2778 1113 2778 1672 
Q 2778 2194 2568 2447 
Q 2359 2700 2050 2700 
Q 1728 2700 1515 2451 
Q 1303 2203 1303 1716 
z
" transform="scale(0.015625)"/>
      <path id="Arial-BoldMT-63" d="M 3353 2338 
L 2488 2181 
Q 2444 2441 2289 2572 
Q 2134 2703 1888 2703 
Q 1559 2703 1364 2476 
Q 1169 2250 1169 1719 
Q 1169 1128 1367 884 
Q 1566 641 1900 641 
Q 2150 641 2309 783 
Q 2469 925 2534 1272 
L 3397 1125 
Q 3263 531 2881 228 
Q 2500 -75 1859 -75 
Q 1131 -75 698 384 
Q 266 844 266 1656 
Q 266 2478 700 2936 
Q 1134 3394 1875 3394 
Q 2481 3394 2839 3133 
Q 3197 2872 3353 2338 
z
" transform="scale(0.015625)"/>
      <path id="Arial-BoldMT-61" d="M 1116 2306 
L 319 2450 
Q 453 2931 781 3162 
Q 1109 3394 1756 3394 
Q 2344 3394 2631 3255 
Q 2919 3116 3036 2902 
Q 3153 2688 3153 2116 
L 3144 1091 
Q 3144 653 3186 445 
Q 3228 238 3344 0 
L 2475 0 
Q 2441 88 2391 259 
Q 2369 338 2359 363 
Q 2134 144 1878 34 
Q 1622 -75 1331 -75 
Q 819 -75 523 203 
Q 228 481 228 906 
Q 228 1188 362 1408 
Q 497 1628 739 1745 
Q 981 1863 1438 1950 
Q 2053 2066 2291 2166 
L 2291 2253 
Q 2291 2506 2166 2614 
Q 2041 2722 1694 2722 
Q 1459 2722 1328 2630 
Q 1197 2538 1116 2306 
z
M 2291 1594 
Q 2122 1538 1756 1459 
Q 1391 1381 1278 1306 
Q 1106 1184 1106 997 
Q 1106 813 1243 678 
Q 1381 544 1594 544 
Q 1831 544 2047 700 
Q 2206 819 2256 991 
Q 2291 1103 2291 1419 
L 2291 1594 
z
" transform="scale(0.015625)"/>
     </defs>
     <use xlink:href="#Arial-BoldMT-58"/>
     <use xlink:href="#Arial-BoldMT-5f" x="66.699219"/>
     <use xlink:href="#Arial-BoldMT-70" x="122.314453"/>
     <use xlink:href="#Arial-BoldMT-63" x="183.398438"/>
     <use xlink:href="#Arial-BoldMT-61" x="239.013672"/>
    </g>
   </g>
   <g id="text_2">
    <g id="patch_75">
     <path d="M 320.293727 143.680833 
C 323.537285 143.680833 326.648432 142.392154 328.941974 140.098612 
C 331.235516 137.80507 332.524196 134.693923 332.524196 131.450365 
C 332.524196 128.206806 331.235516 125.095659 328.941974 122.802117 
C 326.648432 120.508575 323.537285 119.219896 320.293727 119.219896 
C 317.050169 119.219896 313.939022 120.508575 311.64548 122.802117 
C 309.351938 125.095659 308.063258 128.206806 308.063258 131.450365 
C 308.063258 134.693923 309.351938 137.80507 311.64548 140.098612 
C 313.939022 142.392154 317.050169 143.680833 320.293727 143.680833 
z
" style="fill: #f6f7f6; stroke: #f6f7f6; stroke-linejoin: miter"/>
    </g>
    <!-- 0.80 -->
    <g transform="translate(310.563258 134.035521) scale(0.1 -0.1)">
     <defs>
      <path id="ArialMT-30" d="M 266 2259 
Q 266 3072 433 3567 
Q 600 4063 929 4331 
Q 1259 4600 1759 4600 
Q 2128 4600 2406 4451 
Q 2684 4303 2865 4023 
Q 3047 3744 3150 3342 
Q 3253 2941 3253 2259 
Q 3253 1453 3087 958 
Q 2922 463 2592 192 
Q 2263 -78 1759 -78 
Q 1097 -78 719 397 
Q 266 969 266 2259 
z
M 844 2259 
Q 844 1131 1108 757 
Q 1372 384 1759 384 
Q 2147 384 2411 759 
Q 2675 1134 2675 2259 
Q 2675 3391 2411 3762 
Q 2147 4134 1753 4134 
Q 1366 4134 1134 3806 
Q 844 3388 844 2259 
z
" transform="scale(0.015625)"/>
      <path id="ArialMT-2e" d="M 581 0 
L 581 641 
L 1222 641 
L 1222 0 
L 581 0 
z
" transform="scale(0.015625)"/>
      <path id="ArialMT-38" d="M 1131 2484 
Q 781 2613 612 2850 
Q 444 3088 444 3419 
Q 444 3919 803 4259 
Q 1163 4600 1759 4600 
Q 2359 4600 2725 4251 
Q 3091 3903 3091 3403 
Q 3091 3084 2923 2848 
Q 2756 2613 2416 2484 
Q 2838 2347 3058 2040 
Q 3278 1734 3278 1309 
Q 3278 722 2862 322 
Q 2447 -78 1769 -78 
Q 1091 -78 675 323 
Q 259 725 259 1325 
Q 259 1772 486 2073 
Q 713 2375 1131 2484 
z
M 1019 3438 
Q 1019 3113 1228 2906 
Q 1438 2700 1772 2700 
Q 2097 2700 2305 2904 
Q 2513 3109 2513 3406 
Q 2513 3716 2298 3927 
Q 2084 4138 1766 4138 
Q 1444 4138 1231 3931 
Q 1019 3725 1019 3438 
z
M 838 1322 
Q 838 1081 952 856 
Q 1066 631 1291 507 
Q 1516 384 1775 384 
Q 2178 384 2440 643 
Q 2703 903 2703 1303 
Q 2703 1709 2433 1975 
Q 2163 2241 1756 2241 
Q 1359 2241 1098 1978 
Q 838 1716 838 1322 
z
" transform="scale(0.015625)"/>
     </defs>
     <use xlink:href="#ArialMT-30"/>
     <use xlink:href="#ArialMT-2e" x="55.615234"/>
     <use xlink:href="#ArialMT-38" x="83.398438"/>
     <use xlink:href="#ArialMT-30" x="139.013672"/>
    </g>
   </g>
   <g id="text_3">
    <g id="patch_76">
     <path d="M 382.463469 143.680833 
C 385.707027 143.680833 388.818174 142.392154 391.111716 140.098612 
C 393.405258 137.80507 394.693937 134.693923 394.693937 131.450365 
C 394.693937 128.206806 393.405258 125.095659 391.111716 122.802117 
C 388.818174 120.508575 385.707027 119.219896 382.463469 119.219896 
C 379.21991 119.219896 376.108763 120.508575 373.815221 122.802117 
C 371.521679 125.095659 370.233 128.206806 370.233 131.450365 
C 370.233 134.693923 371.521679 137.80507 373.815221 140.098612 
C 376.108763 142.392154 379.21991 143.680833 382.463469 143.680833 
z
" style="fill: #dbf1d6; stroke: #dbf1d6; stroke-linejoin: miter"/>
    </g>
    <!-- 0.56 -->
    <g transform="translate(372.733 134.035521) scale(0.1 -0.1)">
     <defs>
      <path id="ArialMT-35" d="M 266 1200 
L 856 1250 
Q 922 819 1161 601 
Q 1400 384 1738 384 
Q 2144 384 2425 690 
Q 2706 997 2706 1503 
Q 2706 1984 2436 2262 
Q 2166 2541 1728 2541 
Q 1456 2541 1237 2417 
Q 1019 2294 894 2097 
L 366 2166 
L 809 4519 
L 3088 4519 
L 3088 3981 
L 1259 3981 
L 1013 2750 
Q 1425 3038 1878 3038 
Q 2478 3038 2890 2622 
Q 3303 2206 3303 1553 
Q 3303 931 2941 478 
Q 2500 -78 1738 -78 
Q 1113 -78 717 272 
Q 322 622 266 1200 
z
" transform="scale(0.015625)"/>
      <path id="ArialMT-36" d="M 3184 3459 
L 2625 3416 
Q 2550 3747 2413 3897 
Q 2184 4138 1850 4138 
Q 1581 4138 1378 3988 
Q 1113 3794 959 3422 
Q 806 3050 800 2363 
Q 1003 2672 1297 2822 
Q 1591 2972 1913 2972 
Q 2475 2972 2870 2558 
Q 3266 2144 3266 1488 
Q 3266 1056 3080 686 
Q 2894 316 2569 119 
Q 2244 -78 1831 -78 
Q 1128 -78 684 439 
Q 241 956 241 2144 
Q 241 3472 731 4075 
Q 1159 4600 1884 4600 
Q 2425 4600 2770 4297 
Q 3116 3994 3184 3459 
z
M 888 1484 
Q 888 1194 1011 928 
Q 1134 663 1356 523 
Q 1578 384 1822 384 
Q 2178 384 2434 671 
Q 2691 959 2691 1453 
Q 2691 1928 2437 2201 
Q 2184 2475 1800 2475 
Q 1419 2475 1153 2201 
Q 888 1928 888 1484 
z
" transform="scale(0.015625)"/>
     </defs>
     <use xlink:href="#ArialMT-30"/>
     <use xlink:href="#ArialMT-2e" x="55.615234"/>
     <use xlink:href="#ArialMT-35" x="83.398438"/>
     <use xlink:href="#ArialMT-36" x="139.013672"/>
    </g>
   </g>
   <g id="text_4">
    <g id="patch_77">
     <path d="M 444.63321 143.680833 
C 447.876769 143.680833 450.987916 142.392154 453.281458 140.098612 
C 455.575 137.80507 456.863679 134.693923 456.863679 131.450365 
C 456.863679 128.206806 455.575 125.095659 453.281458 122.802117 
C 450.987916 120.508575 447.876769 119.219896 444.63321 119.219896 
C 441.389652 119.219896 438.278505 120.508575 435.984963 122.802117 
C 433.691421 125.095659 432.402742 128.206806 432.402742 131.450365 
C 432.402742 134.693923 433.691421 137.80507 435.984963 140.098612 
C 438.278505 142.392154 441.389652 143.680833 444.63321 143.680833 
z
" style="fill: #4ea359; stroke: #4ea359; stroke-linejoin: miter"/>
    </g>
    <!-- 0.38 -->
    <g style="fill: #ffffff" transform="translate(434.902742 134.035521) scale(0.1 -0.1)">
     <defs>
      <path id="ArialMT-33" d="M 269 1209 
L 831 1284 
Q 928 806 1161 595 
Q 1394 384 1728 384 
Q 2125 384 2398 659 
Q 2672 934 2672 1341 
Q 2672 1728 2419 1979 
Q 2166 2231 1775 2231 
Q 1616 2231 1378 2169 
L 1441 2663 
Q 1497 2656 1531 2656 
Q 1891 2656 2178 2843 
Q 2466 3031 2466 3422 
Q 2466 3731 2256 3934 
Q 2047 4138 1716 4138 
Q 1388 4138 1169 3931 
Q 950 3725 888 3313 
L 325 3413 
Q 428 3978 793 4289 
Q 1159 4600 1703 4600 
Q 2078 4600 2393 4439 
Q 2709 4278 2876 4000 
Q 3044 3722 3044 3409 
Q 3044 3113 2884 2869 
Q 2725 2625 2413 2481 
Q 2819 2388 3044 2092 
Q 3269 1797 3269 1353 
Q 3269 753 2831 336 
Q 2394 -81 1725 -81 
Q 1122 -81 723 278 
Q 325 638 269 1209 
z
" transform="scale(0.015625)"/>
     </defs>
     <use xlink:href="#ArialMT-30"/>
     <use xlink:href="#ArialMT-2e" x="55.615234"/>
     <use xlink:href="#ArialMT-33" x="83.398438"/>
     <use xlink:href="#ArialMT-38" x="139.013672"/>
    </g>
   </g>
   <g id="text_5">
    <g id="patch_78">
     <path d="M 506.802952 143.680833 
C 510.04651 143.680833 513.157657 142.392154 515.451199 140.098612 
C 517.744741 137.80507 519.033421 134.693923 519.033421 131.450365 
C 519.033421 128.206806 517.744741 125.095659 515.451199 122.802117 
C 513.157657 120.508575 510.04651 119.219896 506.802952 119.219896 
C 503.559394 119.219896 500.448247 120.508575 498.154705 122.802117 
C 495.861163 125.095659 494.572483 128.206806 494.572483 131.450365 
C 494.572483 134.693923 495.861163 137.80507 498.154705 140.098612 
C 500.448247 142.392154 503.559394 143.680833 506.802952 143.680833 
z
" style="fill: #daf0d4; stroke: #daf0d4; stroke-linejoin: miter"/>
    </g>
    <!-- 0.48 -->
    <g transform="translate(497.072483 134.035521) scale(0.1 -0.1)">
     <defs>
      <path id="ArialMT-34" d="M 2069 0 
L 2069 1097 
L 81 1097 
L 81 1613 
L 2172 4581 
L 2631 4581 
L 2631 1613 
L 3250 1613 
L 3250 1097 
L 2631 1097 
L 2631 0 
L 2069 0 
z
M 2069 1613 
L 2069 3678 
L 634 1613 
L 2069 1613 
z
" transform="scale(0.015625)"/>
     </defs>
     <use xlink:href="#ArialMT-30"/>
     <use xlink:href="#ArialMT-2e" x="55.615234"/>
     <use xlink:href="#ArialMT-34" x="83.398438"/>
     <use xlink:href="#ArialMT-38" x="139.013672"/>
    </g>
   </g>
   <g id="text_6">
    <g id="patch_79">
     <path d="M 568.972694 143.680833 
C 572.216252 143.680833 575.327399 142.392154 577.620941 140.098612 
C 579.914483 137.80507 581.203162 134.693923 581.203162 131.450365 
C 581.203162 128.206806 579.914483 125.095659 577.620941 122.802117 
C 575.327399 120.508575 572.216252 119.219896 568.972694 119.219896 
C 565.729135 119.219896 562.617988 120.508575 560.324446 122.802117 
C 558.030904 125.095659 556.742225 128.206806 556.742225 131.450365 
C 556.742225 134.693923 558.030904 137.80507 560.324446 140.098612 
C 562.617988 142.392154 565.729135 143.680833 568.972694 143.680833 
z
" style="fill: #f6f7f6; stroke: #f6f7f6; stroke-linejoin: miter"/>
    </g>
    <!-- 0.98 -->
    <g transform="translate(559.242225 134.035521) scale(0.1 -0.1)">
     <defs>
      <path id="ArialMT-39" d="M 350 1059 
L 891 1109 
Q 959 728 1153 556 
Q 1347 384 1650 384 
Q 1909 384 2104 503 
Q 2300 622 2425 820 
Q 2550 1019 2634 1356 
Q 2719 1694 2719 2044 
Q 2719 2081 2716 2156 
Q 2547 1888 2255 1720 
Q 1963 1553 1622 1553 
Q 1053 1553 659 1965 
Q 266 2378 266 3053 
Q 266 3750 677 4175 
Q 1088 4600 1706 4600 
Q 2153 4600 2523 4359 
Q 2894 4119 3086 3673 
Q 3278 3228 3278 2384 
Q 3278 1506 3087 986 
Q 2897 466 2520 194 
Q 2144 -78 1638 -78 
Q 1100 -78 759 220 
Q 419 519 350 1059 
z
M 2653 3081 
Q 2653 3566 2395 3850 
Q 2138 4134 1775 4134 
Q 1400 4134 1122 3828 
Q 844 3522 844 3034 
Q 844 2597 1108 2323 
Q 1372 2050 1759 2050 
Q 2150 2050 2401 2323 
Q 2653 2597 2653 3081 
z
" transform="scale(0.015625)"/>
     </defs>
     <use xlink:href="#ArialMT-30"/>
     <use xlink:href="#ArialMT-2e" x="55.615234"/>
     <use xlink:href="#ArialMT-39" x="83.398438"/>
     <use xlink:href="#ArialMT-38" x="139.013672"/>
    </g>
   </g>
   <g id="text_7">
    <g id="patch_80">
     <path d="M 631.142435 143.680833 
C 634.385994 143.680833 637.497141 142.392154 639.790683 140.098612 
C 642.084225 137.80507 643.372904 134.693923 643.372904 131.450365 
C 643.372904 128.206806 642.084225 125.095659 639.790683 122.802117 
C 637.497141 120.508575 634.385994 119.219896 631.142435 119.219896 
C 627.898877 119.219896 624.78773 120.508575 622.494188 122.802117 
C 620.200646 125.095659 618.911967 128.206806 618.911967 131.450365 
C 618.911967 134.693923 620.200646 137.80507 622.494188 140.098612 
C 624.78773 142.392154 627.898877 143.680833 631.142435 143.680833 
z
" style="fill: #f6f7f6; stroke: #f6f7f6; stroke-linejoin: miter"/>
    </g>
    <!-- 0.89 -->
    <g transform="translate(621.411967 134.035521) scale(0.1 -0.1)">
     <use xlink:href="#ArialMT-30"/>
     <use xlink:href="#ArialMT-2e" x="55.615234"/>
     <use xlink:href="#ArialMT-38" x="83.398438"/>
     <use xlink:href="#ArialMT-39" x="139.013672"/>
    </g>
   </g>
   <g id="text_8">
    <g id="patch_81">
     <path d="M 693.312177 143.680833 
C 696.555735 143.680833 699.666882 142.392154 701.960425 140.098612 
C 704.253967 137.80507 705.542646 134.693923 705.542646 131.450365 
C 705.542646 128.206806 704.253967 125.095659 701.960425 122.802117 
C 699.666882 120.508575 696.555735 119.219896 693.312177 119.219896 
C 690.068619 119.219896 686.957472 120.508575 684.66393 122.802117 
C 682.370388 125.095659 681.081708 128.206806 681.081708 131.450365 
C 681.081708 134.693923 682.370388 137.80507 684.66393 140.098612 
C 686.957472 142.392154 690.068619 143.680833 693.312177 143.680833 
z
" style="fill: #f6f7f6; stroke: #f6f7f6; stroke-linejoin: miter"/>
    </g>
    <!-- 0.12 -->
    <g transform="translate(683.581708 134.035521) scale(0.1 -0.1)">
     <defs>
      <path id="ArialMT-31" d="M 2384 0 
L 1822 0 
L 1822 3584 
Q 1619 3391 1289 3197 
Q 959 3003 697 2906 
L 697 3450 
Q 1169 3672 1522 3987 
Q 1875 4303 2022 4600 
L 2384 4600 
L 2384 0 
z
" transform="scale(0.015625)"/>
      <path id="ArialMT-32" d="M 3222 541 
L 3222 0 
L 194 0 
Q 188 203 259 391 
Q 375 700 629 1000 
Q 884 1300 1366 1694 
Q 2113 2306 2375 2664 
Q 2638 3022 2638 3341 
Q 2638 3675 2398 3904 
Q 2159 4134 1775 4134 
Q 1369 4134 1125 3890 
Q 881 3647 878 3216 
L 300 3275 
Q 359 3922 746 4261 
Q 1134 4600 1788 4600 
Q 2447 4600 2831 4234 
Q 3216 3869 3216 3328 
Q 3216 3053 3103 2787 
Q 2991 2522 2730 2228 
Q 2469 1934 1863 1422 
Q 1356 997 1212 845 
Q 1069 694 975 541 
L 3222 541 
z
" transform="scale(0.015625)"/>
     </defs>
     <use xlink:href="#ArialMT-30"/>
     <use xlink:href="#ArialMT-2e" x="55.615234"/>
     <use xlink:href="#ArialMT-31" x="83.398438"/>
     <use xlink:href="#ArialMT-32" x="139.013672"/>
    </g>
   </g>
   <g id="text_9">
    <g id="patch_82">
     <path d="M 755.481919 143.680833 
C 758.725477 143.680833 761.836624 142.392154 764.130166 140.098612 
C 766.423708 137.80507 767.712388 134.693923 767.712388 131.450365 
C 767.712388 128.206806 766.423708 125.095659 764.130166 122.802117 
C 761.836624 120.508575 758.725477 119.219896 755.481919 119.219896 
C 752.238361 119.219896 749.127213 120.508575 746.833671 122.802117 
C 744.540129 125.095659 743.25145 128.206806 743.25145 131.450365 
C 743.25145 134.693923 744.540129 137.80507 746.833671 140.098612 
C 749.127213 142.392154 752.238361 143.680833 755.481919 143.680833 
z
" style="fill: #c5e8bf; stroke: #c5e8bf; stroke-linejoin: miter"/>
    </g>
    <!-- 0.67 -->
    <g transform="translate(745.75145 134.035521) scale(0.1 -0.1)">
     <defs>
      <path id="ArialMT-37" d="M 303 3981 
L 303 4522 
L 3269 4522 
L 3269 4084 
Q 2831 3619 2401 2847 
Q 1972 2075 1738 1259 
Q 1569 684 1522 0 
L 944 0 
Q 953 541 1156 1306 
Q 1359 2072 1739 2783 
Q 2119 3494 2547 3981 
L 303 3981 
z
" transform="scale(0.015625)"/>
     </defs>
     <use xlink:href="#ArialMT-30"/>
     <use xlink:href="#ArialMT-2e" x="55.615234"/>
     <use xlink:href="#ArialMT-36" x="83.398438"/>
     <use xlink:href="#ArialMT-37" x="139.013672"/>
    </g>
   </g>
   <g id="text_10">
    <g id="patch_83">
     <path d="M 817.651661 143.680833 
C 820.895219 143.680833 824.006366 142.392154 826.299908 140.098612 
C 828.59345 137.80507 829.882129 134.693923 829.882129 131.450365 
C 829.882129 128.206806 828.59345 125.095659 826.299908 122.802117 
C 824.006366 120.508575 820.895219 119.219896 817.651661 119.219896 
C 814.408102 119.219896 811.296955 120.508575 809.003413 122.802117 
C 806.709871 125.095659 805.421192 128.206806 805.421192 131.450365 
C 805.421192 134.693923 806.709871 137.80507 809.003413 140.098612 
C 811.296955 142.392154 814.408102 143.680833 817.651661 143.680833 
z
" style="fill: #63b368; stroke: #63b368; stroke-linejoin: miter"/>
    </g>
    <!-- 0.43 -->
    <g style="fill: #ffffff" transform="translate(807.921192 134.035521) scale(0.1 -0.1)">
     <use xlink:href="#ArialMT-30"/>
     <use xlink:href="#ArialMT-2e" x="55.615234"/>
     <use xlink:href="#ArialMT-34" x="83.398438"/>
     <use xlink:href="#ArialMT-33" x="139.013672"/>
    </g>
   </g>
   <g id="text_11">
    <!-- CancerGPT -->
    <g transform="translate(205.279705 176.093389) scale(0.1 -0.1)">
     <defs>
      <path id="Arial-BoldMT-43" d="M 3397 1684 
L 4294 1400 
Q 4088 650 3608 286 
Q 3128 -78 2391 -78 
Q 1478 -78 890 545 
Q 303 1169 303 2250 
Q 303 3394 893 4026 
Q 1484 4659 2447 4659 
Q 3288 4659 3813 4163 
Q 4125 3869 4281 3319 
L 3366 3100 
Q 3284 3456 3026 3662 
Q 2769 3869 2400 3869 
Q 1891 3869 1573 3503 
Q 1256 3138 1256 2319 
Q 1256 1450 1568 1081 
Q 1881 713 2381 713 
Q 2750 713 3015 947 
Q 3281 1181 3397 1684 
z
" transform="scale(0.015625)"/>
      <path id="Arial-BoldMT-6e" d="M 3478 0 
L 2600 0 
L 2600 1694 
Q 2600 2231 2544 2389 
Q 2488 2547 2361 2634 
Q 2234 2722 2056 2722 
Q 1828 2722 1647 2597 
Q 1466 2472 1398 2265 
Q 1331 2059 1331 1503 
L 1331 0 
L 453 0 
L 453 3319 
L 1269 3319 
L 1269 2831 
Q 1703 3394 2363 3394 
Q 2653 3394 2893 3289 
Q 3134 3184 3257 3021 
Q 3381 2859 3429 2653 
Q 3478 2447 3478 2063 
L 3478 0 
z
" transform="scale(0.015625)"/>
      <path id="Arial-BoldMT-65" d="M 2381 1056 
L 3256 909 
Q 3088 428 2723 176 
Q 2359 -75 1813 -75 
Q 947 -75 531 491 
Q 203 944 203 1634 
Q 203 2459 634 2926 
Q 1066 3394 1725 3394 
Q 2466 3394 2894 2905 
Q 3322 2416 3303 1406 
L 1103 1406 
Q 1113 1016 1316 798 
Q 1519 581 1822 581 
Q 2028 581 2168 693 
Q 2309 806 2381 1056 
z
M 2431 1944 
Q 2422 2325 2234 2523 
Q 2047 2722 1778 2722 
Q 1491 2722 1303 2513 
Q 1116 2303 1119 1944 
L 2431 1944 
z
" transform="scale(0.015625)"/>
      <path id="Arial-BoldMT-72" d="M 1300 0 
L 422 0 
L 422 3319 
L 1238 3319 
L 1238 2847 
Q 1447 3181 1614 3287 
Q 1781 3394 1994 3394 
Q 2294 3394 2572 3228 
L 2300 2463 
Q 2078 2606 1888 2606 
Q 1703 2606 1575 2504 
Q 1447 2403 1373 2137 
Q 1300 1872 1300 1025 
L 1300 0 
z
" transform="scale(0.015625)"/>
      <path id="Arial-BoldMT-47" d="M 2597 1684 
L 2597 2456 
L 4591 2456 
L 4591 631 
Q 4300 350 3748 136 
Q 3197 -78 2631 -78 
Q 1913 -78 1378 223 
Q 844 525 575 1086 
Q 306 1647 306 2306 
Q 306 3022 606 3578 
Q 906 4134 1484 4431 
Q 1925 4659 2581 4659 
Q 3434 4659 3914 4301 
Q 4394 3944 4531 3313 
L 3613 3141 
Q 3516 3478 3248 3673 
Q 2981 3869 2581 3869 
Q 1975 3869 1617 3484 
Q 1259 3100 1259 2344 
Q 1259 1528 1621 1120 
Q 1984 713 2572 713 
Q 2863 713 3155 827 
Q 3447 941 3656 1103 
L 3656 1684 
L 2597 1684 
z
" transform="scale(0.015625)"/>
      <path id="Arial-BoldMT-50" d="M 466 0 
L 466 4581 
L 1950 4581 
Q 2794 4581 3050 4513 
Q 3444 4409 3709 4064 
Q 3975 3719 3975 3172 
Q 3975 2750 3822 2462 
Q 3669 2175 3433 2011 
Q 3197 1847 2953 1794 
Q 2622 1728 1994 1728 
L 1391 1728 
L 1391 0 
L 466 0 
z
M 1391 3806 
L 1391 2506 
L 1897 2506 
Q 2444 2506 2628 2578 
Q 2813 2650 2917 2803 
Q 3022 2956 3022 3159 
Q 3022 3409 2875 3571 
Q 2728 3734 2503 3775 
Q 2338 3806 1838 3806 
L 1391 3806 
z
" transform="scale(0.015625)"/>
      <path id="Arial-BoldMT-54" d="M 1497 0 
L 1497 3806 
L 138 3806 
L 138 4581 
L 3778 4581 
L 3778 3806 
L 2422 3806 
L 2422 0 
L 1497 0 
z
" transform="scale(0.015625)"/>
     </defs>
     <use xlink:href="#Arial-BoldMT-43"/>
     <use xlink:href="#Arial-BoldMT-61" x="72.216797"/>
     <use xlink:href="#Arial-BoldMT-6e" x="127.832031"/>
     <use xlink:href="#Arial-BoldMT-63" x="188.916016"/>
     <use xlink:href="#Arial-BoldMT-65" x="244.53125"/>
     <use xlink:href="#Arial-BoldMT-72" x="300.146484"/>
     <use xlink:href="#Arial-BoldMT-47" x="339.0625"/>
     <use xlink:href="#Arial-BoldMT-50" x="416.845703"/>
     <use xlink:href="#Arial-BoldMT-54" x="483.544922"/>
    </g>
   </g>
   <g id="text_12">
    <g id="patch_84">
     <path d="M 320.293727 185.731671 
C 323.537285 185.731671 326.648432 184.442991 328.941974 182.149449 
C 331.235516 179.855907 332.524196 176.74476 332.524196 173.501202 
C 332.524196 170.257644 331.235516 167.146497 328.941974 164.852955 
C 326.648432 162.559413 323.537285 161.270733 320.293727 161.270733 
C 317.050169 161.270733 313.939022 162.559413 311.64548 164.852955 
C 309.351938 167.146497 308.063258 170.257644 308.063258 173.501202 
C 308.063258 176.74476 309.351938 179.855907 311.64548 182.149449 
C 313.939022 184.442991 317.050169 185.731671 320.293727 185.731671 
z
" style="fill: #f2f6f1; stroke: #f2f6f1; stroke-linejoin: miter"/>
    </g>
    <!-- 0.81 -->
    <g transform="translate(310.563258 176.086358) scale(0.1 -0.1)">
     <use xlink:href="#ArialMT-30"/>
     <use xlink:href="#ArialMT-2e" x="55.615234"/>
     <use xlink:href="#ArialMT-38" x="83.398438"/>
     <use xlink:href="#ArialMT-31" x="139.013672"/>
    </g>
   </g>
   <g id="text_13">
    <g id="patch_85">
     <path d="M 382.463469 185.731671 
C 385.707027 185.731671 388.818174 184.442991 391.111716 182.149449 
C 393.405258 179.855907 394.693937 176.74476 394.693937 173.501202 
C 394.693937 170.257644 393.405258 167.146497 391.111716 164.852955 
C 388.818174 162.559413 385.707027 161.270733 382.463469 161.270733 
C 379.21991 161.270733 376.108763 162.559413 373.815221 164.852955 
C 371.521679 167.146497 370.233 170.257644 370.233 173.501202 
C 370.233 176.74476 371.521679 179.855907 373.815221 182.149449 
C 376.108763 184.442991 379.21991 185.731671 382.463469 185.731671 
z
" style="fill: #9c74ae; stroke: #9c74ae; stroke-linejoin: miter"/>
    </g>
    <!-- 0.29 -->
    <g style="fill: #ffffff" transform="translate(372.733 176.086358) scale(0.1 -0.1)">
     <use xlink:href="#ArialMT-30"/>
     <use xlink:href="#ArialMT-2e" x="55.615234"/>
     <use xlink:href="#ArialMT-32" x="83.398438"/>
     <use xlink:href="#ArialMT-39" x="139.013672"/>
    </g>
   </g>
   <g id="text_14">
    <g id="patch_86">
     <path d="M 444.63321 185.731671 
C 447.876769 185.731671 450.987916 184.442991 453.281458 182.149449 
C 455.575 179.855907 456.863679 176.74476 456.863679 173.501202 
C 456.863679 170.257644 455.575 167.146497 453.281458 164.852955 
C 450.987916 162.559413 447.876769 161.270733 444.63321 161.270733 
C 441.389652 161.270733 438.278505 162.559413 435.984963 164.852955 
C 433.691421 167.146497 432.402742 170.257644 432.402742 173.501202 
C 432.402742 176.74476 433.691421 179.855907 435.984963 182.149449 
C 438.278505 184.442991 441.389652 185.731671 444.63321 185.731671 
z
" style="fill: #f6f7f6; stroke: #f6f7f6; stroke-linejoin: miter"/>
    </g>
    <!-- 0.12 -->
    <g transform="translate(434.902742 176.086358) scale(0.1 -0.1)">
     <use xlink:href="#ArialMT-30"/>
     <use xlink:href="#ArialMT-2e" x="55.615234"/>
     <use xlink:href="#ArialMT-31" x="83.398438"/>
     <use xlink:href="#ArialMT-32" x="139.013672"/>
    </g>
   </g>
   <g id="text_15">
    <g id="patch_87">
     <path d="M 506.802952 185.731671 
C 510.04651 185.731671 513.157657 184.442991 515.451199 182.149449 
C 517.744741 179.855907 519.033421 176.74476 519.033421 173.501202 
C 519.033421 170.257644 517.744741 167.146497 515.451199 164.852955 
C 513.157657 162.559413 510.04651 161.270733 506.802952 161.270733 
C 503.559394 161.270733 500.448247 162.559413 498.154705 164.852955 
C 495.861163 167.146497 494.572483 170.257644 494.572483 173.501202 
C 494.572483 176.74476 495.861163 179.855907 498.154705 182.149449 
C 500.448247 184.442991 503.559394 185.731671 506.802952 185.731671 
z
" style="fill: #f6f7f6; stroke: #f6f7f6; stroke-linejoin: miter"/>
    </g>
    <!-- 0.46 -->
    <g transform="translate(497.072483 176.086358) scale(0.1 -0.1)">
     <use xlink:href="#ArialMT-30"/>
     <use xlink:href="#ArialMT-2e" x="55.615234"/>
     <use xlink:href="#ArialMT-34" x="83.398438"/>
     <use xlink:href="#ArialMT-36" x="139.013672"/>
    </g>
   </g>
   <g id="text_16">
    <g id="patch_88">
     <path d="M 568.972694 185.731671 
C 572.216252 185.731671 575.327399 184.442991 577.620941 182.149449 
C 579.914483 179.855907 581.203162 176.74476 581.203162 173.501202 
C 581.203162 170.257644 579.914483 167.146497 577.620941 164.852955 
C 575.327399 162.559413 572.216252 161.270733 568.972694 161.270733 
C 565.729135 161.270733 562.617988 162.559413 560.324446 164.852955 
C 558.030904 167.146497 556.742225 170.257644 556.742225 173.501202 
C 556.742225 176.74476 558.030904 179.855907 560.324446 182.149449 
C 562.617988 184.442991 565.729135 185.731671 568.972694 185.731671 
z
" style="fill: #8e5a9e; stroke: #8e5a9e; stroke-linejoin: miter"/>
    </g>
    <!-- 0.92 -->
    <g style="fill: #ffffff" transform="translate(559.242225 176.086358) scale(0.1 -0.1)">
     <use xlink:href="#ArialMT-30"/>
     <use xlink:href="#ArialMT-2e" x="55.615234"/>
     <use xlink:href="#ArialMT-39" x="83.398438"/>
     <use xlink:href="#ArialMT-32" x="139.013672"/>
    </g>
   </g>
   <g id="text_17">
    <g id="patch_89">
     <path d="M 631.142435 185.731671 
C 634.385994 185.731671 637.497141 184.442991 639.790683 182.149449 
C 642.084225 179.855907 643.372904 176.74476 643.372904 173.501202 
C 643.372904 170.257644 642.084225 167.146497 639.790683 164.852955 
C 637.497141 162.559413 634.385994 161.270733 631.142435 161.270733 
C 627.898877 161.270733 624.78773 162.559413 622.494188 164.852955 
C 620.200646 167.146497 618.911967 170.257644 618.911967 173.501202 
C 618.911967 176.74476 620.200646 179.855907 622.494188 182.149449 
C 624.78773 184.442991 627.898877 185.731671 631.142435 185.731671 
z
" style="fill: #f3f6f2; stroke: #f3f6f2; stroke-linejoin: miter"/>
    </g>
    <!-- 0.90 -->
    <g transform="translate(621.411967 176.086358) scale(0.1 -0.1)">
     <use xlink:href="#ArialMT-30"/>
     <use xlink:href="#ArialMT-2e" x="55.615234"/>
     <use xlink:href="#ArialMT-39" x="83.398438"/>
     <use xlink:href="#ArialMT-30" x="139.013672"/>
    </g>
   </g>
   <g id="text_18">
    <g id="patch_90">
     <path d="M 693.312177 185.731671 
C 696.555735 185.731671 699.666882 184.442991 701.960425 182.149449 
C 704.253967 179.855907 705.542646 176.74476 705.542646 173.501202 
C 705.542646 170.257644 704.253967 167.146497 701.960425 164.852955 
C 699.666882 162.559413 696.555735 161.270733 693.312177 161.270733 
C 690.068619 161.270733 686.957472 162.559413 684.66393 164.852955 
C 682.370388 167.146497 681.081708 170.257644 681.081708 173.501202 
C 681.081708 176.74476 682.370388 179.855907 684.66393 182.149449 
C 686.957472 184.442991 690.068619 185.731671 693.312177 185.731671 
z
" style="fill: #d7efd1; stroke: #d7efd1; stroke-linejoin: miter"/>
    </g>
    <!-- 0.14 -->
    <g transform="translate(683.581708 176.086358) scale(0.1 -0.1)">
     <use xlink:href="#ArialMT-30"/>
     <use xlink:href="#ArialMT-2e" x="55.615234"/>
     <use xlink:href="#ArialMT-31" x="83.398438"/>
     <use xlink:href="#ArialMT-34" x="139.013672"/>
    </g>
   </g>
   <g id="text_19">
    <g id="patch_91">
     <path d="M 755.481919 185.731671 
C 758.725477 185.731671 761.836624 184.442991 764.130166 182.149449 
C 766.423708 179.855907 767.712388 176.74476 767.712388 173.501202 
C 767.712388 170.257644 766.423708 167.146497 764.130166 164.852955 
C 761.836624 162.559413 758.725477 161.270733 755.481919 161.270733 
C 752.238361 161.270733 749.127213 162.559413 746.833671 164.852955 
C 744.540129 167.146497 743.25145 170.257644 743.25145 173.501202 
C 743.25145 176.74476 744.540129 179.855907 746.833671 182.149449 
C 749.127213 184.442991 752.238361 185.731671 755.481919 185.731671 
z
" style="fill: #f6f7f6; stroke: #f6f7f6; stroke-linejoin: miter"/>
    </g>
    <!-- 0.50 -->
    <g transform="translate(745.75145 176.086358) scale(0.1 -0.1)">
     <use xlink:href="#ArialMT-30"/>
     <use xlink:href="#ArialMT-2e" x="55.615234"/>
     <use xlink:href="#ArialMT-35" x="83.398438"/>
     <use xlink:href="#ArialMT-30" x="139.013672"/>
    </g>
   </g>
   <g id="text_20">
    <g id="patch_92">
     <path d="M 817.651661 185.731671 
C 820.895219 185.731671 824.006366 184.442991 826.299908 182.149449 
C 828.59345 179.855907 829.882129 176.74476 829.882129 173.501202 
C 829.882129 170.257644 828.59345 167.146497 826.299908 164.852955 
C 824.006366 162.559413 820.895219 161.270733 817.651661 161.270733 
C 814.408102 161.270733 811.296955 162.559413 809.003413 164.852955 
C 806.709871 167.146497 805.421192 170.257644 805.421192 173.501202 
C 805.421192 176.74476 806.709871 179.855907 809.003413 182.149449 
C 811.296955 184.442991 814.408102 185.731671 817.651661 185.731671 
z
" style="fill: #e7d4e8; stroke: #e7d4e8; stroke-linejoin: miter"/>
    </g>
    <!-- 0.31 -->
    <g transform="translate(807.921192 176.086358) scale(0.1 -0.1)">
     <use xlink:href="#ArialMT-30"/>
     <use xlink:href="#ArialMT-2e" x="55.615234"/>
     <use xlink:href="#ArialMT-33" x="83.398438"/>
     <use xlink:href="#ArialMT-31" x="139.013672"/>
    </g>
   </g>
   <g id="text_21">
    <!-- X_umap -->
    <g transform="translate(205.279705 218.141883) scale(0.1 -0.1)">
     <defs>
      <path id="Arial-BoldMT-75" d="M 2644 0 
L 2644 497 
Q 2463 231 2167 78 
Q 1872 -75 1544 -75 
Q 1209 -75 943 72 
Q 678 219 559 484 
Q 441 750 441 1219 
L 441 3319 
L 1319 3319 
L 1319 1794 
Q 1319 1094 1367 936 
Q 1416 778 1544 686 
Q 1672 594 1869 594 
Q 2094 594 2272 717 
Q 2450 841 2515 1023 
Q 2581 1206 2581 1919 
L 2581 3319 
L 3459 3319 
L 3459 0 
L 2644 0 
z
" transform="scale(0.015625)"/>
      <path id="Arial-BoldMT-6d" d="M 394 3319 
L 1203 3319 
L 1203 2866 
Q 1638 3394 2238 3394 
Q 2556 3394 2790 3262 
Q 3025 3131 3175 2866 
Q 3394 3131 3647 3262 
Q 3900 3394 4188 3394 
Q 4553 3394 4806 3245 
Q 5059 3097 5184 2809 
Q 5275 2597 5275 2122 
L 5275 0 
L 4397 0 
L 4397 1897 
Q 4397 2391 4306 2534 
Q 4184 2722 3931 2722 
Q 3747 2722 3584 2609 
Q 3422 2497 3350 2280 
Q 3278 2063 3278 1594 
L 3278 0 
L 2400 0 
L 2400 1819 
Q 2400 2303 2353 2443 
Q 2306 2584 2207 2653 
Q 2109 2722 1941 2722 
Q 1738 2722 1575 2612 
Q 1413 2503 1342 2297 
Q 1272 2091 1272 1613 
L 1272 0 
L 394 0 
L 394 3319 
z
" transform="scale(0.015625)"/>
     </defs>
     <use xlink:href="#Arial-BoldMT-58"/>
     <use xlink:href="#Arial-BoldMT-5f" x="66.699219"/>
     <use xlink:href="#Arial-BoldMT-75" x="122.314453"/>
     <use xlink:href="#Arial-BoldMT-6d" x="183.398438"/>
     <use xlink:href="#Arial-BoldMT-61" x="272.314453"/>
     <use xlink:href="#Arial-BoldMT-70" x="327.929688"/>
    </g>
   </g>
   <g id="text_22">
    <g id="patch_93">
     <path d="M 320.293727 227.782508 
C 323.537285 227.782508 326.648432 226.493829 328.941974 224.200287 
C 331.235516 221.906745 332.524196 218.795598 332.524196 215.552039 
C 332.524196 212.308481 331.235516 209.197334 328.941974 206.903792 
C 326.648432 204.61025 323.537285 203.321571 320.293727 203.321571 
C 317.050169 203.321571 313.939022 204.61025 311.64548 206.903792 
C 309.351938 209.197334 308.063258 212.308481 308.063258 215.552039 
C 308.063258 218.795598 309.351938 221.906745 311.64548 224.200287 
C 313.939022 226.493829 317.050169 227.782508 320.293727 227.782508 
z
" style="fill: #8b559b; stroke: #8b559b; stroke-linejoin: miter"/>
    </g>
    <!-- 0.46 -->
    <g style="fill: #ffffff" transform="translate(310.563258 218.137196) scale(0.1 -0.1)">
     <use xlink:href="#ArialMT-30"/>
     <use xlink:href="#ArialMT-2e" x="55.615234"/>
     <use xlink:href="#ArialMT-34" x="83.398438"/>
     <use xlink:href="#ArialMT-36" x="139.013672"/>
    </g>
   </g>
   <g id="text_23">
    <g id="patch_94">
     <path d="M 382.463469 227.782508 
C 385.707027 227.782508 388.818174 226.493829 391.111716 224.200287 
C 393.405258 221.906745 394.693937 218.795598 394.693937 215.552039 
C 394.693937 212.308481 393.405258 209.197334 391.111716 206.903792 
C 388.818174 204.61025 385.707027 203.321571 382.463469 203.321571 
C 379.21991 203.321571 376.108763 204.61025 373.815221 206.903792 
C 371.521679 209.197334 370.233 212.308481 370.233 215.552039 
C 370.233 218.795598 371.521679 221.906745 373.815221 224.200287 
C 376.108763 226.493829 379.21991 227.782508 382.463469 227.782508 
z
" style="fill: #f6f7f6; stroke: #f6f7f6; stroke-linejoin: miter"/>
    </g>
    <!-- 0.50 -->
    <g transform="translate(372.733 218.137196) scale(0.1 -0.1)">
     <use xlink:href="#ArialMT-30"/>
     <use xlink:href="#ArialMT-2e" x="55.615234"/>
     <use xlink:href="#ArialMT-35" x="83.398438"/>
     <use xlink:href="#ArialMT-30" x="139.013672"/>
    </g>
   </g>
   <g id="text_24">
    <g id="patch_95">
     <path d="M 444.63321 227.782508 
C 447.876769 227.782508 450.987916 226.493829 453.281458 224.200287 
C 455.575 221.906745 456.863679 218.795598 456.863679 215.552039 
C 456.863679 212.308481 455.575 209.197334 453.281458 206.903792 
C 450.987916 204.61025 447.876769 203.321571 444.63321 203.321571 
C 441.389652 203.321571 438.278505 204.61025 435.984963 206.903792 
C 433.691421 209.197334 432.402742 212.308481 432.402742 215.552039 
C 432.402742 218.795598 433.691421 221.906745 435.984963 224.200287 
C 438.278505 226.493829 441.389652 227.782508 444.63321 227.782508 
z
" style="fill: #efe4ef; stroke: #efe4ef; stroke-linejoin: miter"/>
    </g>
    <!-- 0.08 -->
    <g transform="translate(434.902742 218.137196) scale(0.1 -0.1)">
     <use xlink:href="#ArialMT-30"/>
     <use xlink:href="#ArialMT-2e" x="55.615234"/>
     <use xlink:href="#ArialMT-30" x="83.398438"/>
     <use xlink:href="#ArialMT-38" x="139.013672"/>
    </g>
   </g>
   <g id="text_25">
    <g id="patch_96">
     <path d="M 506.802952 227.782508 
C 510.04651 227.782508 513.157657 226.493829 515.451199 224.200287 
C 517.744741 221.906745 519.033421 218.795598 519.033421 215.552039 
C 519.033421 212.308481 517.744741 209.197334 515.451199 206.903792 
C 513.157657 204.61025 510.04651 203.321571 506.802952 203.321571 
C 503.559394 203.321571 500.448247 204.61025 498.154705 206.903792 
C 495.861163 209.197334 494.572483 212.308481 494.572483 215.552039 
C 494.572483 218.795598 495.861163 221.906745 498.154705 224.200287 
C 500.448247 226.493829 503.559394 227.782508 506.802952 227.782508 
z
" style="fill: #9e76af; stroke: #9e76af; stroke-linejoin: miter"/>
    </g>
    <!-- 0.40 -->
    <g style="fill: #ffffff" transform="translate(497.072483 218.137196) scale(0.1 -0.1)">
     <use xlink:href="#ArialMT-30"/>
     <use xlink:href="#ArialMT-2e" x="55.615234"/>
     <use xlink:href="#ArialMT-34" x="83.398438"/>
     <use xlink:href="#ArialMT-30" x="139.013672"/>
    </g>
   </g>
   <g id="text_26">
    <g id="patch_97">
     <path d="M 568.972694 227.782508 
C 572.216252 227.782508 575.327399 226.493829 577.620941 224.200287 
C 579.914483 221.906745 581.203162 218.795598 581.203162 215.552039 
C 581.203162 212.308481 579.914483 209.197334 577.620941 206.903792 
C 575.327399 204.61025 572.216252 203.321571 568.972694 203.321571 
C 565.729135 203.321571 562.617988 204.61025 560.324446 206.903792 
C 558.030904 209.197334 556.742225 212.308481 556.742225 215.552039 
C 556.742225 218.795598 558.030904 221.906745 560.324446 224.200287 
C 562.617988 226.493829 565.729135 227.782508 568.972694 227.782508 
z
" style="fill: #eef5ec; stroke: #eef5ec; stroke-linejoin: miter"/>
    </g>
    <!-- 0.98 -->
    <g transform="translate(559.242225 218.137196) scale(0.1 -0.1)">
     <use xlink:href="#ArialMT-30"/>
     <use xlink:href="#ArialMT-2e" x="55.615234"/>
     <use xlink:href="#ArialMT-39" x="83.398438"/>
     <use xlink:href="#ArialMT-38" x="139.013672"/>
    </g>
   </g>
   <g id="text_27">
    <g id="patch_98">
     <path d="M 631.142435 227.782508 
C 634.385994 227.782508 637.497141 226.493829 639.790683 224.200287 
C 642.084225 221.906745 643.372904 218.795598 643.372904 215.552039 
C 643.372904 212.308481 642.084225 209.197334 639.790683 206.903792 
C 637.497141 204.61025 634.385994 203.321571 631.142435 203.321571 
C 627.898877 203.321571 624.78773 204.61025 622.494188 206.903792 
C 620.200646 209.197334 618.911967 212.308481 618.911967 215.552039 
C 618.911967 218.795598 620.200646 221.906745 622.494188 224.200287 
C 624.78773 226.493829 627.898877 227.782508 631.142435 227.782508 
z
" style="fill: #8b559b; stroke: #8b559b; stroke-linejoin: miter"/>
    </g>
    <!-- 0.63 -->
    <g style="fill: #ffffff" transform="translate(621.411967 218.137196) scale(0.1 -0.1)">
     <use xlink:href="#ArialMT-30"/>
     <use xlink:href="#ArialMT-2e" x="55.615234"/>
     <use xlink:href="#ArialMT-36" x="83.398438"/>
     <use xlink:href="#ArialMT-33" x="139.013672"/>
    </g>
   </g>
   <g id="text_28">
    <g id="patch_99">
     <path d="M 693.312177 227.782508 
C 696.555735 227.782508 699.666882 226.493829 701.960425 224.200287 
C 704.253967 221.906745 705.542646 218.795598 705.542646 215.552039 
C 705.542646 212.308481 704.253967 209.197334 701.960425 206.903792 
C 699.666882 204.61025 696.555735 203.321571 693.312177 203.321571 
C 690.068619 203.321571 686.957472 204.61025 684.66393 206.903792 
C 682.370388 209.197334 681.081708 212.308481 681.081708 215.552039 
C 681.081708 218.795598 682.370388 221.906745 684.66393 224.200287 
C 686.957472 226.493829 690.068619 227.782508 693.312177 227.782508 
z
" style="fill: #9f78b1; stroke: #9f78b1; stroke-linejoin: miter"/>
    </g>
    <!-- 0.08 -->
    <g style="fill: #ffffff" transform="translate(683.581708 218.137196) scale(0.1 -0.1)">
     <use xlink:href="#ArialMT-30"/>
     <use xlink:href="#ArialMT-2e" x="55.615234"/>
     <use xlink:href="#ArialMT-30" x="83.398438"/>
     <use xlink:href="#ArialMT-38" x="139.013672"/>
    </g>
   </g>
   <g id="text_29">
    <g id="patch_100">
     <path d="M 755.481919 227.782508 
C 758.725477 227.782508 761.836624 226.493829 764.130166 224.200287 
C 766.423708 221.906745 767.712388 218.795598 767.712388 215.552039 
C 767.712388 212.308481 766.423708 209.197334 764.130166 206.903792 
C 761.836624 204.61025 758.725477 203.321571 755.481919 203.321571 
C 752.238361 203.321571 749.127213 204.61025 746.833671 206.903792 
C 744.540129 209.197334 743.25145 212.308481 743.25145 215.552039 
C 743.25145 218.795598 744.540129 221.906745 746.833671 224.200287 
C 749.127213 226.493829 752.238361 227.782508 755.481919 227.782508 
z
" style="fill: #ab87bb; stroke: #ab87bb; stroke-linejoin: miter"/>
    </g>
    <!-- 0.19 -->
    <g transform="translate(745.75145 218.137196) scale(0.1 -0.1)">
     <use xlink:href="#ArialMT-30"/>
     <use xlink:href="#ArialMT-2e" x="55.615234"/>
     <use xlink:href="#ArialMT-31" x="83.398438"/>
     <use xlink:href="#ArialMT-39" x="139.013672"/>
    </g>
   </g>
   <g id="text_30">
    <g id="patch_101">
     <path d="M 817.651661 227.782508 
C 820.895219 227.782508 824.006366 226.493829 826.299908 224.200287 
C 828.59345 221.906745 829.882129 218.795598 829.882129 215.552039 
C 829.882129 212.308481 828.59345 209.197334 826.299908 206.903792 
C 824.006366 204.61025 820.895219 203.321571 817.651661 203.321571 
C 814.408102 203.321571 811.296955 204.61025 809.003413 206.903792 
C 806.709871 209.197334 805.421192 212.308481 805.421192 215.552039 
C 805.421192 218.795598 806.709871 221.906745 809.003413 224.200287 
C 811.296955 226.493829 814.408102 227.782508 817.651661 227.782508 
z
" style="fill: #f6f7f6; stroke: #f6f7f6; stroke-linejoin: miter"/>
    </g>
    <!-- 0.34 -->
    <g transform="translate(807.921192 218.137196) scale(0.1 -0.1)">
     <use xlink:href="#ArialMT-30"/>
     <use xlink:href="#ArialMT-2e" x="55.615234"/>
     <use xlink:href="#ArialMT-33" x="83.398438"/>
     <use xlink:href="#ArialMT-34" x="139.013672"/>
    </g>
   </g>
   <g id="text_31">
    <!-- Method -->
    <g style="fill: #262626" transform="translate(205.279705 91.991715) scale(0.1 -0.1)">
     <defs>
      <path id="Arial-BoldMT-4d" d="M 453 0 
L 453 4581 
L 1838 4581 
L 2669 1456 
L 3491 4581 
L 4878 4581 
L 4878 0 
L 4019 0 
L 4019 3606 
L 3109 0 
L 2219 0 
L 1313 3606 
L 1313 0 
L 453 0 
z
" transform="scale(0.015625)"/>
      <path id="Arial-BoldMT-74" d="M 1981 3319 
L 1981 2619 
L 1381 2619 
L 1381 1281 
Q 1381 875 1398 808 
Q 1416 741 1477 697 
Q 1538 653 1625 653 
Q 1747 653 1978 738 
L 2053 56 
Q 1747 -75 1359 -75 
Q 1122 -75 931 4 
Q 741 84 652 211 
Q 563 338 528 553 
Q 500 706 500 1172 
L 500 2619 
L 97 2619 
L 97 3319 
L 500 3319 
L 500 3978 
L 1381 4491 
L 1381 3319 
L 1981 3319 
z
" transform="scale(0.015625)"/>
      <path id="Arial-BoldMT-68" d="M 1334 4581 
L 1334 2897 
Q 1759 3394 2350 3394 
Q 2653 3394 2897 3281 
Q 3141 3169 3264 2994 
Q 3388 2819 3433 2606 
Q 3478 2394 3478 1947 
L 3478 0 
L 2600 0 
L 2600 1753 
Q 2600 2275 2550 2415 
Q 2500 2556 2373 2639 
Q 2247 2722 2056 2722 
Q 1838 2722 1666 2615 
Q 1494 2509 1414 2295 
Q 1334 2081 1334 1663 
L 1334 0 
L 456 0 
L 456 4581 
L 1334 4581 
z
" transform="scale(0.015625)"/>
      <path id="Arial-BoldMT-6f" d="M 256 1706 
Q 256 2144 472 2553 
Q 688 2963 1083 3178 
Q 1478 3394 1966 3394 
Q 2719 3394 3200 2905 
Q 3681 2416 3681 1669 
Q 3681 916 3195 420 
Q 2709 -75 1972 -75 
Q 1516 -75 1102 131 
Q 688 338 472 736 
Q 256 1134 256 1706 
z
M 1156 1659 
Q 1156 1166 1390 903 
Q 1625 641 1969 641 
Q 2313 641 2545 903 
Q 2778 1166 2778 1666 
Q 2778 2153 2545 2415 
Q 2313 2678 1969 2678 
Q 1625 2678 1390 2415 
Q 1156 2153 1156 1659 
z
" transform="scale(0.015625)"/>
      <path id="Arial-BoldMT-64" d="M 3503 0 
L 2688 0 
L 2688 488 
Q 2484 203 2207 64 
Q 1931 -75 1650 -75 
Q 1078 -75 670 386 
Q 263 847 263 1672 
Q 263 2516 659 2955 
Q 1056 3394 1663 3394 
Q 2219 3394 2625 2931 
L 2625 4581 
L 3503 4581 
L 3503 0 
z
M 1159 1731 
Q 1159 1200 1306 963 
Q 1519 619 1900 619 
Q 2203 619 2415 876 
Q 2628 1134 2628 1647 
Q 2628 2219 2422 2470 
Q 2216 2722 1894 2722 
Q 1581 2722 1370 2473 
Q 1159 2225 1159 1731 
z
" transform="scale(0.015625)"/>
     </defs>
     <use xlink:href="#Arial-BoldMT-4d"/>
     <use xlink:href="#Arial-BoldMT-65" x="83.300781"/>
     <use xlink:href="#Arial-BoldMT-74" x="138.916016"/>
     <use xlink:href="#Arial-BoldMT-68" x="172.216797"/>
     <use xlink:href="#Arial-BoldMT-6f" x="233.300781"/>
     <use xlink:href="#Arial-BoldMT-64" x="294.384766"/>
    </g>
   </g>
   <g id="text_32">
    <!-- Isolated -->
    <g style="fill: #262626" transform="translate(302.782789 86.696246) scale(0.1 -0.1)">
     <defs>
      <path id="ArialMT-49" d="M 597 0 
L 597 4581 
L 1203 4581 
L 1203 0 
L 597 0 
z
" transform="scale(0.015625)"/>
      <path id="ArialMT-73" d="M 197 991 
L 753 1078 
Q 800 744 1014 566 
Q 1228 388 1613 388 
Q 2000 388 2187 545 
Q 2375 703 2375 916 
Q 2375 1106 2209 1216 
Q 2094 1291 1634 1406 
Q 1016 1563 777 1677 
Q 538 1791 414 1992 
Q 291 2194 291 2438 
Q 291 2659 392 2848 
Q 494 3038 669 3163 
Q 800 3259 1026 3326 
Q 1253 3394 1513 3394 
Q 1903 3394 2198 3281 
Q 2494 3169 2634 2976 
Q 2775 2784 2828 2463 
L 2278 2388 
Q 2241 2644 2061 2787 
Q 1881 2931 1553 2931 
Q 1166 2931 1000 2803 
Q 834 2675 834 2503 
Q 834 2394 903 2306 
Q 972 2216 1119 2156 
Q 1203 2125 1616 2013 
Q 2213 1853 2448 1751 
Q 2684 1650 2818 1456 
Q 2953 1263 2953 975 
Q 2953 694 2789 445 
Q 2625 197 2315 61 
Q 2006 -75 1616 -75 
Q 969 -75 630 194 
Q 291 463 197 991 
z
" transform="scale(0.015625)"/>
      <path id="ArialMT-6f" d="M 213 1659 
Q 213 2581 725 3025 
Q 1153 3394 1769 3394 
Q 2453 3394 2887 2945 
Q 3322 2497 3322 1706 
Q 3322 1066 3130 698 
Q 2938 331 2570 128 
Q 2203 -75 1769 -75 
Q 1072 -75 642 372 
Q 213 819 213 1659 
z
M 791 1659 
Q 791 1022 1069 705 
Q 1347 388 1769 388 
Q 2188 388 2466 706 
Q 2744 1025 2744 1678 
Q 2744 2294 2464 2611 
Q 2184 2928 1769 2928 
Q 1347 2928 1069 2612 
Q 791 2297 791 1659 
z
" transform="scale(0.015625)"/>
      <path id="ArialMT-6c" d="M 409 0 
L 409 4581 
L 972 4581 
L 972 0 
L 409 0 
z
" transform="scale(0.015625)"/>
      <path id="ArialMT-61" d="M 2588 409 
Q 2275 144 1986 34 
Q 1697 -75 1366 -75 
Q 819 -75 525 192 
Q 231 459 231 875 
Q 231 1119 342 1320 
Q 453 1522 633 1644 
Q 813 1766 1038 1828 
Q 1203 1872 1538 1913 
Q 2219 1994 2541 2106 
Q 2544 2222 2544 2253 
Q 2544 2597 2384 2738 
Q 2169 2928 1744 2928 
Q 1347 2928 1158 2789 
Q 969 2650 878 2297 
L 328 2372 
Q 403 2725 575 2942 
Q 747 3159 1072 3276 
Q 1397 3394 1825 3394 
Q 2250 3394 2515 3294 
Q 2781 3194 2906 3042 
Q 3031 2891 3081 2659 
Q 3109 2516 3109 2141 
L 3109 1391 
Q 3109 606 3145 398 
Q 3181 191 3288 0 
L 2700 0 
Q 2613 175 2588 409 
z
M 2541 1666 
Q 2234 1541 1622 1453 
Q 1275 1403 1131 1340 
Q 988 1278 909 1158 
Q 831 1038 831 891 
Q 831 666 1001 516 
Q 1172 366 1500 366 
Q 1825 366 2078 508 
Q 2331 650 2450 897 
Q 2541 1088 2541 1459 
L 2541 1666 
z
" transform="scale(0.015625)"/>
      <path id="ArialMT-74" d="M 1650 503 
L 1731 6 
Q 1494 -44 1306 -44 
Q 1000 -44 831 53 
Q 663 150 594 308 
Q 525 466 525 972 
L 525 2881 
L 113 2881 
L 113 3319 
L 525 3319 
L 525 4141 
L 1084 4478 
L 1084 3319 
L 1650 3319 
L 1650 2881 
L 1084 2881 
L 1084 941 
Q 1084 700 1114 631 
Q 1144 563 1211 522 
Q 1278 481 1403 481 
Q 1497 481 1650 503 
z
" transform="scale(0.015625)"/>
      <path id="ArialMT-65" d="M 2694 1069 
L 3275 997 
Q 3138 488 2766 206 
Q 2394 -75 1816 -75 
Q 1088 -75 661 373 
Q 234 822 234 1631 
Q 234 2469 665 2931 
Q 1097 3394 1784 3394 
Q 2450 3394 2872 2941 
Q 3294 2488 3294 1666 
Q 3294 1616 3291 1516 
L 816 1516 
Q 847 969 1125 678 
Q 1403 388 1819 388 
Q 2128 388 2347 550 
Q 2566 713 2694 1069 
z
M 847 1978 
L 2700 1978 
Q 2663 2397 2488 2606 
Q 2219 2931 1791 2931 
Q 1403 2931 1139 2672 
Q 875 2413 847 1978 
z
" transform="scale(0.015625)"/>
      <path id="ArialMT-64" d="M 2575 0 
L 2575 419 
Q 2259 -75 1647 -75 
Q 1250 -75 917 144 
Q 584 363 401 755 
Q 219 1147 219 1656 
Q 219 2153 384 2558 
Q 550 2963 881 3178 
Q 1213 3394 1622 3394 
Q 1922 3394 2156 3267 
Q 2391 3141 2538 2938 
L 2538 4581 
L 3097 4581 
L 3097 0 
L 2575 0 
z
M 797 1656 
Q 797 1019 1065 703 
Q 1334 388 1700 388 
Q 2069 388 2326 689 
Q 2584 991 2584 1609 
Q 2584 2291 2321 2609 
Q 2059 2928 1675 2928 
Q 1300 2928 1048 2622 
Q 797 2316 797 1656 
z
" transform="scale(0.015625)"/>
     </defs>
     <use xlink:href="#ArialMT-49"/>
     <use xlink:href="#ArialMT-73" x="27.783203"/>
     <use xlink:href="#ArialMT-6f" x="77.783203"/>
     <use xlink:href="#ArialMT-6c" x="133.398438"/>
     <use xlink:href="#ArialMT-61" x="155.615234"/>
     <use xlink:href="#ArialMT-74" x="211.230469"/>
     <use xlink:href="#ArialMT-65" x="239.013672"/>
     <use xlink:href="#ArialMT-64" x="294.628906"/>
    </g>
    <!-- labels -->
    <g style="fill: #262626" transform="translate(307.230446 97.273121) scale(0.1 -0.1)">
     <defs>
      <path id="ArialMT-62" d="M 941 0 
L 419 0 
L 419 4581 
L 981 4581 
L 981 2947 
Q 1338 3394 1891 3394 
Q 2197 3394 2470 3270 
Q 2744 3147 2920 2923 
Q 3097 2700 3197 2384 
Q 3297 2069 3297 1709 
Q 3297 856 2875 390 
Q 2453 -75 1863 -75 
Q 1275 -75 941 416 
L 941 0 
z
M 934 1684 
Q 934 1088 1097 822 
Q 1363 388 1816 388 
Q 2184 388 2453 708 
Q 2722 1028 2722 1663 
Q 2722 2313 2464 2622 
Q 2206 2931 1841 2931 
Q 1472 2931 1203 2611 
Q 934 2291 934 1684 
z
" transform="scale(0.015625)"/>
     </defs>
     <use xlink:href="#ArialMT-6c"/>
     <use xlink:href="#ArialMT-61" x="22.216797"/>
     <use xlink:href="#ArialMT-62" x="77.832031"/>
     <use xlink:href="#ArialMT-65" x="133.447266"/>
     <use xlink:href="#ArialMT-6c" x="189.0625"/>
     <use xlink:href="#ArialMT-73" x="211.279297"/>
    </g>
   </g>
   <g id="text_33">
    <!-- Leiden -->
    <g style="fill: #262626" transform="translate(367.450187 86.696246) scale(0.1 -0.1)">
     <defs>
      <path id="ArialMT-4c" d="M 469 0 
L 469 4581 
L 1075 4581 
L 1075 541 
L 3331 541 
L 3331 0 
L 469 0 
z
" transform="scale(0.015625)"/>
      <path id="ArialMT-69" d="M 425 3934 
L 425 4581 
L 988 4581 
L 988 3934 
L 425 3934 
z
M 425 0 
L 425 3319 
L 988 3319 
L 988 0 
L 425 0 
z
" transform="scale(0.015625)"/>
      <path id="ArialMT-6e" d="M 422 0 
L 422 3319 
L 928 3319 
L 928 2847 
Q 1294 3394 1984 3394 
Q 2284 3394 2536 3286 
Q 2788 3178 2913 3003 
Q 3038 2828 3088 2588 
Q 3119 2431 3119 2041 
L 3119 0 
L 2556 0 
L 2556 2019 
Q 2556 2363 2490 2533 
Q 2425 2703 2258 2804 
Q 2091 2906 1866 2906 
Q 1506 2906 1245 2678 
Q 984 2450 984 1813 
L 984 0 
L 422 0 
z
" transform="scale(0.015625)"/>
     </defs>
     <use xlink:href="#ArialMT-4c"/>
     <use xlink:href="#ArialMT-65" x="55.615234"/>
     <use xlink:href="#ArialMT-69" x="111.230469"/>
     <use xlink:href="#ArialMT-64" x="133.447266"/>
     <use xlink:href="#ArialMT-65" x="189.0625"/>
     <use xlink:href="#ArialMT-6e" x="244.677734"/>
    </g>
    <!-- NMI -->
    <g style="fill: #262626" transform="translate(373.298625 97.273121) scale(0.1 -0.1)">
     <defs>
      <path id="ArialMT-4e" d="M 488 0 
L 488 4581 
L 1109 4581 
L 3516 984 
L 3516 4581 
L 4097 4581 
L 4097 0 
L 3475 0 
L 1069 3600 
L 1069 0 
L 488 0 
z
" transform="scale(0.015625)"/>
      <path id="ArialMT-4d" d="M 475 0 
L 475 4581 
L 1388 4581 
L 2472 1338 
Q 2622 884 2691 659 
Q 2769 909 2934 1394 
L 4031 4581 
L 4847 4581 
L 4847 0 
L 4263 0 
L 4263 3834 
L 2931 0 
L 2384 0 
L 1059 3900 
L 1059 0 
L 475 0 
z
" transform="scale(0.015625)"/>
     </defs>
     <use xlink:href="#ArialMT-4e"/>
     <use xlink:href="#ArialMT-4d" x="72.216797"/>
     <use xlink:href="#ArialMT-49" x="155.517578"/>
    </g>
   </g>
   <g id="text_34">
    <!-- Leiden -->
    <g style="fill: #262626" transform="translate(429.619929 86.696246) scale(0.1 -0.1)">
     <use xlink:href="#ArialMT-4c"/>
     <use xlink:href="#ArialMT-65" x="55.615234"/>
     <use xlink:href="#ArialMT-69" x="111.230469"/>
     <use xlink:href="#ArialMT-64" x="133.447266"/>
     <use xlink:href="#ArialMT-65" x="189.0625"/>
     <use xlink:href="#ArialMT-6e" x="244.677734"/>
    </g>
    <!-- ARI -->
    <g style="fill: #262626" transform="translate(436.298054 97.273121) scale(0.1 -0.1)">
     <defs>
      <path id="ArialMT-41" d="M -9 0 
L 1750 4581 
L 2403 4581 
L 4278 0 
L 3588 0 
L 3053 1388 
L 1138 1388 
L 634 0 
L -9 0 
z
M 1313 1881 
L 2866 1881 
L 2388 3150 
Q 2169 3728 2063 4100 
Q 1975 3659 1816 3225 
L 1313 1881 
z
" transform="scale(0.015625)"/>
      <path id="ArialMT-52" d="M 503 0 
L 503 4581 
L 2534 4581 
Q 3147 4581 3465 4457 
Q 3784 4334 3975 4021 
Q 4166 3709 4166 3331 
Q 4166 2844 3850 2509 
Q 3534 2175 2875 2084 
Q 3116 1969 3241 1856 
Q 3506 1613 3744 1247 
L 4541 0 
L 3778 0 
L 3172 953 
Q 2906 1366 2734 1584 
Q 2563 1803 2427 1890 
Q 2291 1978 2150 2013 
Q 2047 2034 1813 2034 
L 1109 2034 
L 1109 0 
L 503 0 
z
M 1109 2559 
L 2413 2559 
Q 2828 2559 3062 2645 
Q 3297 2731 3419 2920 
Q 3541 3109 3541 3331 
Q 3541 3656 3305 3865 
Q 3069 4075 2559 4075 
L 1109 4075 
L 1109 2559 
z
" transform="scale(0.015625)"/>
     </defs>
     <use xlink:href="#ArialMT-41"/>
     <use xlink:href="#ArialMT-52" x="66.699219"/>
     <use xlink:href="#ArialMT-49" x="138.916016"/>
    </g>
   </g>
   <g id="text_35">
    <!-- Silhouette -->
    <g style="fill: #262626" transform="translate(484.565452 86.696246) scale(0.1 -0.1)">
     <defs>
      <path id="ArialMT-53" d="M 288 1472 
L 859 1522 
Q 900 1178 1048 958 
Q 1197 738 1509 602 
Q 1822 466 2213 466 
Q 2559 466 2825 569 
Q 3091 672 3220 851 
Q 3350 1031 3350 1244 
Q 3350 1459 3225 1620 
Q 3100 1781 2813 1891 
Q 2628 1963 1997 2114 
Q 1366 2266 1113 2400 
Q 784 2572 623 2826 
Q 463 3081 463 3397 
Q 463 3744 659 4045 
Q 856 4347 1234 4503 
Q 1613 4659 2075 4659 
Q 2584 4659 2973 4495 
Q 3363 4331 3572 4012 
Q 3781 3694 3797 3291 
L 3216 3247 
Q 3169 3681 2898 3903 
Q 2628 4125 2100 4125 
Q 1550 4125 1298 3923 
Q 1047 3722 1047 3438 
Q 1047 3191 1225 3031 
Q 1400 2872 2139 2705 
Q 2878 2538 3153 2413 
Q 3553 2228 3743 1945 
Q 3934 1663 3934 1294 
Q 3934 928 3725 604 
Q 3516 281 3123 101 
Q 2731 -78 2241 -78 
Q 1619 -78 1198 103 
Q 778 284 539 648 
Q 300 1013 288 1472 
z
" transform="scale(0.015625)"/>
      <path id="ArialMT-68" d="M 422 0 
L 422 4581 
L 984 4581 
L 984 2938 
Q 1378 3394 1978 3394 
Q 2347 3394 2619 3248 
Q 2891 3103 3008 2847 
Q 3125 2591 3125 2103 
L 3125 0 
L 2563 0 
L 2563 2103 
Q 2563 2525 2380 2717 
Q 2197 2909 1863 2909 
Q 1613 2909 1392 2779 
Q 1172 2650 1078 2428 
Q 984 2206 984 1816 
L 984 0 
L 422 0 
z
" transform="scale(0.015625)"/>
      <path id="ArialMT-75" d="M 2597 0 
L 2597 488 
Q 2209 -75 1544 -75 
Q 1250 -75 995 37 
Q 741 150 617 320 
Q 494 491 444 738 
Q 409 903 409 1263 
L 409 3319 
L 972 3319 
L 972 1478 
Q 972 1038 1006 884 
Q 1059 663 1231 536 
Q 1403 409 1656 409 
Q 1909 409 2131 539 
Q 2353 669 2445 892 
Q 2538 1116 2538 1541 
L 2538 3319 
L 3100 3319 
L 3100 0 
L 2597 0 
z
" transform="scale(0.015625)"/>
     </defs>
     <use xlink:href="#ArialMT-53"/>
     <use xlink:href="#ArialMT-69" x="66.699219"/>
     <use xlink:href="#ArialMT-6c" x="88.916016"/>
     <use xlink:href="#ArialMT-68" x="111.132812"/>
     <use xlink:href="#ArialMT-6f" x="166.748047"/>
     <use xlink:href="#ArialMT-75" x="222.363281"/>
     <use xlink:href="#ArialMT-65" x="277.978516"/>
     <use xlink:href="#ArialMT-74" x="333.59375"/>
     <use xlink:href="#ArialMT-74" x="361.376953"/>
     <use xlink:href="#ArialMT-65" x="389.160156"/>
    </g>
    <!-- label -->
    <g style="fill: #262626" transform="translate(496.239671 97.273121) scale(0.1 -0.1)">
     <use xlink:href="#ArialMT-6c"/>
     <use xlink:href="#ArialMT-61" x="22.216797"/>
     <use xlink:href="#ArialMT-62" x="77.832031"/>
     <use xlink:href="#ArialMT-65" x="133.447266"/>
     <use xlink:href="#ArialMT-6c" x="189.0625"/>
    </g>
   </g>
   <g id="text_36">
    <!-- cLISI -->
    <g style="fill: #262626" transform="translate(557.578944 91.984683) scale(0.1 -0.1)">
     <defs>
      <path id="ArialMT-63" d="M 2588 1216 
L 3141 1144 
Q 3050 572 2676 248 
Q 2303 -75 1759 -75 
Q 1078 -75 664 370 
Q 250 816 250 1647 
Q 250 2184 428 2587 
Q 606 2991 970 3192 
Q 1334 3394 1763 3394 
Q 2303 3394 2647 3120 
Q 2991 2847 3088 2344 
L 2541 2259 
Q 2463 2594 2264 2762 
Q 2066 2931 1784 2931 
Q 1359 2931 1093 2626 
Q 828 2322 828 1663 
Q 828 994 1084 691 
Q 1341 388 1753 388 
Q 2084 388 2306 591 
Q 2528 794 2588 1216 
z
" transform="scale(0.015625)"/>
     </defs>
     <use xlink:href="#ArialMT-63"/>
     <use xlink:href="#ArialMT-4c" x="50"/>
     <use xlink:href="#ArialMT-49" x="105.615234"/>
     <use xlink:href="#ArialMT-53" x="133.398438"/>
     <use xlink:href="#ArialMT-49" x="200.097656"/>
    </g>
   </g>
   <g id="text_37">
    <!-- Silhouette -->
    <g style="fill: #262626" transform="translate(608.904935 86.696246) scale(0.1 -0.1)">
     <use xlink:href="#ArialMT-53"/>
     <use xlink:href="#ArialMT-69" x="66.699219"/>
     <use xlink:href="#ArialMT-6c" x="88.916016"/>
     <use xlink:href="#ArialMT-68" x="111.132812"/>
     <use xlink:href="#ArialMT-6f" x="166.748047"/>
     <use xlink:href="#ArialMT-75" x="222.363281"/>
     <use xlink:href="#ArialMT-65" x="277.978516"/>
     <use xlink:href="#ArialMT-74" x="333.59375"/>
     <use xlink:href="#ArialMT-74" x="361.376953"/>
     <use xlink:href="#ArialMT-65" x="389.160156"/>
    </g>
    <!-- batch -->
    <g style="fill: #262626" transform="translate(618.911967 97.273121) scale(0.1 -0.1)">
     <use xlink:href="#ArialMT-62"/>
     <use xlink:href="#ArialMT-61" x="55.615234"/>
     <use xlink:href="#ArialMT-74" x="111.230469"/>
     <use xlink:href="#ArialMT-63" x="139.013672"/>
     <use xlink:href="#ArialMT-68" x="189.013672"/>
    </g>
   </g>
   <g id="text_38">
    <!-- iLISI -->
    <g style="fill: #262626" transform="translate(683.30749 91.984683) scale(0.1 -0.1)">
     <use xlink:href="#ArialMT-69"/>
     <use xlink:href="#ArialMT-4c" x="22.216797"/>
     <use xlink:href="#ArialMT-49" x="77.832031"/>
     <use xlink:href="#ArialMT-53" x="105.615234"/>
     <use xlink:href="#ArialMT-49" x="172.314453"/>
    </g>
   </g>
   <g id="text_39">
    <!-- KBET -->
    <g style="fill: #262626" transform="translate(742.422544 91.984683) scale(0.1 -0.1)">
     <defs>
      <path id="ArialMT-4b" d="M 469 0 
L 469 4581 
L 1075 4581 
L 1075 2309 
L 3350 4581 
L 4172 4581 
L 2250 2725 
L 4256 0 
L 3456 0 
L 1825 2319 
L 1075 1588 
L 1075 0 
L 469 0 
z
" transform="scale(0.015625)"/>
      <path id="ArialMT-42" d="M 469 0 
L 469 4581 
L 2188 4581 
Q 2713 4581 3030 4442 
Q 3347 4303 3526 4014 
Q 3706 3725 3706 3409 
Q 3706 3116 3547 2856 
Q 3388 2597 3066 2438 
Q 3481 2316 3704 2022 
Q 3928 1728 3928 1328 
Q 3928 1006 3792 729 
Q 3656 453 3456 303 
Q 3256 153 2954 76 
Q 2653 0 2216 0 
L 469 0 
z
M 1075 2656 
L 2066 2656 
Q 2469 2656 2644 2709 
Q 2875 2778 2992 2937 
Q 3109 3097 3109 3338 
Q 3109 3566 3000 3739 
Q 2891 3913 2687 3977 
Q 2484 4041 1991 4041 
L 1075 4041 
L 1075 2656 
z
M 1075 541 
L 2216 541 
Q 2509 541 2628 563 
Q 2838 600 2978 687 
Q 3119 775 3209 942 
Q 3300 1109 3300 1328 
Q 3300 1584 3169 1773 
Q 3038 1963 2805 2039 
Q 2572 2116 2134 2116 
L 1075 2116 
L 1075 541 
z
" transform="scale(0.015625)"/>
      <path id="ArialMT-45" d="M 506 0 
L 506 4581 
L 3819 4581 
L 3819 4041 
L 1113 4041 
L 1113 2638 
L 3647 2638 
L 3647 2100 
L 1113 2100 
L 1113 541 
L 3925 541 
L 3925 0 
L 506 0 
z
" transform="scale(0.015625)"/>
      <path id="ArialMT-54" d="M 1659 0 
L 1659 4041 
L 150 4041 
L 150 4581 
L 3781 4581 
L 3781 4041 
L 2266 4041 
L 2266 0 
L 1659 0 
z
" transform="scale(0.015625)"/>
     </defs>
     <use xlink:href="#ArialMT-4b"/>
     <use xlink:href="#ArialMT-42" x="66.699219"/>
     <use xlink:href="#ArialMT-45" x="133.398438"/>
     <use xlink:href="#ArialMT-54" x="200.097656"/>
    </g>
   </g>
   <g id="text_40">
    <!-- Graph -->
    <g style="fill: #262626" transform="translate(803.756348 86.69859) scale(0.1 -0.1)">
     <defs>
      <path id="ArialMT-47" d="M 2638 1797 
L 2638 2334 
L 4578 2338 
L 4578 638 
Q 4131 281 3656 101 
Q 3181 -78 2681 -78 
Q 2006 -78 1454 211 
Q 903 500 622 1047 
Q 341 1594 341 2269 
Q 341 2938 620 3517 
Q 900 4097 1425 4378 
Q 1950 4659 2634 4659 
Q 3131 4659 3532 4498 
Q 3934 4338 4162 4050 
Q 4391 3763 4509 3300 
L 3963 3150 
Q 3859 3500 3706 3700 
Q 3553 3900 3268 4020 
Q 2984 4141 2638 4141 
Q 2222 4141 1919 4014 
Q 1616 3888 1430 3681 
Q 1244 3475 1141 3228 
Q 966 2803 966 2306 
Q 966 1694 1177 1281 
Q 1388 869 1791 669 
Q 2194 469 2647 469 
Q 3041 469 3416 620 
Q 3791 772 3984 944 
L 3984 1797 
L 2638 1797 
z
" transform="scale(0.015625)"/>
      <path id="ArialMT-72" d="M 416 0 
L 416 3319 
L 922 3319 
L 922 2816 
Q 1116 3169 1280 3281 
Q 1444 3394 1641 3394 
Q 1925 3394 2219 3213 
L 2025 2691 
Q 1819 2813 1613 2813 
Q 1428 2813 1281 2702 
Q 1134 2591 1072 2394 
Q 978 2094 978 1738 
L 978 0 
L 416 0 
z
" transform="scale(0.015625)"/>
      <path id="ArialMT-70" d="M 422 -1272 
L 422 3319 
L 934 3319 
L 934 2888 
Q 1116 3141 1344 3267 
Q 1572 3394 1897 3394 
Q 2322 3394 2647 3175 
Q 2972 2956 3137 2557 
Q 3303 2159 3303 1684 
Q 3303 1175 3120 767 
Q 2938 359 2589 142 
Q 2241 -75 1856 -75 
Q 1575 -75 1351 44 
Q 1128 163 984 344 
L 984 -1272 
L 422 -1272 
z
M 931 1641 
Q 931 1000 1190 694 
Q 1450 388 1819 388 
Q 2194 388 2461 705 
Q 2728 1022 2728 1688 
Q 2728 2322 2467 2637 
Q 2206 2953 1844 2953 
Q 1484 2953 1207 2617 
Q 931 2281 931 1641 
z
" transform="scale(0.015625)"/>
     </defs>
     <use xlink:href="#ArialMT-47"/>
     <use xlink:href="#ArialMT-72" x="77.783203"/>
     <use xlink:href="#ArialMT-61" x="111.083984"/>
     <use xlink:href="#ArialMT-70" x="166.699219"/>
     <use xlink:href="#ArialMT-68" x="222.314453"/>
    </g>
    <!-- connectivity -->
    <g style="fill: #262626" transform="translate(791.529786 97.275465) scale(0.1 -0.1)">
     <defs>
      <path id="ArialMT-76" d="M 1344 0 
L 81 3319 
L 675 3319 
L 1388 1331 
Q 1503 1009 1600 663 
Q 1675 925 1809 1294 
L 2547 3319 
L 3125 3319 
L 1869 0 
L 1344 0 
z
" transform="scale(0.015625)"/>
      <path id="ArialMT-79" d="M 397 -1278 
L 334 -750 
Q 519 -800 656 -800 
Q 844 -800 956 -737 
Q 1069 -675 1141 -563 
Q 1194 -478 1313 -144 
Q 1328 -97 1363 -6 
L 103 3319 
L 709 3319 
L 1400 1397 
Q 1534 1031 1641 628 
Q 1738 1016 1872 1384 
L 2581 3319 
L 3144 3319 
L 1881 -56 
Q 1678 -603 1566 -809 
Q 1416 -1088 1222 -1217 
Q 1028 -1347 759 -1347 
Q 597 -1347 397 -1278 
z
" transform="scale(0.015625)"/>
     </defs>
     <use xlink:href="#ArialMT-63"/>
     <use xlink:href="#ArialMT-6f" x="50"/>
     <use xlink:href="#ArialMT-6e" x="105.615234"/>
     <use xlink:href="#ArialMT-6e" x="161.230469"/>
     <use xlink:href="#ArialMT-65" x="216.845703"/>
     <use xlink:href="#ArialMT-63" x="272.460938"/>
     <use xlink:href="#ArialMT-74" x="322.460938"/>
     <use xlink:href="#ArialMT-69" x="350.244141"/>
     <use xlink:href="#ArialMT-76" x="372.460938"/>
     <use xlink:href="#ArialMT-69" x="422.460938"/>
     <use xlink:href="#ArialMT-74" x="444.677734"/>
     <use xlink:href="#ArialMT-79" x="472.460938"/>
    </g>
   </g>
   <g id="text_41">
    <!-- Batch -->
    <g style="fill: #262626" transform="translate(867.036246 86.696246) scale(0.1 -0.1)">
     <use xlink:href="#ArialMT-42"/>
     <use xlink:href="#ArialMT-61" x="66.699219"/>
     <use xlink:href="#ArialMT-74" x="122.314453"/>
     <use xlink:href="#ArialMT-63" x="150.097656"/>
     <use xlink:href="#ArialMT-68" x="200.097656"/>
    </g>
    <!-- correction -->
    <g style="fill: #262626" transform="translate(857.86984 97.273121) scale(0.1 -0.1)">
     <use xlink:href="#ArialMT-63"/>
     <use xlink:href="#ArialMT-6f" x="50"/>
     <use xlink:href="#ArialMT-72" x="105.615234"/>
     <use xlink:href="#ArialMT-72" x="138.916016"/>
     <use xlink:href="#ArialMT-65" x="172.216797"/>
     <use xlink:href="#ArialMT-63" x="227.832031"/>
     <use xlink:href="#ArialMT-74" x="277.832031"/>
     <use xlink:href="#ArialMT-69" x="305.615234"/>
     <use xlink:href="#ArialMT-6f" x="327.832031"/>
     <use xlink:href="#ArialMT-6e" x="383.447266"/>
    </g>
   </g>
   <g id="text_42">
    <!-- Bio -->
    <g style="fill: #262626" transform="translate(934.764581 86.696246) scale(0.1 -0.1)">
     <use xlink:href="#ArialMT-42"/>
     <use xlink:href="#ArialMT-69" x="66.699219"/>
     <use xlink:href="#ArialMT-6f" x="88.916016"/>
    </g>
    <!-- conservation -->
    <g style="fill: #262626" transform="translate(913.643488 97.273121) scale(0.1 -0.1)">
     <use xlink:href="#ArialMT-63"/>
     <use xlink:href="#ArialMT-6f" x="50"/>
     <use xlink:href="#ArialMT-6e" x="105.615234"/>
     <use xlink:href="#ArialMT-73" x="161.230469"/>
     <use xlink:href="#ArialMT-65" x="211.230469"/>
     <use xlink:href="#ArialMT-72" x="266.845703"/>
     <use xlink:href="#ArialMT-76" x="300.146484"/>
     <use xlink:href="#ArialMT-61" x="350.146484"/>
     <use xlink:href="#ArialMT-74" x="405.761719"/>
     <use xlink:href="#ArialMT-69" x="433.544922"/>
     <use xlink:href="#ArialMT-6f" x="455.761719"/>
     <use xlink:href="#ArialMT-6e" x="511.376953"/>
    </g>
   </g>
   <g id="text_43">
    <!-- Total -->
    <g style="fill: #262626" transform="translate(993.602292 91.984683) scale(0.1 -0.1)">
     <use xlink:href="#ArialMT-54"/>
     <use xlink:href="#ArialMT-6f" x="49.958984"/>
     <use xlink:href="#ArialMT-74" x="105.574219"/>
     <use xlink:href="#ArialMT-61" x="133.357422"/>
     <use xlink:href="#ArialMT-6c" x="188.972656"/>
    </g>
   </g>
   <g id="text_44">
    <!-- Batch correction -->
    <g style="fill: #262626" transform="translate(688.271267 62.181525) scale(0.1 -0.1)">
     <defs>
      <path id="ArialMT-20" transform="scale(0.015625)"/>
     </defs>
     <use xlink:href="#ArialMT-42"/>
     <use xlink:href="#ArialMT-61" x="66.699219"/>
     <use xlink:href="#ArialMT-74" x="122.314453"/>
     <use xlink:href="#ArialMT-63" x="150.097656"/>
     <use xlink:href="#ArialMT-68" x="200.097656"/>
     <use xlink:href="#ArialMT-20" x="255.712891"/>
     <use xlink:href="#ArialMT-63" x="283.496094"/>
     <use xlink:href="#ArialMT-6f" x="333.496094"/>
     <use xlink:href="#ArialMT-72" x="389.111328"/>
     <use xlink:href="#ArialMT-72" x="422.412109"/>
     <use xlink:href="#ArialMT-65" x="455.712891"/>
     <use xlink:href="#ArialMT-63" x="511.328125"/>
     <use xlink:href="#ArialMT-74" x="561.328125"/>
     <use xlink:href="#ArialMT-69" x="589.111328"/>
     <use xlink:href="#ArialMT-6f" x="611.328125"/>
     <use xlink:href="#ArialMT-6e" x="666.943359"/>
    </g>
   </g>
   <g id="text_45">
    <!-- Aggregate score -->
    <g style="fill: #262626" transform="translate(905.304425 62.064337) scale(0.1 -0.1)">
     <defs>
      <path id="ArialMT-67" d="M 319 -275 
L 866 -356 
Q 900 -609 1056 -725 
Q 1266 -881 1628 -881 
Q 2019 -881 2231 -725 
Q 2444 -569 2519 -288 
Q 2563 -116 2559 434 
Q 2191 0 1641 0 
Q 956 0 581 494 
Q 206 988 206 1678 
Q 206 2153 378 2554 
Q 550 2956 876 3175 
Q 1203 3394 1644 3394 
Q 2231 3394 2613 2919 
L 2613 3319 
L 3131 3319 
L 3131 450 
Q 3131 -325 2973 -648 
Q 2816 -972 2473 -1159 
Q 2131 -1347 1631 -1347 
Q 1038 -1347 672 -1080 
Q 306 -813 319 -275 
z
M 784 1719 
Q 784 1066 1043 766 
Q 1303 466 1694 466 
Q 2081 466 2343 764 
Q 2606 1063 2606 1700 
Q 2606 2309 2336 2618 
Q 2066 2928 1684 2928 
Q 1309 2928 1046 2623 
Q 784 2319 784 1719 
z
" transform="scale(0.015625)"/>
     </defs>
     <use xlink:href="#ArialMT-41"/>
     <use xlink:href="#ArialMT-67" x="66.699219"/>
     <use xlink:href="#ArialMT-67" x="122.314453"/>
     <use xlink:href="#ArialMT-72" x="177.929688"/>
     <use xlink:href="#ArialMT-65" x="211.230469"/>
     <use xlink:href="#ArialMT-67" x="266.845703"/>
     <use xlink:href="#ArialMT-61" x="322.460938"/>
     <use xlink:href="#ArialMT-74" x="378.076172"/>
     <use xlink:href="#ArialMT-65" x="405.859375"/>
     <use xlink:href="#ArialMT-20" x="461.474609"/>
     <use xlink:href="#ArialMT-73" x="489.257812"/>
     <use xlink:href="#ArialMT-63" x="539.257812"/>
     <use xlink:href="#ArialMT-6f" x="589.257812"/>
     <use xlink:href="#ArialMT-72" x="644.873047"/>
     <use xlink:href="#ArialMT-65" x="678.173828"/>
    </g>
   </g>
   <g id="text_46">
    <!-- Bio conservation -->
    <g style="fill: #262626" transform="translate(407.669929 62.181525) scale(0.1 -0.1)">
     <use xlink:href="#ArialMT-42"/>
     <use xlink:href="#ArialMT-69" x="66.699219"/>
     <use xlink:href="#ArialMT-6f" x="88.916016"/>
     <use xlink:href="#ArialMT-20" x="144.53125"/>
     <use xlink:href="#ArialMT-63" x="172.314453"/>
     <use xlink:href="#ArialMT-6f" x="222.314453"/>
     <use xlink:href="#ArialMT-6e" x="277.929688"/>
     <use xlink:href="#ArialMT-73" x="333.544922"/>
     <use xlink:href="#ArialMT-65" x="383.544922"/>
     <use xlink:href="#ArialMT-72" x="439.160156"/>
     <use xlink:href="#ArialMT-76" x="472.460938"/>
     <use xlink:href="#ArialMT-61" x="522.460938"/>
     <use xlink:href="#ArialMT-74" x="578.076172"/>
     <use xlink:href="#ArialMT-69" x="605.859375"/>
     <use xlink:href="#ArialMT-6f" x="628.076172"/>
     <use xlink:href="#ArialMT-6e" x="683.691406"/>
    </g>
   </g>
  </g>
  <g id="axes_2">
   <g id="patch_102">
    <path d="M 850.216763 142.804091 
L 881.513463 142.804091 
L 881.513463 120.096638 
L 850.216763 120.096638 
z
" clip-path="url(#pf6945474e5)" style="fill: #39adc3"/>
   </g>
   <g id="text_47">
    <!-- 0.53 -->
    <g style="fill: #262626" transform="translate(852.787919 135.069583) scale(0.14 -0.14)">
     <use xlink:href="#ArialMT-30"/>
     <use xlink:href="#ArialMT-2e" x="55.615234"/>
     <use xlink:href="#ArialMT-35" x="83.398438"/>
     <use xlink:href="#ArialMT-33" x="139.013672"/>
    </g>
   </g>
  </g>
  <g id="axes_3">
   <g id="patch_103">
    <path d="M 912.386505 142.804091 
L 950.120945 142.804091 
L 950.120945 120.096638 
L 912.386505 120.096638 
z
" clip-path="url(#pa2c9710aef)" style="fill: #1e8bbd"/>
   </g>
   <g id="text_48">
    <!-- 0.64 -->
    <g style="fill: #262626" transform="translate(921.3954 135.069583) scale(0.14 -0.14)">
     <use xlink:href="#ArialMT-30"/>
     <use xlink:href="#ArialMT-2e" x="55.615234"/>
     <use xlink:href="#ArialMT-36" x="83.398438"/>
     <use xlink:href="#ArialMT-34" x="139.013672"/>
    </g>
   </g>
  </g>
  <g id="axes_4">
   <g id="patch_104">
    <path d="M 974.556247 142.804091 
L 1009.71559 142.804091 
L 1009.71559 120.096638 
L 974.556247 120.096638 
z
" clip-path="url(#p773dc322e2)" style="fill: #259ac1"/>
   </g>
   <g id="text_49">
    <!-- 0.59 -->
    <g style="fill: #262626" transform="translate(980.990046 135.069583) scale(0.14 -0.14)">
     <use xlink:href="#ArialMT-30"/>
     <use xlink:href="#ArialMT-2e" x="55.615234"/>
     <use xlink:href="#ArialMT-35" x="83.398438"/>
     <use xlink:href="#ArialMT-39" x="139.013672"/>
    </g>
   </g>
  </g>
  <g id="axes_5">
   <g id="patch_105">
    <path d="M 850.216763 184.854928 
L 877.615026 184.854928 
L 877.615026 162.147476 
L 850.216763 162.147476 
z
" clip-path="url(#pab38519713)" style="fill: #53bdc1"/>
   </g>
   <g id="text_50">
    <!-- 0.46 -->
    <g style="fill: #262626" transform="translate(879.095258 177.120421) scale(0.14 -0.14)">
     <use xlink:href="#ArialMT-30"/>
     <use xlink:href="#ArialMT-2e" x="55.615234"/>
     <use xlink:href="#ArialMT-34" x="83.398438"/>
     <use xlink:href="#ArialMT-36" x="139.013672"/>
    </g>
   </g>
  </g>
  <g id="axes_6">
   <g id="patch_106">
    <path d="M 912.386505 184.854928 
L 943.268325 184.854928 
L 943.268325 162.147476 
L 912.386505 162.147476 
z
" clip-path="url(#pbb4883ff6a)" style="fill: #3bb0c3"/>
   </g>
   <g id="text_51">
    <!-- 0.52 -->
    <g style="fill: #262626" transform="translate(914.542781 177.120421) scale(0.14 -0.14)">
     <use xlink:href="#ArialMT-30"/>
     <use xlink:href="#ArialMT-2e" x="55.615234"/>
     <use xlink:href="#ArialMT-35" x="83.398438"/>
     <use xlink:href="#ArialMT-32" x="139.013672"/>
    </g>
   </g>
  </g>
  <g id="axes_7">
   <g id="patch_107">
    <path d="M 974.556247 184.854928 
L 1004.044644 184.854928 
L 1004.044644 162.147476 
L 974.556247 162.147476 
z
" clip-path="url(#p6234651f4c)" style="fill: #42b6c4"/>
   </g>
   <g id="text_52">
    <!-- 0.50 -->
    <g style="fill: #262626" transform="translate(1005.524876 177.120421) scale(0.14 -0.14)">
     <use xlink:href="#ArialMT-30"/>
     <use xlink:href="#ArialMT-2e" x="55.615234"/>
     <use xlink:href="#ArialMT-35" x="83.398438"/>
     <use xlink:href="#ArialMT-30" x="139.013672"/>
    </g>
   </g>
  </g>
  <g id="axes_8">
   <g id="patch_108">
    <path d="M 850.216763 226.905766 
L 868.588759 226.905766 
L 868.588759 204.198313 
L 850.216763 204.198313 
z
" clip-path="url(#p861d1a3b9b)" style="fill: #a5dcb7"/>
   </g>
   <g id="text_53">
    <!-- 0.31 -->
    <g style="fill: #262626" transform="translate(870.068991 219.171258) scale(0.14 -0.14)">
     <use xlink:href="#ArialMT-30"/>
     <use xlink:href="#ArialMT-2e" x="55.615234"/>
     <use xlink:href="#ArialMT-33" x="83.398438"/>
     <use xlink:href="#ArialMT-31" x="139.013672"/>
    </g>
   </g>
  </g>
  <g id="axes_9">
   <g id="patch_109">
    <path d="M 912.386505 226.905766 
L 941.051013 226.905766 
L 941.051013 204.198313 
L 912.386505 204.198313 
z
" clip-path="url(#pf90eddc0c8)" style="fill: #4ab9c3"/>
   </g>
   <g id="text_54">
    <!-- 0.48 -->
    <g style="fill: #262626" transform="translate(942.531245 219.171258) scale(0.14 -0.14)">
     <use xlink:href="#ArialMT-30"/>
     <use xlink:href="#ArialMT-2e" x="55.615234"/>
     <use xlink:href="#ArialMT-34" x="83.398438"/>
     <use xlink:href="#ArialMT-38" x="139.013672"/>
    </g>
   </g>
  </g>
  <g id="axes_10">
   <g id="patch_110">
    <path d="M 974.556247 226.905766 
L 999.10375 226.905766 
L 999.10375 204.198313 
L 974.556247 204.198313 
z
" clip-path="url(#p38e7dc6703)" style="fill: #6bc6be"/>
   </g>
   <g id="text_55">
    <!-- 0.41 -->
    <g style="fill: #262626" transform="translate(1000.583982 219.171258) scale(0.14 -0.14)">
     <use xlink:href="#ArialMT-30"/>
     <use xlink:href="#ArialMT-2e" x="55.615234"/>
     <use xlink:href="#ArialMT-34" x="83.398438"/>
     <use xlink:href="#ArialMT-31" x="139.013672"/>
    </g>
   </g>
  </g>
 </g>
 <defs>
  <clipPath id="pab0625ac00">
   <rect x="194.4" y="25.272" width="842.4" height="213.408"/>
  </clipPath>
  <clipPath id="pf6945474e5">
   <rect x="848.736531" y="118.835113" width="62.169742" height="25.230502"/>
  </clipPath>
  <clipPath id="pa2c9710aef">
   <rect x="910.906273" y="118.835113" width="62.169742" height="25.230502"/>
  </clipPath>
  <clipPath id="p773dc322e2">
   <rect x="973.076015" y="118.835113" width="62.169742" height="25.230502"/>
  </clipPath>
  <clipPath id="pab38519713">
   <rect x="848.736531" y="160.885951" width="62.169742" height="25.230502"/>
  </clipPath>
  <clipPath id="pbb4883ff6a">
   <rect x="910.906273" y="160.885951" width="62.169742" height="25.230502"/>
  </clipPath>
  <clipPath id="p6234651f4c">
   <rect x="973.076015" y="160.885951" width="62.169742" height="25.230502"/>
  </clipPath>
  <clipPath id="p861d1a3b9b">
   <rect x="848.736531" y="202.936788" width="62.169742" height="25.230502"/>
  </clipPath>
  <clipPath id="pf90eddc0c8">
   <rect x="910.906273" y="202.936788" width="62.169742" height="25.230502"/>
  </clipPath>
  <clipPath id="p38e7dc6703">
   <rect x="973.076015" y="202.936788" width="62.169742" height="25.230502"/>
  </clipPath>
 </defs>
</svg>
